<?xml version="1.0" encoding="UTF-8" standalone="no"?>
<!-- Created with Inkscape (http://www.inkscape.org/) -->

<svg
   xmlns:ns0="http://www.iki.fi/pav/software/textext/"
   xmlns:dc="http://purl.org/dc/elements/1.1/"
   xmlns:cc="http://creativecommons.org/ns#"
   xmlns:rdf="http://www.w3.org/1999/02/22-rdf-syntax-ns#"
   xmlns:svg="http://www.w3.org/2000/svg"
   xmlns="http://www.w3.org/2000/svg"
   xmlns:sodipodi="http://sodipodi.sourceforge.net/DTD/sodipodi-0.dtd"
   xmlns:inkscape="http://www.inkscape.org/namespaces/inkscape"
   width="160"
   height="40"
   id="svg2"
   inkscape:label="Pozadí"
   version="1.1"
   inkscape:version="0.47 r22583"
   sodipodi:docname="ex1-noise-pdfs.svg"
   inkscape:export-filename="/localhome/flidr/matlab/IDM-toolboxes/nft/nef/trunk/help/html/graphics/ex1-system.png"
   inkscape:export-xdpi="120"
   inkscape:export-ydpi="120">
  <sodipodi:namedview
     id="base"
     pagecolor="#ffffff"
     bordercolor="#666666"
     borderopacity="1.0"
     inkscape:pageopacity="0.0"
     inkscape:pageshadow="2"
     inkscape:zoom="1.4"
     inkscape:cx="52.235979"
     inkscape:cy="-70.446411"
     inkscape:document-units="px"
     inkscape:current-layer="layer1"
     showgrid="false"
     inkscape:window-width="1211"
     inkscape:window-height="944"
     inkscape:window-x="0"
     inkscape:window-y="0"
     inkscape:window-maximized="0" />
  <defs
     id="defs3">
    <inkscape:perspective
       id="perspective9"
       inkscape:persp3d-origin="372.04724 : 350.78739 : 1"
       inkscape:vp_z="744.09448 : 526.18109 : 1"
       inkscape:vp_y="0 : 1000 : 0"
       inkscape:vp_x="0 : 526.18109 : 1"
       sodipodi:type="inkscape:persp3d" />
  </defs>
  <metadata
     id="metadata6">
    <rdf:RDF>
      <cc:Work
         rdf:about="">
        <dc:format>image/svg+xml</dc:format>
        <dc:type
           rdf:resource="http://purl.org/dc/dcmitype/StillImage" />
        <dc:title />
      </cc:Work>
    </rdf:RDF>
  </metadata>
  <g
     transform="translate(-116.76,-260.42)"
     id="layer1"
     inkscape:groupmode="layer"
     inkscape:label="Vrstva 1">
    <g
       style="font-style:normal;font-variant:normal;font-weight:normal;font-stretch:normal;letter-spacing:normal;word-spacing:normal;text-anchor:start;fill:none;stroke:#000000;stroke-linecap:butt;stroke-linejoin:miter;stroke-miterlimit:10.43299961;stroke-opacity:1;stroke-dasharray:none;stroke-dashoffset:0"
       ns0:preamble="/localhome/flidr/matlab/IDM-toolboxes/nft/nef/trunk/help/html/graphics/src/preamble.inc"
       ns0:text="\\begin{align*}\n p(\\bdw_k)&amp;=\\mathcal{N}\\left\\{\\bdw_k;\n     \\left(\n       \\begin{matrix} \n         0 \\\\ \n         0\n       \\end{matrix}\n     \\right), \n     \\left(\n       \\begin{matrix} \n         0.5 &amp; 0 \\\\ \n         0 &amp; 0.5\n       \\end{matrix}\n     \\right)\n   \\right\\},\\\\\n   p(v_k)&amp;=\\mathcal{N}\n   \\left\\{v_k;0,0.01 \\right\\}\n\\end{align*}"
       word-spacing="normal"
       letter-spacing="normal"
       font-size-adjust="none"
       font-stretch="normal"
       font-weight="normal"
       font-variant="normal"
       font-style="normal"
       stroke-miterlimit="10.433"
       xml:space="preserve"
       transform="matrix(1,0,0,-1,-198.165,748.425)"
       id="content">
<path
   id="path5048"
   d="m 317.53,476.78 h 0.23 c 0,0 0.02,0 0.03,0.01 0.13,0.06 0.39,-0.13 0.39,-0.28 0,-0.09 -0.36,-1.5 -0.71,-2.82 -0.27,-0.99 -0.51,-1.94 -0.58,-2.23 -0.11,-0.46 -0.24,-0.58 -0.66,-0.59 v -0.16 h 2.04 v 0.15 c -0.47,0 -0.64,0.09 -0.64,0.3 0,0.14 0.17,0.92 0.37,1.66 0.25,-0.14 0.43,-0.18 0.66,-0.18 l -0.04,0.19 c -0.28,0 -0.48,0.15 -0.48,0.37 0,0.34 0.36,1.65 0.65,2.38 0.26,0.68 0.84,1.17 1.34,1.14 h 0 c 0.43,-0.02 0.62,-0.28 0.62,-0.86 0,-0.65 -0.29,-1.51 -0.72,-2.13 -0.42,-0.59 -0.9,-0.9 -1.41,-0.9 l 0.04,-0.19 c 1.45,0 2.98,1.68 2.98,3.26 0,0.78 -0.43,1.25 -1.14,1.25 -0.65,0 -1.13,-0.32 -1.7,-1.13 l 0.28,1 0.03,0.09 c 0,0 -0.01,0.01 -0.01,0.03 l -0.02,0.01 c 0,0.01 -0.01,0.01 -0.01,0.01 l -0.02,-0.01 -1.54,-0.22 z"
   style="fill:#000000;stroke-width:0" />
<path
   id="path5050"
   d="m 325.83,471 -0.14,0.1 -0.14,0.11 -0.12,0.11 -0.12,0.11 -0.11,0.12 -0.11,0.11 -0.1,0.12 -0.09,0.13 -0.08,0.12 -0.08,0.13 -0.08,0.13 -0.07,0.14 -0.06,0.13 -0.06,0.14 -0.05,0.14 -0.05,0.14 -0.04,0.15 -0.04,0.14 -0.04,0.15 -0.03,0.15 -0.03,0.15 -0.02,0.16 -0.02,0.15 -0.02,0.16 -0.03,0.31 -0.02,0.32 0,0.33 -0.01,0.33 c 0,1.51 0.29,3.38 1.76,4.19 v 0.21 c -1.75,-0.78 -2.69,-2.69 -2.69,-4.53 0,-1.92 0.95,-3.66 2.69,-4.53 z"
   style="fill:#000000;stroke-width:0" />
<path
   id="path5052"
   d="m 331.03,477.36 h -1.17 l -0.58,-2.7 c -0.26,-1.21 -0.59,-1.28 -0.74,-1.28 -0.17,0 -0.25,0.16 -0.25,0.45 0,0.17 0.03,0.4 0.08,0.67 l 0.31,1.65 c 0.02,0.13 0.04,0.24 0.04,0.35 0,0.63 -0.42,0.86 -0.94,0.86 -0.6,0 -1.1,-0.5 -1.1,-0.95 0,-0.1 0.04,-0.18 0.07,-0.23 h 0.18 c 0.03,0.17 0.16,0.5 0.39,0.5 0.15,0 0.25,-0.11 0.25,-0.27 0,-0.08 -0.06,-0.37 -0.08,-0.45 l -0.22,-1.04 c -0.06,-0.22 -0.15,-0.84 -0.15,-1.06 0,-0.76 0.44,-1.24 1.15,-1.24 0.81,0 1.13,0.54 1.35,0.9 0.18,-0.6 0.5,-0.9 0.89,-0.9 1.62,0 2.26,2.4 2.26,3.73 0,0.4 -0.13,1.01 -0.64,1.01 -0.19,0 -0.52,-0.11 -0.52,-0.4 0,-0.42 0.46,-0.38 0.46,-1.24 0,-1.33 -0.86,-2.34 -1.19,-2.34 -0.27,0 -0.4,0.26 -0.4,0.77 0,0.33 0.05,0.76 0.16,1.28 z"
   style="fill:#000000;stroke-width:0" />
<path
   id="path5054"
   d="m 336.68,472.08 -0.11,-0.2 c -0.14,-0.23 -0.23,-0.31 -0.34,-0.31 -0.16,0 -0.32,0.25 -0.62,0.97 -0.03,0.1 -0.15,0.37 -0.28,0.67 1.12,0.99 1.35,1.14 1.71,1.17 v 0.12 h -1.39 v -0.12 h 0.12 c 0.19,0 0.3,-0.06 0.3,-0.14 0,-0.15 -0.38,-0.52 -1.08,-1.06 -0.11,-0.08 -0.2,-0.16 -0.33,-0.25 l 0.91,3.46 -0.04,0.04 c -0.45,-0.1 -0.73,-0.16 -1.18,-0.21 v -0.12 c 0.36,0.01 0.51,-0.05 0.51,-0.19 -0.01,-0.13 -0.06,-0.33 -0.16,-0.68 -0.03,-0.11 -0.06,-0.19 -0.07,-0.25 l -0.02,-0.07 -0.96,-3.65 h 0.57 l 0.36,1.36 0.32,0.24 c 0.12,-0.33 0.32,-0.79 0.46,-1.07 0.24,-0.47 0.38,-0.62 0.59,-0.62 0.31,0 0.5,0.19 0.85,0.83 z"
   style="fill:#000000;stroke-width:0" />
<path
   id="path5056"
   d="m 338.09,479.47 0.06,-0.04 0.06,-0.05 0.06,-0.04 0.06,-0.04 0.05,-0.05 0.06,-0.04 0.05,-0.05 0.05,-0.04 0.05,-0.05 0.05,-0.04 0.04,-0.05 0.05,-0.04 0.04,-0.05 0.04,-0.04 0.04,-0.05 0.04,-0.05 c 0.2,-0.25 0.36,-0.51 0.48,-0.77 0.12,-0.27 0.22,-0.63 0.31,-1.08 0.1,-0.57 0.16,-1.21 0.16,-1.89 0,-0.64 -0.07,-1.26 -0.19,-1.85 -0.13,-0.58 -0.32,-1.06 -0.58,-1.45 -0.26,-0.38 -0.59,-0.68 -0.98,-0.91 v -0.18 c 0.8,0.36 1.45,0.95 1.95,1.79 0.49,0.82 0.74,1.74 0.74,2.75 0,0.68 -0.13,1.35 -0.38,1.99 -0.25,0.64 -0.61,1.18 -1.08,1.66 -0.33,0.33 -0.74,0.62 -1.23,0.86 z"
   style="fill:#000000;stroke-width:0" />
<polygon
   id="polygon5058"
   points="344.9,475.81 351.56,475.81 351.56,476.37 344.9,476.37 "
   style="fill:#000000;stroke-width:0" />
<polygon
   id="polygon5060"
   points="344.9,473.8 351.56,473.8 351.56,474.36 344.9,474.36 "
   style="fill:#000000;stroke-width:0" />
<path
   id="path5062"
   d="m 359.12,477.03 v -0.06 c 0,-1.16 1.48,-3.01 1.64,-4.39 h 0.15 c 1.6,2.45 1.48,6.11 2.19,6.11 0.18,0 0.3,-0.14 0.53,-0.14 0.21,0 0.45,0.14 0.45,0.4 0,0.33 -0.32,0.44 -0.59,0.44 -1.54,0 -1.21,-3.22 -2.38,-5.09 0,0.03 0.01,0.07 0.01,0.1 0,0.9 -1.52,2.8 -1.52,4.58 0,0.14 0.02,0.28 0.04,0.41 -1.38,-0.75 -1.05,-6.56 -2.98,-6.56 -0.31,0 -0.72,0.23 -0.72,0.56 0,0.25 0.15,0.36 0.26,0.36 0.1,0 0.21,-0.04 0.31,-0.04 0.2,0 0.48,0.16 0.48,0.48 0,0.22 -0.22,0.46 -0.51,0.46 -0.43,0 -0.92,-0.42 -0.92,-1.07 0,-0.43 0.38,-1 1.1,-1 2.04,0 2.21,3.86 2.45,4.46 z"
   style="fill:#000000;stroke-width:0" />
<path
   id="path5064"
   d="m 369.01,465.22 0,-0.07 0,-0.08 0.01,-0.07 0,-0.07 0.01,-0.07 0,-0.07 0.01,-0.06 0.01,-0.06 0.02,-0.13 0.03,-0.11 0.03,-0.11 0.03,-0.1 0.04,-0.09 0.04,-0.09 0.05,-0.08 0.05,-0.07 0.06,-0.07 0.06,-0.07 0.06,-0.06 0.07,-0.05 0.07,-0.05 0.08,-0.05 0.08,-0.04 0.08,-0.03 0.09,-0.04 0.09,-0.02 0.09,-0.03 0.1,-0.02 0.1,-0.02 0.11,-0.01 0.11,-0.01 0.11,-0.01 0.12,-0.01 0.11,-0.01 0.13,0 0.12,0 v 0.15 c -0.93,0.22 -1.19,0.75 -1.19,1.7 v 8.32 c 0,0.99 -0.17,1.53 -1.2,1.76 v 0.03 c 1.03,0.24 1.2,0.78 1.2,1.76 v 8.34 c 0,0.95 0.26,1.48 1.19,1.7 v 0.15 c -1.35,0 -2.17,-0.28 -2.17,-1.92 v -8.47 c 0,-0.89 -0.21,-1.32 -1.12,-1.56 0.91,-0.26 1.12,-0.69 1.12,-1.58 z"
   style="fill:#000000;stroke-width:0" />
<path
   id="path5066"
   d="m 377.72,477.36 h -1.17 l -0.59,-2.7 c -0.25,-1.21 -0.58,-1.28 -0.73,-1.28 -0.17,0 -0.25,0.16 -0.25,0.45 0,0.17 0.03,0.4 0.08,0.67 l 0.31,1.65 c 0.02,0.13 0.04,0.24 0.04,0.35 0,0.63 -0.42,0.86 -0.94,0.86 -0.61,0 -1.11,-0.5 -1.11,-0.95 0,-0.1 0.04,-0.18 0.07,-0.23 h 0.18 c 0.03,0.17 0.16,0.5 0.39,0.5 0.16,0 0.26,-0.11 0.26,-0.27 0,-0.08 -0.06,-0.37 -0.08,-0.45 l -0.23,-1.04 c -0.05,-0.22 -0.15,-0.84 -0.15,-1.06 0,-0.76 0.45,-1.24 1.16,-1.24 0.81,0 1.12,0.54 1.34,0.9 0.18,-0.6 0.51,-0.9 0.9,-0.9 1.61,0 2.25,2.4 2.25,3.73 0,0.4 -0.12,1.01 -0.64,1.01 -0.19,0 -0.51,-0.11 -0.51,-0.4 0,-0.42 0.46,-0.38 0.46,-1.24 0,-1.33 -0.86,-2.34 -1.19,-2.34 -0.27,0 -0.4,0.26 -0.4,0.77 0,0.33 0.05,0.76 0.16,1.28 z"
   style="fill:#000000;stroke-width:0" />
<path
   id="path5068"
   d="m 383.37,472.08 -0.11,-0.2 c -0.14,-0.23 -0.23,-0.31 -0.34,-0.31 -0.16,0 -0.32,0.25 -0.62,0.97 -0.04,0.1 -0.15,0.37 -0.28,0.67 1.12,0.99 1.35,1.14 1.71,1.17 v 0.12 h -1.39 v -0.12 h 0.12 c 0.19,0 0.3,-0.06 0.3,-0.14 0,-0.15 -0.38,-0.52 -1.09,-1.06 -0.1,-0.08 -0.19,-0.16 -0.32,-0.25 l 0.91,3.46 -0.04,0.04 c -0.45,-0.1 -0.74,-0.16 -1.18,-0.21 v -0.12 c 0.36,0.01 0.51,-0.05 0.51,-0.19 -0.01,-0.13 -0.07,-0.33 -0.16,-0.68 -0.03,-0.11 -0.06,-0.19 -0.07,-0.25 l -0.02,-0.07 -0.96,-3.65 h 0.57 l 0.36,1.36 0.32,0.24 c 0.12,-0.33 0.32,-0.79 0.46,-1.07 0.24,-0.47 0.37,-0.62 0.59,-0.62 0.31,0 0.5,0.19 0.84,0.83 z"
   style="fill:#000000;stroke-width:0" />
<path
   id="path5070"
   d="m 386.55,472.7 0,0.01 0,0.01 0,0.01 0,0.01 0,0.02 0,0.03 0.01,0.02 0,0.02 0,0.01 0,0.01 0,0.01 0,0.02 c 0,0.71 -0.41,0.85 -0.63,0.85 -0.16,0 -0.57,-0.02 -0.57,-0.57 0,-0.36 0.32,-0.49 0.49,-0.49 0.08,0 0.11,0.04 0.19,0.04 0.06,0 0.16,-0.07 0.16,-0.23 0,-0.13 -0.04,-0.51 -0.67,-0.96 l 0.09,-0.2 c 0.47,0.32 0.88,0.76 0.93,1.38 z"
   style="fill:#000000;stroke-width:0" />
<path
   id="path5072"
   d="m 386.47,476.73 0,0.03 0,0.03 -0.01,0.03 0,0.02 -0.01,0.03 -0.01,0.03 0,0.02 -0.02,0.03 -0.01,0.02 -0.01,0.03 -0.01,0.02 -0.02,0.03 -0.01,0.02 -0.02,0.02 -0.02,0.02 -0.02,0.02 -0.02,0.02 -0.02,0.02 -0.02,0.01 -0.02,0.02 -0.02,0.01 -0.03,0.02 -0.02,0.01 -0.02,0.01 -0.03,0.01 -0.03,0.01 -0.02,0.01 -0.03,0.01 -0.03,0 -0.02,0.01 -0.03,0 -0.03,0 c -0.3,0 -0.55,-0.25 -0.55,-0.57 0,-0.38 0.34,-0.54 0.55,-0.54 0.21,0 0.56,0.17 0.56,0.54 z"
   style="fill:#000000;stroke-width:0" />
<path
   id="path5074"
   d="m 396.17,487.2 -0.31,-0.27 -0.3,-0.28 -0.29,-0.29 -0.28,-0.29 -0.27,-0.31 -0.26,-0.31 -0.24,-0.32 -0.24,-0.33 -0.23,-0.33 -0.21,-0.35 -0.21,-0.34 -0.2,-0.36 -0.18,-0.36 -0.18,-0.36 -0.17,-0.37 -0.15,-0.38 -0.15,-0.37 -0.14,-0.39 -0.12,-0.38 -0.12,-0.39 -0.11,-0.4 -0.1,-0.39 -0.09,-0.4 -0.07,-0.4 -0.07,-0.4 -0.06,-0.41 -0.1,-0.8 -0.05,-0.82 -0.02,-0.81 c 0,-4.25 1.38,-9.55 4.86,-12.3 l 0.24,0.45 c -3.15,2.9 -3.38,8.05 -3.38,12.05 0,4.21 0.44,7.7 3.38,10.96 z"
   style="fill:#000000;stroke-width:0" />
<path
   id="path5076"
   d="m 399.03,485.57 -0.05,-0.01 -0.06,0 -0.04,0 -0.05,0 -0.05,-0.01 -0.05,0 -0.05,-0.01 -0.04,-0.01 -0.05,-0.01 -0.04,-0.01 -0.05,-0.01 -0.04,-0.01 -0.04,-0.01 -0.05,-0.01 -0.04,-0.02 -0.04,-0.01 -0.04,-0.02 -0.04,-0.02 -0.04,-0.02 -0.04,-0.02 -0.04,-0.02 -0.04,-0.02 -0.03,-0.02 -0.04,-0.03 -0.04,-0.02 -0.04,-0.03 -0.03,-0.02 -0.04,-0.03 -0.03,-0.03 -0.04,-0.03 -0.03,-0.03 -0.04,-0.03 c -0.58,-0.56 -0.96,-1.71 -0.96,-2.87 0,-1.09 0.33,-2.25 0.8,-2.81 0.37,-0.44 0.88,-0.68 1.46,-0.68 v 0.26 c -0.86,0 -1.3,1.07 -1.3,3.14 0,2.11 0.45,3.22 1.31,3.22 h 0 c 0.83,0 1.28,-1.13 1.28,-3.21 0,-2.08 -0.44,-3.15 -1.29,-3.15 v -0.26 c 0.5,0 0.93,0.17 1.29,0.52 0.58,0.55 0.96,1.7 0.96,2.91 0,2.04 -0.91,3.45 -2.21,3.45 z"
   style="fill:#000000;stroke-width:0" />
<path
   id="path5078"
   d="m 399.03,473.61 -0.05,0 -0.06,0 -0.04,0 -0.05,-0.01 -0.05,0 -0.05,-0.01 -0.05,0 -0.04,-0.01 -0.05,-0.01 -0.04,-0.01 -0.05,-0.01 -0.04,-0.01 -0.04,-0.01 -0.05,-0.02 -0.04,-0.01 -0.04,-0.02 -0.04,-0.02 -0.04,-0.01 -0.04,-0.02 -0.04,-0.02 -0.04,-0.02 -0.04,-0.02 -0.03,-0.03 -0.04,-0.02 -0.04,-0.03 -0.04,-0.02 -0.03,-0.03 -0.04,-0.03 -0.03,-0.02 -0.04,-0.03 -0.03,-0.04 -0.04,-0.03 c -0.58,-0.56 -0.96,-1.7 -0.96,-2.87 0,-1.08 0.33,-2.25 0.8,-2.81 0.37,-0.43 0.88,-0.67 1.46,-0.67 v 0.25 c -0.86,0 -1.3,1.07 -1.3,3.14 0,2.11 0.45,3.22 1.31,3.22 h 0 c 0.83,0 1.28,-1.12 1.28,-3.21 0,-2.08 -0.44,-3.15 -1.29,-3.15 v -0.25 c 0.5,0 0.93,0.16 1.29,0.51 0.58,0.55 0.96,1.71 0.96,2.91 0,2.04 -0.91,3.45 -2.21,3.45 z"
   style="fill:#000000;stroke-width:0" />
<path
   id="path5080"
   d="m 401.79,487.2 0.32,-0.27 0.3,-0.28 0.29,-0.29 0.28,-0.29 0.26,-0.31 0.26,-0.31 0.25,-0.32 0.24,-0.33 0.22,-0.33 0.22,-0.35 0.21,-0.34 0.2,-0.36 0.18,-0.36 0.18,-0.36 0.16,-0.37 0.16,-0.38 0.15,-0.37 0.13,-0.39 0.13,-0.38 0.12,-0.39 0.11,-0.4 0.09,-0.39 0.09,-0.4 0.08,-0.4 0.07,-0.4 0.06,-0.41 0.09,-0.8 0.06,-0.82 0.01,-0.81 c 0,-4.25 -1.37,-9.55 -4.86,-12.3 l -0.24,0.45 c 3.16,2.9 3.39,8.05 3.39,12.05 0,4.21 -0.45,7.7 -3.39,10.96 z"
   style="fill:#000000;stroke-width:0" />
<path
   id="path5082"
   d="m 410.59,471.09 0.13,0.05 0.07,0.03 0.07,0.03 0.07,0.03 0.06,0.03 0.07,0.03 0.06,0.04 0.07,0.03 0.06,0.04 0.06,0.04 0.06,0.05 0.06,0.04 0.05,0.04 0.05,0.05 0.06,0.05 0.05,0.05 0.04,0.05 0.05,0.06 0.04,0.05 0.04,0.06 0.04,0.06 0.03,0.06 0.03,0.07 0.03,0.06 0.02,0.07 0.02,0.07 0.02,0.07 0.01,0.07 0.01,0.08 0.01,0.08 0,0.07 c 0,0.48 -0.28,1.03 -0.82,1.03 -0.32,0 -0.62,-0.24 -0.62,-0.58 0,-0.32 0.19,-0.53 0.52,-0.53 0.18,0 0.3,0.14 0.41,0.14 0.08,0 0.11,-0.14 0.11,-0.2 0,-0.62 -0.49,-1.07 -1.04,-1.25 z"
   style="fill:#000000;stroke-width:0" />
<path
   id="path5084"
   d="m 421.22,487.2 -0.31,-0.27 -0.3,-0.28 -0.29,-0.29 -0.28,-0.29 -0.27,-0.31 -0.26,-0.31 -0.24,-0.32 -0.24,-0.33 -0.23,-0.33 -0.21,-0.35 -0.21,-0.34 -0.2,-0.36 -0.18,-0.36 -0.18,-0.36 -0.17,-0.37 -0.15,-0.38 -0.15,-0.37 -0.14,-0.39 -0.12,-0.38 -0.12,-0.39 -0.11,-0.4 -0.1,-0.39 -0.09,-0.4 -0.07,-0.4 -0.07,-0.4 -0.06,-0.41 -0.1,-0.8 -0.05,-0.82 -0.02,-0.81 c 0,-4.25 1.38,-9.55 4.86,-12.3 l 0.24,0.45 c -3.16,2.9 -3.38,8.05 -3.38,12.05 0,4.21 0.44,7.7 3.38,10.96 z"
   style="fill:#000000;stroke-width:0" />
<path
   id="path5086"
   d="m 424.08,485.57 -0.06,-0.01 -0.05,0 -0.04,0 -0.05,0 -0.05,-0.01 -0.05,0 -0.05,-0.01 -0.04,-0.01 -0.05,-0.01 -0.04,-0.01 -0.05,-0.01 -0.04,-0.01 -0.04,-0.01 -0.05,-0.01 -0.04,-0.02 -0.04,-0.01 -0.04,-0.02 -0.04,-0.02 -0.04,-0.02 -0.04,-0.02 -0.04,-0.02 -0.04,-0.02 -0.03,-0.02 -0.04,-0.03 -0.04,-0.02 -0.04,-0.03 -0.03,-0.02 -0.04,-0.03 -0.03,-0.03 -0.04,-0.03 -0.03,-0.03 -0.04,-0.03 c -0.58,-0.56 -0.96,-1.71 -0.96,-2.87 0,-1.09 0.33,-2.25 0.8,-2.81 0.37,-0.44 0.88,-0.68 1.46,-0.68 v 0.26 c -0.86,0 -1.3,1.07 -1.3,3.14 0,2.11 0.45,3.22 1.31,3.22 h 0 c 0.83,0 1.28,-1.13 1.28,-3.21 0,-2.08 -0.44,-3.15 -1.29,-3.15 v -0.26 c 0.5,0 0.93,0.17 1.29,0.52 0.58,0.55 0.96,1.7 0.96,2.91 0,2.04 -0.91,3.45 -2.21,3.45 z"
   style="fill:#000000;stroke-width:0" />
<path
   id="path5088"
   d="m 427.88,479.78 -0.03,0 -0.03,-0.01 -0.02,0 -0.03,0 -0.03,-0.01 -0.02,-0.01 -0.03,-0.01 -0.02,-0.01 -0.02,-0.01 -0.03,-0.01 -0.02,-0.01 -0.02,-0.02 -0.02,-0.01 -0.02,-0.02 -0.02,-0.01 -0.02,-0.02 -0.02,-0.02 -0.02,-0.02 -0.01,-0.02 -0.02,-0.02 -0.01,-0.02 -0.01,-0.02 -0.02,-0.03 -0.01,-0.02 -0.01,-0.03 0,-0.02 -0.01,-0.03 -0.01,-0.02 0,-0.03 -0.01,-0.03 0,-0.02 0,-0.03 c 0,-0.3 0.24,-0.55 0.54,-0.55 0.3,0 0.54,0.25 0.54,0.55 0,0.3 -0.24,0.54 -0.54,0.54 z"
   style="fill:#000000;stroke-width:0" />
<path
   id="path5090"
   d="m 431.07,484.64 h 1.95 c 0.16,0 0.2,0.02 0.23,0.09 l 0.38,0.88 -0.09,0.07 c -0.15,-0.2 -0.25,-0.26 -0.46,-0.26 H 431 l -1.09,-2.36 c -0.01,-0.02 -0.01,-0.03 -0.01,-0.05 0,-0.05 0.04,-0.08 0.12,-0.08 0.32,0 0.72,-0.07 1.12,-0.2 1.15,-0.36 1.68,-0.98 1.68,-1.97 0,-0.95 -0.61,-1.7 -1.39,-1.7 -0.2,0 -0.36,0.07 -0.66,0.29 -0.32,0.23 -0.55,0.33 -0.76,0.33 -0.29,0 -0.43,-0.12 -0.43,-0.37 0,-0.38 0.47,-0.62 1.22,-0.62 0.83,0 1.55,0.27 2.05,0.78 0.46,0.45 0.67,1.01 0.67,1.77 0,0.72 -0.19,1.18 -0.69,1.68 -0.44,0.43 -1.01,0.66 -2.18,0.87 z"
   style="fill:#000000;stroke-width:0" />
<path
   id="path5092"
   d="m 450.6,485.57 -0.05,-0.01 -0.05,0 -0.05,0 -0.05,0 -0.04,-0.01 -0.05,0 -0.05,-0.01 -0.04,-0.01 -0.05,-0.01 -0.05,-0.01 -0.04,-0.01 -0.04,-0.01 -0.05,-0.01 -0.04,-0.01 -0.04,-0.02 -0.04,-0.01 -0.04,-0.02 -0.04,-0.02 -0.04,-0.02 -0.04,-0.02 -0.04,-0.02 -0.04,-0.02 -0.04,-0.02 -0.03,-0.03 -0.04,-0.02 -0.04,-0.03 -0.04,-0.02 -0.03,-0.03 -0.04,-0.03 -0.03,-0.03 -0.04,-0.03 -0.03,-0.03 c -0.58,-0.56 -0.96,-1.71 -0.96,-2.87 0,-1.09 0.33,-2.25 0.8,-2.81 0.37,-0.44 0.87,-0.68 1.45,-0.68 v 0.26 c -0.85,0 -1.29,1.07 -1.29,3.14 0,2.11 0.45,3.22 1.3,3.22 h 0 c 0.84,0 1.29,-1.13 1.29,-3.21 0,-2.08 -0.44,-3.15 -1.3,-3.15 v -0.26 c 0.51,0 0.94,0.17 1.3,0.52 0.58,0.55 0.96,1.7 0.96,2.91 0,2.04 -0.91,3.45 -2.22,3.45 z"
   style="fill:#000000;stroke-width:0" />
<path
   id="path5094"
   d="m 427.93,473.61 -0.05,0 -0.05,0 -0.05,0 -0.05,-0.01 -0.05,0 -0.04,-0.01 -0.05,0 -0.05,-0.01 -0.04,-0.01 -0.05,-0.01 -0.04,-0.01 -0.05,-0.01 -0.04,-0.01 -0.04,-0.02 -0.04,-0.01 -0.04,-0.02 -0.04,-0.02 -0.05,-0.01 -0.04,-0.02 -0.03,-0.02 -0.04,-0.02 -0.04,-0.02 -0.04,-0.03 -0.04,-0.02 -0.03,-0.03 -0.04,-0.02 -0.04,-0.03 -0.03,-0.03 -0.04,-0.02 -0.03,-0.03 -0.04,-0.04 -0.03,-0.03 c -0.58,-0.56 -0.96,-1.7 -0.96,-2.87 0,-1.08 0.33,-2.25 0.8,-2.81 0.36,-0.43 0.87,-0.67 1.45,-0.67 v 0.25 c -0.86,0 -1.29,1.07 -1.29,3.14 0,2.11 0.44,3.22 1.3,3.22 h 0 c 0.84,0 1.29,-1.12 1.29,-3.21 0,-2.08 -0.44,-3.15 -1.3,-3.15 v -0.25 c 0.51,0 0.94,0.16 1.3,0.51 0.57,0.55 0.95,1.71 0.95,2.91 0,2.04 -0.9,3.45 -2.21,3.45 z"
   style="fill:#000000;stroke-width:0" />
<path
   id="path5096"
   d="m 446.73,473.61 -0.05,0 -0.05,0 -0.05,0 -0.05,-0.01 -0.04,0 -0.05,-0.01 -0.05,0 -0.04,-0.01 -0.05,-0.01 -0.05,-0.01 -0.04,-0.01 -0.04,-0.01 -0.05,-0.01 -0.04,-0.02 -0.04,-0.01 -0.04,-0.02 -0.04,-0.02 -0.04,-0.01 -0.04,-0.02 -0.04,-0.02 -0.04,-0.02 -0.04,-0.02 -0.04,-0.03 -0.03,-0.02 -0.04,-0.03 -0.04,-0.02 -0.04,-0.03 -0.03,-0.03 -0.04,-0.02 -0.03,-0.03 -0.04,-0.04 -0.03,-0.03 c -0.58,-0.56 -0.96,-1.7 -0.96,-2.87 0,-1.08 0.33,-2.25 0.8,-2.81 0.37,-0.43 0.87,-0.67 1.45,-0.67 v 0.25 c -0.85,0 -1.29,1.07 -1.29,3.14 0,2.11 0.45,3.22 1.3,3.22 h 0 c 0.84,0 1.29,-1.12 1.29,-3.21 0,-2.08 -0.44,-3.15 -1.3,-3.15 v -0.25 c 0.51,0 0.94,0.16 1.3,0.51 0.58,0.55 0.96,1.71 0.96,2.91 0,2.04 -0.91,3.45 -2.22,3.45 z"
   style="fill:#000000;stroke-width:0" />
<path
   id="path5098"
   d="m 450.55,467.82 -0.03,0 -0.03,0 -0.03,-0.01 -0.02,0 -0.03,-0.01 -0.03,0 -0.02,-0.01 -0.03,-0.01 -0.02,-0.01 -0.02,-0.01 -0.02,-0.02 -0.03,-0.01 -0.02,-0.02 -0.02,-0.01 -0.02,-0.02 -0.02,-0.02 -0.01,-0.01 -0.02,-0.02 -0.02,-0.02 -0.01,-0.03 -0.02,-0.02 -0.01,-0.02 -0.01,-0.02 -0.01,-0.03 -0.01,-0.02 -0.01,-0.03 -0.01,-0.02 0,-0.03 -0.01,-0.02 0,-0.03 0,-0.03 0,-0.03 c 0,-0.3 0.24,-0.54 0.54,-0.54 0.29,0 0.53,0.24 0.53,0.54 0,0.3 -0.24,0.54 -0.53,0.54 z"
   style="fill:#000000;stroke-width:0" />
<path
   id="path5100"
   d="m 453.73,472.68 h 1.95 c 0.16,0 0.2,0.02 0.23,0.09 l 0.38,0.89 -0.09,0.07 c -0.15,-0.21 -0.25,-0.26 -0.46,-0.26 h -2.08 l -1.08,-2.36 c -0.01,-0.02 -0.01,-0.03 -0.01,-0.05 0,-0.05 0.04,-0.08 0.11,-0.08 0.32,0 0.72,-0.07 1.13,-0.2 1.15,-0.37 1.67,-0.99 1.67,-1.97 0,-0.96 -0.6,-1.71 -1.38,-1.71 -0.2,0 -0.37,0.07 -0.67,0.29 -0.32,0.23 -0.55,0.33 -0.76,0.33 -0.28,0 -0.42,-0.12 -0.42,-0.37 0,-0.37 0.46,-0.61 1.21,-0.61 0.84,0 1.56,0.27 2.05,0.77 0.46,0.45 0.67,1.02 0.67,1.78 0,0.71 -0.19,1.17 -0.69,1.67 -0.43,0.44 -1,0.67 -2.18,0.88 z"
   style="fill:#000000;stroke-width:0" />
<path
   id="path5102"
   d="m 457.23,487.2 0.31,-0.27 0.3,-0.28 0.29,-0.29 0.28,-0.29 0.27,-0.31 0.25,-0.31 0.25,-0.32 0.24,-0.33 0.23,-0.33 0.21,-0.35 0.21,-0.34 0.2,-0.36 0.18,-0.36 0.18,-0.36 0.17,-0.37 0.15,-0.38 0.15,-0.37 0.14,-0.39 0.12,-0.38 0.12,-0.39 0.11,-0.4 0.1,-0.39 0.09,-0.4 0.07,-0.4 0.07,-0.4 0.06,-0.41 0.1,-0.8 0.05,-0.82 0.02,-0.81 c 0,-4.25 -1.38,-9.55 -4.86,-12.3 l -0.24,0.45 c 3.15,2.9 3.38,8.05 3.38,12.05 0,4.21 -0.44,7.7 -3.38,10.96 z"
   style="fill:#000000;stroke-width:0" />
<path
   id="path5104"
   d="m 467.19,465.22 0,-0.07 0,-0.08 0,-0.07 -0.01,-0.07 0,-0.07 -0.01,-0.07 -0.01,-0.06 -0.01,-0.06 -0.02,-0.13 -0.02,-0.11 -0.03,-0.11 -0.04,-0.1 -0.04,-0.09 -0.04,-0.09 -0.05,-0.08 -0.05,-0.07 -0.05,-0.07 -0.06,-0.07 -0.07,-0.06 -0.07,-0.05 -0.07,-0.05 -0.07,-0.05 -0.08,-0.04 -0.09,-0.03 -0.08,-0.04 -0.1,-0.02 -0.09,-0.03 -0.1,-0.02 -0.1,-0.02 -0.11,-0.01 -0.11,-0.01 -0.11,-0.01 -0.11,-0.01 -0.12,-0.01 -0.12,0 -0.13,0 v 0.15 c 0.94,0.22 1.19,0.75 1.19,1.7 v 8.32 c 0,0.99 0.18,1.53 1.2,1.76 v 0.03 c -1.02,0.24 -1.2,0.78 -1.2,1.76 v 8.34 c 0,0.95 -0.25,1.48 -1.19,1.7 v 0.15 c 1.36,0 2.17,-0.28 2.17,-1.92 v -8.47 c 0,-0.89 0.21,-1.32 1.12,-1.56 -0.91,-0.26 -1.12,-0.69 -1.12,-1.58 z"
   style="fill:#000000;stroke-width:0" />
<path
   id="path5106"
   d="m 472.18,471.09 0.13,0.05 0.07,0.03 0.07,0.03 0.07,0.03 0.06,0.03 0.07,0.03 0.06,0.04 0.07,0.03 0.06,0.04 0.06,0.04 0.06,0.05 0.06,0.04 0.05,0.04 0.05,0.05 0.06,0.05 0.05,0.05 0.04,0.05 0.05,0.06 0.04,0.05 0.04,0.06 0.04,0.06 0.03,0.06 0.03,0.07 0.03,0.06 0.02,0.07 0.02,0.07 0.02,0.07 0.01,0.07 0.01,0.08 0.01,0.08 0,0.07 c 0,0.48 -0.28,1.03 -0.82,1.03 -0.32,0 -0.62,-0.24 -0.62,-0.58 0,-0.32 0.19,-0.53 0.52,-0.53 0.18,0 0.3,0.14 0.41,0.14 0.08,0 0.11,-0.14 0.11,-0.2 0,-0.62 -0.49,-1.07 -1.04,-1.25 z"
   style="fill:#000000;stroke-width:0" />
<path
   id="path5108"
   d="m 320.24,454.96 h 0.24 c 0,0 0.01,0 0.02,0.01 0.13,0.06 0.39,-0.13 0.39,-0.28 0,-0.09 -0.36,-1.5 -0.7,-2.82 -0.27,-0.99 -0.51,-1.94 -0.58,-2.23 -0.11,-0.46 -0.24,-0.57 -0.67,-0.59 v -0.16 h 2.04 v 0.16 c -0.47,0 -0.63,0.08 -0.63,0.29 0,0.14 0.16,0.92 0.36,1.66 0.25,-0.13 0.43,-0.17 0.66,-0.17 l -0.04,0.19 c -0.28,0 -0.48,0.15 -0.48,0.37 0,0.34 0.36,1.64 0.65,2.38 0.27,0.67 0.85,1.16 1.35,1.13 h 0 c 0.42,-0.02 0.61,-0.28 0.61,-0.85 0,-0.66 -0.29,-1.52 -0.71,-2.14 -0.42,-0.58 -0.9,-0.89 -1.42,-0.89 l 0.04,-0.19 c 1.46,0 2.99,1.67 2.99,3.26 0,0.77 -0.44,1.24 -1.15,1.24 -0.64,0 -1.12,-0.32 -1.7,-1.13 l 0.29,1 0.03,0.09 c 0,0 -0.01,0.01 -0.02,0.03 l -0.02,0.01 c 0,0.01 -0.01,0.01 -0.01,0.01 l -0.02,-0.01 -1.53,-0.22 z"
   style="fill:#000000;stroke-width:0" />
<path
   id="path5110"
   d="m 328.55,449.18 -0.14,0.11 -0.14,0.1 -0.12,0.11 -0.12,0.11 -0.11,0.12 -0.11,0.12 -0.09,0.12 -0.1,0.12 -0.08,0.13 -0.08,0.13 -0.08,0.13 -0.06,0.13 -0.07,0.14 -0.06,0.13 -0.05,0.14 -0.05,0.15 -0.04,0.14 -0.04,0.15 -0.04,0.15 -0.03,0.15 -0.02,0.15 -0.03,0.15 -0.02,0.15 -0.02,0.16 -0.02,0.32 -0.02,0.32 -0.01,0.32 0,0.33 c 0,1.51 0.28,3.39 1.75,4.19 v 0.21 c -1.74,-0.78 -2.69,-2.69 -2.69,-4.53 0,-1.92 0.96,-3.66 2.69,-4.52 z"
   style="fill:#000000;stroke-width:0" />
<polygon
   id="polygon5112"
   points="336.88,454.92 336.88,454.92 336.88,454.91 336.87,454.9 336.87,454.9 336.87,454.89 336.87,454.89 336.87,454.88 336.88,454.99 336.88,454.99 336.88,454.98 336.88,454.98 336.88,454.97 336.88,454.96 336.88,454.96 336.88,454.95 336.88,454.94 336.88,454.94 336.88,454.93 "
   style="fill:#000000;stroke-width:0" />
<path
   id="path5114"
   d="m 329.1,454.18 0.01,0.02 0.02,0.02 0.01,0.02 0.02,0.02 0.01,0.02 0.02,0.02 0.02,0.02 0.01,0.03 0.02,0.02 0.02,0.03 0.02,0.02 0.02,0.03 0.05,0.05 0.04,0.05 0.02,0.02 0.03,0.03 0.02,0.02 0.02,0.02 0.02,0.02 0.03,0.02 0.02,0.02 0.02,0.02 0.03,0.02 0.02,0.01 0.02,0.01 0.03,0.01 0.02,0.01 0.02,0.01 0.02,0 0.01,0 0.01,0 c 0.1,0 0.15,-0.05 0.15,-0.15 0,-0.13 -0.04,-0.26 -0.08,-0.38 -0.14,-0.51 -0.58,-1.79 -0.58,-2.41 0,-0.71 0.66,-1.03 1.3,-1.03 1.4,0 2.38,1.52 2.38,2.82 0,0.95 -0.47,1.54 -1.43,1.7 l -0.03,-0.19 c 0.7,-0.12 0.89,-0.7 0.89,-1.32 0,-0.7 -0.19,-1.37 -0.58,-1.95 -0.27,-0.4 -0.66,-0.85 -1.2,-0.85 -0.42,0 -0.62,0.34 -0.62,0.72 0,0.24 0.07,0.51 0.14,0.74 l 0.52,1.74 c 0.06,0.2 0.13,0.45 0.13,0.67 0,0.29 -0.14,0.44 -0.43,0.44 -0.59,0 -1.07,-0.62 -1.36,-1.05 z"
   style="fill:#000000;stroke-width:0" />
<path
   id="path5116"
   d="m 336.68,450.26 -0.11,-0.19 c -0.14,-0.24 -0.23,-0.32 -0.34,-0.32 -0.16,0 -0.32,0.25 -0.62,0.98 -0.03,0.09 -0.15,0.37 -0.28,0.66 1.12,0.99 1.35,1.14 1.71,1.17 v 0.12 h -1.39 v -0.12 h 0.12 c 0.19,0 0.3,-0.06 0.3,-0.14 0,-0.15 -0.38,-0.52 -1.08,-1.06 -0.11,-0.08 -0.2,-0.16 -0.33,-0.25 l 0.91,3.46 -0.04,0.04 c -0.45,-0.1 -0.73,-0.15 -1.18,-0.21 v -0.12 c 0.36,0.01 0.51,-0.04 0.51,-0.19 -0.01,-0.13 -0.06,-0.33 -0.16,-0.68 -0.03,-0.1 -0.06,-0.19 -0.07,-0.25 l -0.02,-0.06 -0.96,-3.66 h 0.57 l 0.36,1.36 0.32,0.24 c 0.12,-0.33 0.32,-0.79 0.46,-1.06 0.24,-0.48 0.38,-0.63 0.59,-0.63 0.31,0 0.5,0.19 0.85,0.83 z"
   style="fill:#000000;stroke-width:0" />
<path
   id="path5118"
   d="m 338.09,457.65 0.06,-0.04 0.06,-0.04 0.06,-0.05 0.06,-0.04 0.05,-0.05 0.06,-0.04 0.05,-0.04 0.05,-0.05 0.05,-0.04 0.05,-0.05 0.04,-0.04 0.05,-0.05 0.04,-0.05 0.04,-0.04 0.04,-0.05 0.04,-0.05 c 0.2,-0.24 0.36,-0.5 0.48,-0.77 0.12,-0.27 0.22,-0.63 0.31,-1.08 0.1,-0.57 0.16,-1.2 0.16,-1.89 0,-0.64 -0.07,-1.26 -0.19,-1.84 -0.13,-0.59 -0.32,-1.07 -0.58,-1.46 -0.26,-0.38 -0.59,-0.68 -0.98,-0.91 v -0.17 c 0.8,0.35 1.45,0.94 1.95,1.78 0.49,0.83 0.74,1.74 0.74,2.75 0,0.69 -0.13,1.35 -0.38,1.99 -0.25,0.64 -0.61,1.19 -1.08,1.66 -0.33,0.33 -0.74,0.62 -1.23,0.86 z"
   style="fill:#000000;stroke-width:0" />
<polygon
   id="polygon5120"
   points="344.9,454 351.56,454 351.56,454.55 344.9,454.55 "
   style="fill:#000000;stroke-width:0" />
<polygon
   id="polygon5122"
   points="344.9,451.98 351.56,451.98 351.56,452.54 344.9,452.54 "
   style="fill:#000000;stroke-width:0" />
<path
   id="path5124"
   d="m 359.12,455.21 v -0.06 c 0,-1.15 1.48,-3.01 1.64,-4.39 h 0.15 c 1.6,2.45 1.48,6.12 2.19,6.12 0.18,0 0.3,-0.14 0.53,-0.14 0.21,0 0.45,0.14 0.45,0.39 0,0.33 -0.32,0.44 -0.59,0.44 -1.54,0 -1.21,-3.21 -2.38,-5.09 0,0.03 0.01,0.07 0.01,0.1 0,0.9 -1.52,2.8 -1.52,4.58 0,0.14 0.02,0.28 0.04,0.41 -1.38,-0.74 -1.05,-6.55 -2.98,-6.55 -0.31,0 -0.72,0.23 -0.72,0.56 0,0.24 0.15,0.35 0.26,0.35 0.1,0 0.21,-0.04 0.31,-0.04 0.2,0 0.48,0.16 0.48,0.48 0,0.22 -0.22,0.46 -0.51,0.46 -0.43,0 -0.92,-0.42 -0.92,-1.07 0,-0.42 0.38,-1 1.1,-1 2.04,0 2.21,3.86 2.45,4.46 z"
   style="fill:#000000;stroke-width:0" />
<path
   id="path5126"
   d="m 368.69,456.49 0,0.06 0,0.07 0.01,0.06 0,0.05 0.01,0.06 0.01,0.05 0,0.06 0.01,0.05 0.02,0.05 0.01,0.05 0.02,0.04 0.01,0.05 0.02,0.04 0.02,0.04 0.02,0.04 0.03,0.04 0.03,0.04 0.03,0.03 0.03,0.04 0.03,0.03 0.04,0.03 0.03,0.03 0.05,0.03 0.04,0.02 0.04,0.03 0.05,0.02 0.05,0.02 0.06,0.02 0.05,0.02 0.06,0.02 0.06,0.02 0.07,0.01 v 0.12 c -1.03,0 -1.65,-0.21 -1.65,-1.39 v -1.77 c 0,-0.64 -0.15,-0.95 -0.84,-1.13 0.69,-0.19 0.84,-0.5 0.84,-1.14 v -1.76 c 0,-1.19 0.62,-1.39 1.65,-1.39 v 0.11 c -0.71,0.16 -0.91,0.53 -0.91,1.22 v 1.68 c 0,0.7 -0.13,1.09 -0.9,1.26 v 0.02 c 0.77,0.18 0.9,0.57 0.9,1.28 z"
   style="fill:#000000;stroke-width:0" />
<polygon
   id="polygon5128"
   points="378.38,454.92 378.37,454.92 378.37,454.91 378.37,454.9 378.37,454.9 378.37,454.89 378.37,454.89 378.37,454.88 378.38,454.99 378.38,454.99 378.38,454.98 378.38,454.98 378.38,454.97 378.38,454.96 378.38,454.96 378.38,454.95 378.38,454.94 378.38,454.94 378.38,454.93 "
   style="fill:#000000;stroke-width:0" />
<path
   id="path5130"
   d="m 370.6,454.18 0.01,0.02 0.02,0.02 0.01,0.02 0.01,0.02 0.02,0.02 0.02,0.02 0.01,0.02 0.02,0.03 0.02,0.02 0.02,0.03 0.02,0.02 0.02,0.03 0.04,0.05 0.05,0.05 0.02,0.02 0.02,0.03 0.03,0.02 0.02,0.02 0.02,0.02 0.03,0.02 0.02,0.02 0.02,0.02 0.02,0.02 0.03,0.01 0.02,0.01 0.02,0.01 0.03,0.01 0.02,0.01 0.02,0 0.01,0 0.01,0 c 0.1,0 0.15,-0.05 0.15,-0.15 0,-0.13 -0.04,-0.26 -0.08,-0.38 -0.14,-0.51 -0.58,-1.79 -0.58,-2.41 0,-0.71 0.66,-1.03 1.3,-1.03 1.4,0 2.38,1.52 2.38,2.82 0,0.95 -0.47,1.54 -1.43,1.7 l -0.03,-0.19 c 0.7,-0.12 0.89,-0.7 0.89,-1.32 0,-0.7 -0.19,-1.37 -0.58,-1.95 -0.27,-0.4 -0.67,-0.85 -1.2,-0.85 -0.42,0 -0.62,0.34 -0.62,0.72 0,0.24 0.07,0.51 0.14,0.74 l 0.52,1.74 c 0.06,0.2 0.12,0.45 0.12,0.67 0,0.29 -0.13,0.44 -0.42,0.44 -0.59,0 -1.07,-0.62 -1.36,-1.05 z"
   style="fill:#000000;stroke-width:0" />
<path
   id="path5132"
   d="m 378.18,450.26 -0.11,-0.19 c -0.14,-0.24 -0.23,-0.32 -0.34,-0.32 -0.16,0 -0.32,0.25 -0.62,0.98 -0.04,0.09 -0.15,0.37 -0.28,0.66 1.12,0.99 1.35,1.14 1.71,1.17 v 0.12 h -1.39 v -0.12 h 0.12 c 0.19,0 0.3,-0.06 0.3,-0.14 0,-0.15 -0.38,-0.52 -1.09,-1.06 -0.1,-0.08 -0.19,-0.16 -0.32,-0.25 l 0.91,3.46 -0.04,0.04 c -0.45,-0.1 -0.74,-0.15 -1.18,-0.21 v -0.12 c 0.36,0.01 0.51,-0.04 0.51,-0.19 -0.01,-0.13 -0.07,-0.33 -0.16,-0.68 -0.03,-0.1 -0.06,-0.19 -0.07,-0.25 l -0.02,-0.06 -0.96,-3.66 h 0.57 l 0.36,1.36 0.32,0.24 c 0.12,-0.33 0.32,-0.79 0.46,-1.06 0.24,-0.48 0.37,-0.63 0.59,-0.63 0.31,0 0.5,0.19 0.84,0.83 z"
   style="fill:#000000;stroke-width:0" />
<path
   id="path5134"
   d="m 381.36,450.88 0,0.01 0,0.01 0,0.01 0,0.01 0,0.03 0,0.02 0.01,0.02 0,0.02 0,0.01 0,0.01 0,0.02 0,0.01 c 0,0.71 -0.41,0.85 -0.63,0.85 -0.16,0 -0.57,-0.02 -0.57,-0.56 0,-0.37 0.32,-0.49 0.49,-0.49 0.08,0 0.11,0.04 0.19,0.04 0.06,0 0.16,-0.07 0.16,-0.24 0,-0.13 -0.04,-0.51 -0.67,-0.96 l 0.09,-0.2 c 0.47,0.32 0.88,0.76 0.93,1.38 z"
   style="fill:#000000;stroke-width:0" />
<path
   id="path5136"
   d="m 381.28,454.91 0,0.03 0,0.03 -0.01,0.03 0,0.03 -0.01,0.02 -0.01,0.03 0,0.03 -0.02,0.02 -0.01,0.03 -0.01,0.02 -0.01,0.02 -0.02,0.03 -0.01,0.02 -0.02,0.02 -0.02,0.02 -0.02,0.02 -0.02,0.02 -0.02,0.02 -0.02,0.02 -0.02,0.01 -0.02,0.02 -0.03,0.01 -0.02,0.01 -0.02,0.01 -0.03,0.02 -0.03,0 -0.02,0.01 -0.03,0.01 -0.03,0 -0.02,0.01 -0.03,0 -0.03,0 c -0.3,0 -0.55,-0.25 -0.55,-0.57 0,-0.38 0.34,-0.53 0.55,-0.53 0.21,0 0.56,0.16 0.56,0.53 z"
   style="fill:#000000;stroke-width:0" />
<path
   id="path5138"
   d="m 387.11,457.67 -0.05,0 -0.05,0 -0.05,0 -0.05,-0.01 -0.05,0 -0.05,-0.01 -0.04,0 -0.05,-0.01 -0.05,-0.01 -0.04,-0.01 -0.04,-0.01 -0.05,-0.01 -0.04,-0.01 -0.04,-0.02 -0.05,-0.01 -0.04,-0.02 -0.04,-0.01 -0.04,-0.02 -0.04,-0.02 -0.04,-0.02 -0.04,-0.02 -0.03,-0.02 -0.04,-0.02 -0.04,-0.03 -0.04,-0.02 -0.03,-0.03 -0.04,-0.03 -0.04,-0.02 -0.03,-0.03 -0.04,-0.03 -0.03,-0.03 -0.04,-0.04 c -0.57,-0.55 -0.95,-1.7 -0.95,-2.86 0,-1.09 0.32,-2.26 0.79,-2.81 0.37,-0.44 0.88,-0.68 1.46,-0.68 v 0.26 c -0.86,0 -1.3,1.06 -1.3,3.14 0,2.11 0.45,3.21 1.31,3.21 h 0 c 0.84,0 1.28,-1.12 1.28,-3.21 0,-2.08 -0.44,-3.14 -1.29,-3.14 v -0.26 c 0.51,0 0.94,0.17 1.29,0.52 0.58,0.54 0.96,1.7 0.96,2.91 0,2.04 -0.91,3.44 -2.21,3.44 z"
   style="fill:#000000;stroke-width:0" />
<path
   id="path5140"
   d="m 390.29,449.27 0.13,0.05 0.07,0.03 0.07,0.03 0.07,0.03 0.06,0.03 0.07,0.04 0.06,0.03 0.06,0.04 0.07,0.04 0.06,0.04 0.06,0.04 0.05,0.04 0.06,0.05 0.05,0.04 0.05,0.05 0.05,0.05 0.05,0.06 0.04,0.05 0.05,0.06 0.04,0.05 0.03,0.06 0.04,0.07 0.03,0.06 0.02,0.06 0.03,0.07 0.02,0.07 0.02,0.07 0.01,0.08 0.01,0.07 0.01,0.08 0,0.08 c 0,0.48 -0.28,1.02 -0.82,1.02 -0.33,0 -0.62,-0.24 -0.62,-0.57 0,-0.33 0.18,-0.54 0.51,-0.54 0.18,0 0.31,0.14 0.42,0.14 0.08,0 0.11,-0.14 0.11,-0.2 0,-0.62 -0.5,-1.07 -1.04,-1.25 z"
   style="fill:#000000;stroke-width:0" />
<path
   id="path5142"
   d="m 397.05,457.67 -0.06,0 -0.05,0 -0.04,0 -0.05,-0.01 -0.05,0 -0.05,-0.01 -0.05,0 -0.04,-0.01 -0.05,-0.01 -0.04,-0.01 -0.05,-0.01 -0.04,-0.01 -0.04,-0.01 -0.05,-0.02 -0.04,-0.01 -0.04,-0.02 -0.04,-0.01 -0.04,-0.02 -0.04,-0.02 -0.04,-0.02 -0.04,-0.02 -0.04,-0.02 -0.03,-0.02 -0.04,-0.03 -0.04,-0.02 -0.04,-0.03 -0.03,-0.03 -0.04,-0.02 -0.03,-0.03 -0.04,-0.03 -0.03,-0.03 -0.04,-0.04 c -0.58,-0.55 -0.96,-1.7 -0.96,-2.86 0,-1.09 0.33,-2.26 0.8,-2.81 0.37,-0.44 0.88,-0.68 1.46,-0.68 v 0.26 c -0.86,0 -1.3,1.06 -1.3,3.14 0,2.11 0.45,3.21 1.31,3.21 h 0 c 0.83,0 1.28,-1.12 1.28,-3.21 0,-2.08 -0.44,-3.14 -1.29,-3.14 v -0.26 c 0.5,0 0.93,0.17 1.29,0.52 0.58,0.54 0.96,1.7 0.96,2.91 0,2.04 -0.91,3.44 -2.21,3.44 z"
   style="fill:#000000;stroke-width:0" />
<path
   id="path5144"
   d="m 400.85,451.88 -0.03,0 -0.03,0 -0.02,0 -0.03,-0.01 -0.03,0 -0.02,-0.01 -0.03,-0.01 -0.02,-0.01 -0.02,-0.01 -0.03,-0.01 -0.02,-0.01 -0.02,-0.02 -0.02,-0.01 -0.02,-0.02 -0.02,-0.02 -0.02,-0.01 -0.02,-0.02 -0.02,-0.02 -0.01,-0.02 -0.02,-0.02 -0.01,-0.02 -0.01,-0.03 -0.02,-0.02 -0.01,-0.02 -0.01,-0.03 0,-0.02 -0.01,-0.03 -0.01,-0.03 0,-0.02 -0.01,-0.03 0,-0.03 0,-0.02 c 0,-0.3 0.24,-0.55 0.54,-0.55 0.3,0 0.54,0.25 0.54,0.55 0,0.29 -0.24,0.53 -0.54,0.53 z"
   style="fill:#000000;stroke-width:0" />
<path
   id="path5146"
   d="m 404.77,457.67 -0.05,0 -0.05,0 -0.05,0 -0.05,-0.01 -0.05,0 -0.04,-0.01 -0.05,0 -0.05,-0.01 -0.04,-0.01 -0.05,-0.01 -0.04,-0.01 -0.05,-0.01 -0.04,-0.01 -0.04,-0.02 -0.04,-0.01 -0.04,-0.02 -0.04,-0.01 -0.05,-0.02 -0.04,-0.02 -0.03,-0.02 -0.04,-0.02 -0.04,-0.02 -0.04,-0.02 -0.04,-0.03 -0.03,-0.02 -0.04,-0.03 -0.04,-0.03 -0.03,-0.02 -0.04,-0.03 -0.03,-0.03 -0.04,-0.03 -0.03,-0.04 c -0.58,-0.55 -0.96,-1.7 -0.96,-2.86 0,-1.09 0.33,-2.26 0.8,-2.81 0.36,-0.44 0.87,-0.68 1.45,-0.68 v 0.26 c -0.86,0 -1.29,1.06 -1.29,3.14 0,2.11 0.44,3.21 1.3,3.21 h 0 c 0.84,0 1.29,-1.12 1.29,-3.21 0,-2.08 -0.44,-3.14 -1.3,-3.14 v -0.26 c 0.51,0 0.94,0.17 1.3,0.52 0.57,0.54 0.95,1.7 0.95,2.91 0,2.04 -0.9,3.44 -2.21,3.44 z"
   style="fill:#000000;stroke-width:0" />
<path
   id="path5148"
   d="m 410.12,457.67 -1.79,-0.9 v -0.14 c 0.12,0.05 0.22,0.09 0.27,0.11 0.17,0.06 0.34,0.11 0.44,0.11 0.21,0 0.3,-0.15 0.3,-0.47 v -4.52 c 0,-0.32 -0.08,-0.55 -0.24,-0.64 -0.15,-0.09 -0.29,-0.12 -0.7,-0.13 v -0.15 h 2.74 v 0.15 c -0.78,0.01 -0.94,0.11 -0.94,0.58 v 5.98 z"
   style="fill:#000000;stroke-width:0" />
<path
   id="path5150"
   d="m 414.44,456.43 0,0.06 0,0.05 0,0.05 -0.01,0.05 0,0.05 0,0.05 -0.02,0.09 -0.01,0.09 -0.02,0.08 -0.02,0.08 -0.03,0.07 -0.03,0.07 -0.03,0.06 -0.04,0.06 -0.04,0.06 -0.04,0.05 -0.05,0.04 -0.04,0.05 -0.06,0.04 -0.05,0.03 -0.06,0.03 -0.06,0.03 -0.06,0.03 -0.07,0.02 -0.07,0.02 -0.07,0.02 -0.07,0.02 -0.08,0.01 -0.08,0.01 -0.08,0.01 -0.09,0 -0.08,0.01 -0.09,0 -0.1,0 -0.09,0.01 v -0.12 c 0.71,-0.15 0.9,-0.53 0.9,-1.22 v -1.67 c 0,-0.71 0.13,-1.1 0.91,-1.27 v -0.02 c -0.78,-0.18 -0.91,-0.57 -0.91,-1.27 v -1.68 c 0,-0.69 -0.19,-1.06 -0.9,-1.22 v -0.11 c 1.02,0 1.64,0.2 1.64,1.38 v 1.77 c 0,0.64 0.16,0.95 0.85,1.14 -0.69,0.18 -0.85,0.49 -0.85,1.13 z"
   style="fill:#000000;stroke-width:0" />
</g>  </g>
</svg>
