<?xml version="1.0" encoding="UTF-8" standalone="no"?>
<!-- Created with Inkscape (http://www.inkscape.org/) -->

<svg
   xmlns:ns0="http://www.iki.fi/pav/software/textext/"
   xmlns:dc="http://purl.org/dc/elements/1.1/"
   xmlns:cc="http://creativecommons.org/ns#"
   xmlns:rdf="http://www.w3.org/1999/02/22-rdf-syntax-ns#"
   xmlns:svg="http://www.w3.org/2000/svg"
   xmlns="http://www.w3.org/2000/svg"
   xmlns:sodipodi="http://sodipodi.sourceforge.net/DTD/sodipodi-0.dtd"
   xmlns:inkscape="http://www.inkscape.org/namespaces/inkscape"
   width="175"
   height="25"
   id="svg2"
   inkscape:label="Pozadí"
   version="1.1"
   inkscape:version="0.47 r22583"
   sodipodi:docname="ex1-x0-pdf.svg"
   inkscape:export-filename="/localhome/flidr/matlab/IDM-toolboxes/nft/nef/trunk/help/html/graphics/ex1-system.png"
   inkscape:export-xdpi="120"
   inkscape:export-ydpi="120">
  <sodipodi:namedview
     id="base"
     pagecolor="#ffffff"
     bordercolor="#666666"
     borderopacity="1.0"
     inkscape:pageopacity="0.0"
     inkscape:pageshadow="2"
     inkscape:zoom="1.4"
     inkscape:cx="59.280979"
     inkscape:cy="-85.731411"
     inkscape:document-units="px"
     inkscape:current-layer="layer1"
     showgrid="false"
     inkscape:window-width="1211"
     inkscape:window-height="944"
     inkscape:window-x="0"
     inkscape:window-y="0"
     inkscape:window-maximized="0" />
  <defs
     id="defs3">
    <inkscape:perspective
       sodipodi:type="inkscape:persp3d"
       inkscape:vp_x="0 : 526.18109 : 1"
       inkscape:vp_y="0 : 1000 : 0"
       inkscape:vp_z="744.09448 : 526.18109 : 1"
       inkscape:persp3d-origin="372.04724 : 350.78739 : 1"
       id="perspective9" />
  </defs>
  <metadata
     id="metadata6">
    <rdf:RDF>
      <cc:Work
         rdf:about="">
        <dc:format>image/svg+xml</dc:format>
        <dc:type
           rdf:resource="http://purl.org/dc/dcmitype/StillImage" />
        <dc:title />
      </cc:Work>
    </rdf:RDF>
  </metadata>
  <g
     inkscape:label="Vrstva 1"
     inkscape:groupmode="layer"
     id="layer1"
     transform="translate(-109.715,-260.135)">
    <g
       style="font-style:normal;font-variant:normal;font-weight:normal;font-stretch:normal;letter-spacing:normal;word-spacing:normal;text-anchor:start;fill:none;stroke:#000000;stroke-linecap:butt;stroke-linejoin:miter;stroke-miterlimit:10.43299961;stroke-opacity:1;stroke-dasharray:none;stroke-dashoffset:0"
       ns0:preamble="/localhome/flidr/matlab/IDM-toolboxes/nft/nef/trunk/help/html/graphics/src/preamble.inc"
       ns0:text="\\begin{align*}\np(\\bdx_0)=\\mathcal{N}\\left\\{\\bdx_0;\n     \\left(\n       \\begin{matrix} \n         10 \\\\ \n         -0.85 \n       \\end{matrix}\\right),\n     \\left(\n       \\begin{matrix} \n         0.1 &amp; 0 \\\\ \n         0 &amp; 0.1\n       \\end{matrix}\\right)\\right\\}.\n\\end{align*}"
       word-spacing="normal"
       letter-spacing="normal"
       font-size-adjust="none"
       font-stretch="normal"
       font-weight="normal"
       font-variant="normal"
       font-style="normal"
       stroke-miterlimit="10.433"
       xml:space="preserve"
       transform="matrix(1,0,0,-1,-197.845,747.88)"
       id="content">
<path
   id="path5237"
   d="m 309.18,476.78 h 0.23 c 0,0 0.02,0 0.03,0.01 0.13,0.06 0.39,-0.13 0.39,-0.28 0,-0.09 -0.36,-1.5 -0.71,-2.82 -0.27,-0.99 -0.51,-1.94 -0.57,-2.23 -0.11,-0.46 -0.24,-0.58 -0.67,-0.59 v -0.16 h 2.04 v 0.15 c -0.47,0 -0.64,0.09 -0.64,0.3 0,0.14 0.17,0.92 0.37,1.66 0.25,-0.14 0.43,-0.18 0.66,-0.18 l -0.04,0.19 c -0.28,0 -0.48,0.15 -0.48,0.37 0,0.34 0.36,1.65 0.65,2.38 0.27,0.68 0.85,1.17 1.34,1.14 h 0 c 0.43,-0.02 0.62,-0.28 0.62,-0.86 0,-0.65 -0.29,-1.51 -0.72,-2.13 -0.41,-0.59 -0.89,-0.9 -1.41,-0.9 l 0.04,-0.19 c 1.45,0 2.99,1.68 2.99,3.26 0,0.78 -0.44,1.25 -1.15,1.25 -0.65,0 -1.12,-0.32 -1.7,-1.13 l 0.29,1 0.03,0.09 c 0,0 -0.01,0.01 -0.02,0.03 l -0.02,0.01 c 0,0.01 -0.01,0.01 -0.01,0.01 l -0.02,-0.01 -1.54,-0.22 z"
   style="fill:#000000;stroke-width:0" />
<path
   id="path5239"
   d="m 317.49,471 -0.14,0.1 -0.14,0.11 -0.12,0.11 -0.12,0.11 -0.11,0.12 -0.11,0.11 -0.1,0.12 -0.09,0.13 -0.08,0.12 -0.08,0.13 -0.08,0.13 -0.07,0.14 -0.06,0.13 -0.06,0.14 -0.05,0.14 -0.05,0.14 -0.04,0.15 -0.04,0.14 -0.04,0.15 -0.03,0.15 -0.03,0.15 -0.02,0.16 -0.02,0.15 -0.02,0.16 -0.03,0.31 -0.02,0.32 0,0.33 -0.01,0.33 c 0,1.51 0.29,3.38 1.76,4.19 v 0.21 c -1.75,-0.78 -2.69,-2.69 -2.69,-4.53 0,-1.92 0.95,-3.66 2.69,-4.53 z"
   style="fill:#000000;stroke-width:0" />
<path
   id="path5241"
   d="m 322.08,473.98 -0.02,-0.02 -0.02,-0.03 -0.02,-0.02 -0.01,-0.02 -0.02,-0.02 -0.02,-0.02 -0.01,-0.02 -0.02,-0.02 -0.03,-0.03 -0.03,-0.04 -0.02,-0.03 -0.03,-0.03 -0.02,-0.03 -0.03,-0.03 -0.02,-0.02 -0.02,-0.02 -0.02,-0.03 -0.02,-0.02 -0.02,-0.01 -0.02,-0.02 -0.01,-0.02 -0.02,-0.01 -0.02,-0.01 -0.01,-0.01 -0.02,-0.01 -0.02,-0.01 -0.01,-0.01 -0.02,-0.01 -0.01,0 -0.02,-0.01 -0.01,0 -0.02,0 -0.01,0 -0.02,-0.01 -0.02,0 -0.01,0 c -0.19,0 -0.29,0.15 -0.37,0.53 l -0.32,1.56 c 0.03,0.04 0.04,0.04 0.09,0.12 0.35,0.58 0.6,0.82 0.83,0.82 0.06,0 0.13,-0.03 0.25,-0.09 0.13,-0.09 0.21,-0.11 0.31,-0.11 0.3,0 0.56,0.24 0.56,0.52 0,0.33 -0.28,0.62 -0.58,0.62 -0.46,0 -0.77,-0.27 -1.57,-1.38 -0.18,0.85 -0.26,1.1 -0.45,1.38 l -1.66,-0.24 v -0.27 c 0.21,0.02 0.26,0.02 0.35,0.02 0.32,0 0.45,-0.18 0.55,-0.67 l 0.3,-1.53 -0.43,-0.7 c -0.2,-0.32 -0.31,-0.41 -0.48,-0.41 -0.06,0 -0.11,0.02 -0.21,0.08 -0.16,0.09 -0.28,0.13 -0.4,0.13 -0.31,0 -0.55,-0.25 -0.55,-0.56 0,-0.35 0.26,-0.59 0.64,-0.59 0.5,0 0.73,0.21 1.3,1.16 l 0.24,0.39 c 0.15,-0.75 0.23,-1.01 0.45,-1.28 0.12,-0.16 0.32,-0.27 0.52,-0.27 0.48,0 0.9,0.34 1.5,1.22 z"
   style="fill:#000000;stroke-width:0" />
<path
   id="path5243"
   d="m 325.55,476.37 -0.04,0 -0.04,0 -0.04,0 -0.03,0 -0.04,-0.01 -0.04,0 -0.03,-0.01 -0.04,0 -0.03,-0.01 -0.04,0 -0.03,-0.01 -0.03,-0.01 -0.03,-0.01 -0.04,-0.01 -0.03,-0.01 -0.03,-0.01 -0.03,-0.02 -0.03,-0.01 -0.03,-0.01 -0.03,-0.02 -0.03,-0.01 -0.03,-0.02 -0.03,-0.02 -0.03,-0.02 -0.03,-0.02 -0.02,-0.02 -0.03,-0.02 -0.03,-0.02 -0.03,-0.02 -0.02,-0.02 -0.03,-0.03 -0.03,-0.02 c -0.44,-0.42 -0.72,-1.3 -0.72,-2.18 0,-0.83 0.25,-1.71 0.6,-2.14 0.28,-0.33 0.67,-0.51 1.11,-0.51 v 0.2 c -0.65,0 -0.99,0.81 -0.99,2.38 0,1.61 0.34,2.45 1,2.45 h 0 c 0.63,0 0.97,-0.86 0.97,-2.44 0,-1.58 -0.33,-2.39 -0.98,-2.39 v -0.2 c 0.38,0 0.71,0.13 0.98,0.39 0.44,0.42 0.73,1.3 0.73,2.21 0,1.56 -0.69,2.62 -1.68,2.62 z"
   style="fill:#000000;stroke-width:0" />
<path
   id="path5245"
   d="m 328.13,479.47 0.06,-0.04 0.06,-0.05 0.06,-0.04 0.06,-0.04 0.05,-0.05 0.06,-0.04 0.05,-0.05 0.05,-0.04 0.05,-0.05 0.05,-0.04 0.04,-0.05 0.05,-0.04 0.04,-0.05 0.04,-0.04 0.04,-0.05 0.04,-0.05 c 0.2,-0.25 0.36,-0.51 0.48,-0.77 0.12,-0.27 0.22,-0.63 0.31,-1.08 0.1,-0.57 0.16,-1.21 0.16,-1.89 0,-0.64 -0.07,-1.26 -0.19,-1.85 -0.13,-0.58 -0.32,-1.06 -0.58,-1.45 -0.26,-0.38 -0.59,-0.68 -0.98,-0.91 v -0.18 c 0.8,0.36 1.45,0.95 1.95,1.79 0.49,0.82 0.74,1.74 0.74,2.75 0,0.68 -0.13,1.35 -0.38,1.99 -0.25,0.64 -0.61,1.18 -1.08,1.66 -0.33,0.33 -0.74,0.62 -1.23,0.86 z"
   style="fill:#000000;stroke-width:0" />
<polygon
   id="polygon5247"
   points="334.95,475.81 341.6,475.81 341.6,476.37 334.95,476.37 "
   style="fill:#000000;stroke-width:0" />
<polygon
   id="polygon5249"
   points="334.95,473.8 341.6,473.8 341.6,474.36 334.95,474.36 "
   style="fill:#000000;stroke-width:0" />
<path
   id="path5251"
   d="m 349.16,477.03 v -0.06 c 0,-1.16 1.48,-3.01 1.64,-4.39 h 0.15 c 1.6,2.45 1.48,6.11 2.19,6.11 0.18,0 0.3,-0.14 0.53,-0.14 0.21,0 0.45,0.14 0.45,0.4 0,0.33 -0.32,0.44 -0.59,0.44 -1.54,0 -1.21,-3.22 -2.38,-5.09 0,0.03 0.01,0.07 0.01,0.1 0,0.9 -1.52,2.8 -1.52,4.58 0,0.14 0.02,0.28 0.04,0.41 -1.38,-0.75 -1.05,-6.56 -2.98,-6.56 -0.31,0 -0.72,0.23 -0.72,0.56 0,0.25 0.15,0.36 0.26,0.36 0.1,0 0.21,-0.04 0.31,-0.04 0.2,0 0.48,0.16 0.48,0.48 0,0.22 -0.22,0.46 -0.51,0.46 -0.43,0 -0.92,-0.42 -0.92,-1.07 0,-0.43 0.38,-1 1.1,-1 2.04,0 2.21,3.86 2.45,4.46 z"
   style="fill:#000000;stroke-width:0" />
<path
   id="path5253"
   d="m 359.05,465.22 0,-0.07 0,-0.08 0.01,-0.07 0,-0.07 0.01,-0.07 0,-0.07 0.01,-0.06 0.01,-0.06 0.02,-0.13 0.03,-0.11 0.03,-0.11 0.03,-0.1 0.04,-0.09 0.04,-0.09 0.05,-0.08 0.05,-0.07 0.06,-0.07 0.06,-0.07 0.06,-0.06 0.07,-0.05 0.07,-0.05 0.08,-0.05 0.08,-0.04 0.08,-0.03 0.09,-0.04 0.09,-0.02 0.09,-0.03 0.1,-0.02 0.1,-0.02 0.11,-0.01 0.11,-0.01 0.11,-0.01 0.12,-0.01 0.11,-0.01 0.13,0 0.12,0 v 0.15 c -0.93,0.22 -1.19,0.75 -1.19,1.7 v 8.32 c 0,0.99 -0.17,1.53 -1.2,1.76 v 0.03 c 1.03,0.24 1.2,0.78 1.2,1.76 v 8.34 c 0,0.95 0.26,1.48 1.19,1.7 v 0.15 c -1.35,0 -2.17,-0.28 -2.17,-1.92 v -8.47 c 0,-0.89 -0.21,-1.32 -1.12,-1.56 0.91,-0.26 1.12,-0.69 1.12,-1.58 z"
   style="fill:#000000;stroke-width:0" />
<path
   id="path5255"
   d="m 367.15,473.98 -0.02,-0.02 -0.02,-0.03 -0.01,-0.02 -0.02,-0.02 -0.02,-0.02 -0.01,-0.02 -0.02,-0.02 -0.01,-0.02 -0.03,-0.03 -0.03,-0.04 -0.03,-0.03 -0.02,-0.03 -0.03,-0.03 -0.02,-0.03 -0.02,-0.02 -0.02,-0.02 -0.02,-0.03 -0.02,-0.02 -0.02,-0.01 -0.02,-0.02 -0.02,-0.02 -0.02,-0.01 -0.01,-0.01 -0.02,-0.01 -0.02,-0.01 -0.01,-0.01 -0.02,-0.01 -0.01,-0.01 -0.02,0 -0.01,-0.01 -0.02,0 -0.01,0 -0.02,0 -0.01,-0.01 -0.02,0 -0.02,0 c -0.19,0 -0.29,0.15 -0.37,0.53 l -0.31,1.56 c 0.03,0.04 0.03,0.04 0.09,0.12 0.34,0.58 0.59,0.82 0.82,0.82 0.06,0 0.13,-0.03 0.25,-0.09 0.14,-0.09 0.21,-0.11 0.32,-0.11 0.3,0 0.56,0.24 0.56,0.52 0,0.33 -0.28,0.62 -0.58,0.62 -0.47,0 -0.78,-0.27 -1.57,-1.38 -0.18,0.85 -0.26,1.1 -0.45,1.38 l -1.67,-0.24 v -0.27 c 0.21,0.02 0.26,0.02 0.35,0.02 0.32,0 0.46,-0.18 0.56,-0.67 l 0.3,-1.53 -0.44,-0.7 c -0.2,-0.32 -0.31,-0.41 -0.48,-0.41 -0.06,0 -0.11,0.02 -0.21,0.08 -0.16,0.09 -0.28,0.13 -0.39,0.13 -0.31,0 -0.55,-0.25 -0.55,-0.56 0,-0.35 0.26,-0.59 0.63,-0.59 0.5,0 0.73,0.21 1.31,1.16 l 0.24,0.39 c 0.15,-0.75 0.23,-1.01 0.45,-1.28 0.12,-0.16 0.32,-0.27 0.52,-0.27 0.47,0 0.89,0.34 1.5,1.22 z"
   style="fill:#000000;stroke-width:0" />
<path
   id="path5257"
   d="m 370.62,476.37 -0.04,0 -0.04,0 -0.04,0 -0.04,0 -0.03,-0.01 -0.04,0 -0.03,-0.01 -0.04,0 -0.03,-0.01 -0.04,0 -0.03,-0.01 -0.03,-0.01 -0.04,-0.01 -0.03,-0.01 -0.03,-0.01 -0.03,-0.01 -0.03,-0.02 -0.03,-0.01 -0.03,-0.01 -0.03,-0.02 -0.03,-0.01 -0.03,-0.02 -0.03,-0.02 -0.03,-0.02 -0.03,-0.02 -0.03,-0.02 -0.02,-0.02 -0.03,-0.02 -0.03,-0.02 -0.03,-0.02 -0.02,-0.03 -0.03,-0.02 c -0.44,-0.42 -0.73,-1.3 -0.73,-2.18 0,-0.83 0.25,-1.71 0.61,-2.14 0.28,-0.33 0.67,-0.51 1.1,-0.51 v 0.2 c -0.65,0 -0.98,0.81 -0.98,2.38 0,1.61 0.34,2.45 0.99,2.45 h 0 c 0.64,0 0.98,-0.86 0.98,-2.44 0,-1.58 -0.33,-2.39 -0.99,-2.39 v -0.2 c 0.39,0 0.72,0.13 0.99,0.39 0.44,0.42 0.73,1.3 0.73,2.21 0,1.56 -0.69,2.62 -1.68,2.62 z"
   style="fill:#000000;stroke-width:0" />
<path
   id="path5259"
   d="m 374.98,472.7 0.01,0.01 0,0.01 0,0.01 0,0.01 0,0.02 0,0.03 0,0.02 0,0.02 0,0.01 0,0.01 0,0.01 0,0.02 c 0,0.71 -0.4,0.85 -0.62,0.85 -0.16,0 -0.57,-0.02 -0.57,-0.57 0,-0.36 0.32,-0.49 0.49,-0.49 0.08,0 0.11,0.04 0.19,0.04 0.06,0 0.16,-0.07 0.16,-0.23 0,-0.13 -0.04,-0.51 -0.67,-0.96 l 0.09,-0.2 c 0.47,0.32 0.87,0.76 0.92,1.38 z"
   style="fill:#000000;stroke-width:0" />
<path
   id="path5261"
   d="m 374.9,476.73 0,0.03 0,0.03 0,0.03 -0.01,0.02 0,0.03 -0.01,0.03 -0.01,0.02 -0.01,0.03 -0.01,0.02 -0.01,0.03 -0.02,0.02 -0.01,0.03 -0.02,0.02 -0.02,0.02 -0.01,0.02 -0.02,0.02 -0.02,0.02 -0.02,0.02 -0.02,0.01 -0.03,0.02 -0.02,0.01 -0.02,0.02 -0.03,0.01 -0.02,0.01 -0.02,0.01 -0.03,0.01 -0.03,0.01 -0.02,0.01 -0.03,0 -0.03,0.01 -0.03,0 -0.02,0 c -0.3,0 -0.55,-0.25 -0.55,-0.57 0,-0.38 0.34,-0.54 0.55,-0.54 0.21,0 0.55,0.17 0.55,0.54 z"
   style="fill:#000000;stroke-width:0" />
<path
   id="path5263"
   d="m 384.6,487.2 -0.31,-0.27 -0.3,-0.28 -0.29,-0.29 -0.28,-0.29 -0.27,-0.31 -0.26,-0.31 -0.25,-0.32 -0.23,-0.33 -0.23,-0.33 -0.22,-0.35 -0.2,-0.34 -0.2,-0.36 -0.19,-0.36 -0.17,-0.36 -0.17,-0.37 -0.16,-0.38 -0.14,-0.37 -0.14,-0.39 -0.13,-0.38 -0.11,-0.39 -0.11,-0.4 -0.1,-0.39 -0.09,-0.4 -0.08,-0.4 -0.07,-0.4 -0.06,-0.41 -0.09,-0.8 -0.05,-0.82 -0.02,-0.81 c 0,-4.25 1.37,-9.55 4.86,-12.3 l 0.24,0.45 c -3.16,2.9 -3.39,8.05 -3.39,12.05 0,4.21 0.45,7.7 3.39,10.96 z"
   style="fill:#000000;stroke-width:0" />
<path
   id="path5265"
   d="m 395.57,485.57 -1.79,-0.91 v -0.14 c 0.11,0.05 0.23,0.09 0.27,0.11 0.17,0.07 0.34,0.11 0.44,0.11 0.21,0 0.3,-0.15 0.3,-0.47 v -4.51 c 0,-0.33 -0.08,-0.56 -0.24,-0.65 -0.15,-0.09 -0.29,-0.12 -0.7,-0.13 v -0.15 h 2.75 v 0.15 c -0.79,0.01 -0.95,0.11 -0.95,0.59 v 5.98 z"
   style="fill:#000000;stroke-width:0" />
<path
   id="path5267"
   d="m 400.18,485.57 -0.05,-0.01 -0.05,0 -0.05,0 -0.05,0 -0.05,-0.01 -0.04,0 -0.05,-0.01 -0.05,-0.01 -0.04,-0.01 -0.05,-0.01 -0.04,-0.01 -0.05,-0.01 -0.04,-0.01 -0.04,-0.01 -0.04,-0.02 -0.04,-0.01 -0.04,-0.02 -0.05,-0.02 -0.04,-0.02 -0.03,-0.02 -0.04,-0.02 -0.04,-0.02 -0.04,-0.02 -0.04,-0.03 -0.03,-0.02 -0.04,-0.03 -0.04,-0.02 -0.03,-0.03 -0.04,-0.03 -0.03,-0.03 -0.04,-0.03 -0.03,-0.03 c -0.58,-0.56 -0.96,-1.71 -0.96,-2.87 0,-1.09 0.33,-2.25 0.8,-2.81 0.36,-0.44 0.87,-0.68 1.45,-0.68 v 0.26 c -0.86,0 -1.29,1.07 -1.29,3.14 0,2.11 0.44,3.22 1.3,3.22 h 0 c 0.84,0 1.29,-1.13 1.29,-3.21 0,-2.08 -0.44,-3.15 -1.3,-3.15 v -0.26 c 0.51,0 0.94,0.17 1.3,0.52 0.57,0.55 0.95,1.7 0.95,2.91 0,2.04 -0.9,3.45 -2.21,3.45 z"
   style="fill:#000000;stroke-width:0" />
<polygon
   id="polygon5269"
   points="385.76,469.12 391.86,469.12 391.86,469.61 385.76,469.61 "
   style="fill:#000000;stroke-width:0" />
<path
   id="path5271"
   d="m 395.22,473.61 -0.05,0 -0.05,0 -0.05,0 -0.05,-0.01 -0.04,0 -0.05,-0.01 -0.05,0 -0.04,-0.01 -0.05,-0.01 -0.05,-0.01 -0.04,-0.01 -0.04,-0.01 -0.05,-0.01 -0.04,-0.02 -0.04,-0.01 -0.04,-0.02 -0.04,-0.02 -0.04,-0.01 -0.04,-0.02 -0.04,-0.02 -0.04,-0.02 -0.04,-0.02 -0.04,-0.03 -0.03,-0.02 -0.04,-0.03 -0.04,-0.02 -0.04,-0.03 -0.03,-0.03 -0.04,-0.02 -0.03,-0.03 -0.04,-0.04 -0.03,-0.03 c -0.58,-0.56 -0.96,-1.7 -0.96,-2.87 0,-1.08 0.33,-2.25 0.8,-2.81 0.37,-0.43 0.88,-0.67 1.45,-0.67 v 0.25 c -0.85,0 -1.29,1.07 -1.29,3.14 0,2.11 0.45,3.22 1.3,3.22 h 0 c 0.84,0 1.29,-1.12 1.29,-3.21 0,-2.08 -0.44,-3.15 -1.3,-3.15 v -0.25 c 0.51,0 0.94,0.16 1.3,0.51 0.58,0.55 0.95,1.71 0.95,2.91 0,2.04 -0.9,3.45 -2.21,3.45 z"
   style="fill:#000000;stroke-width:0" />
<path
   id="path5273"
   d="m 399.03,467.82 -0.03,0 -0.03,0 -0.03,-0.01 -0.02,0 -0.03,-0.01 -0.02,0 -0.03,-0.01 -0.02,-0.01 -0.03,-0.01 -0.02,-0.01 -0.02,-0.02 -0.02,-0.01 -0.03,-0.02 -0.02,-0.01 -0.02,-0.02 -0.01,-0.02 -0.02,-0.01 -0.02,-0.02 -0.01,-0.02 -0.02,-0.03 -0.01,-0.02 -0.02,-0.02 -0.01,-0.02 -0.01,-0.03 -0.01,-0.02 -0.01,-0.03 0,-0.02 -0.01,-0.03 0,-0.02 -0.01,-0.03 0,-0.03 0,-0.03 c 0,-0.3 0.24,-0.54 0.54,-0.54 0.3,0 0.54,0.24 0.54,0.54 0,0.3 -0.24,0.54 -0.54,0.54 z"
   style="fill:#000000;stroke-width:0" />
<path
   id="path5275"
   d="m 403.3,470.57 0.09,0.05 0.09,0.05 0.08,0.05 0.08,0.04 0.08,0.05 0.07,0.05 0.07,0.05 0.06,0.04 0.07,0.05 0.06,0.05 0.05,0.04 0.05,0.05 0.05,0.05 0.05,0.04 0.05,0.05 0.04,0.05 0.03,0.05 0.04,0.04 0.03,0.05 0.03,0.05 0.03,0.05 0.02,0.05 0.02,0.06 0.02,0.05 0.02,0.05 0.02,0.06 0.01,0.06 0.01,0.05 0,0.06 0.01,0.06 0,0.06 0,0.07 c 0,0.81 -0.71,1.41 -1.71,1.41 l -0.08,-0.28 c 0.68,0 1.11,-0.44 1.11,-1.13 0,-0.56 -0.28,-1.01 -0.85,-1.39 -0.05,-0.03 -0.05,-0.03 -0.09,-0.06 h 0 c -0.89,0.58 -1.24,1.04 -1.24,1.59 0,0.58 0.44,0.99 1.07,0.99 l 0.08,0.28 c -1.09,0 -1.89,-0.67 -1.89,-1.57 0,-0.65 0.19,-0.94 1.23,-1.86 -1.07,-0.81 -1.29,-1.12 -1.29,-1.8 0,-0.97 0.79,-1.64 1.91,-1.64 l 0.11,0.27 c -0.76,0 -1.26,0.58 -1.26,1.45 0,0.64 0.21,1.06 0.79,1.52 l 0.6,-0.43 c 0.73,-0.52 0.97,-0.88 0.97,-1.44 0,-0.65 -0.45,-1.1 -1.1,-1.1 l -0.11,-0.27 c 1.2,0 1.96,0.65 1.96,1.68 0,0.77 -0.33,1.25 -1.54,2.15 z"
   style="fill:#000000;stroke-width:0" />
<path
   id="path5277"
   d="m 407.2,472.68 h 1.95 c 0.16,0 0.2,0.02 0.23,0.09 l 0.38,0.89 -0.09,0.07 c -0.15,-0.21 -0.25,-0.26 -0.46,-0.26 h -2.08 l -1.08,-2.36 c -0.01,-0.02 -0.01,-0.03 -0.01,-0.05 0,-0.05 0.04,-0.08 0.11,-0.08 0.32,0 0.72,-0.07 1.13,-0.2 1.15,-0.37 1.67,-0.99 1.67,-1.97 0,-0.96 -0.6,-1.71 -1.38,-1.71 -0.2,0 -0.37,0.07 -0.67,0.29 -0.32,0.23 -0.55,0.33 -0.76,0.33 -0.28,0 -0.42,-0.12 -0.42,-0.37 0,-0.37 0.46,-0.61 1.21,-0.61 0.84,0 1.56,0.27 2.05,0.77 0.46,0.45 0.67,1.02 0.67,1.78 0,0.71 -0.19,1.17 -0.69,1.67 -0.43,0.44 -1,0.67 -2.18,0.88 z"
   style="fill:#000000;stroke-width:0" />
<path
   id="path5279"
   d="m 410.7,487.2 0.31,-0.27 0.3,-0.28 0.29,-0.29 0.28,-0.29 0.27,-0.31 0.25,-0.31 0.25,-0.32 0.24,-0.33 0.23,-0.33 0.21,-0.35 0.21,-0.34 0.2,-0.36 0.18,-0.36 0.18,-0.36 0.17,-0.37 0.15,-0.38 0.15,-0.37 0.14,-0.39 0.12,-0.38 0.12,-0.39 0.11,-0.4 0.1,-0.39 0.09,-0.4 0.07,-0.4 0.07,-0.4 0.06,-0.41 0.1,-0.8 0.05,-0.82 0.02,-0.81 c 0,-4.25 -1.38,-9.55 -4.86,-12.3 l -0.24,0.45 c 3.15,2.9 3.38,8.05 3.38,12.05 0,4.21 -0.44,7.7 -3.38,10.96 z"
   style="fill:#000000;stroke-width:0" />
<path
   id="path5281"
   d="m 419.49,471.09 0.14,0.05 0.07,0.03 0.06,0.03 0.07,0.03 0.07,0.03 0.06,0.03 0.07,0.04 0.06,0.03 0.06,0.04 0.06,0.04 0.06,0.05 0.06,0.04 0.05,0.04 0.06,0.05 0.05,0.05 0.05,0.05 0.04,0.05 0.05,0.06 0.04,0.05 0.04,0.06 0.04,0.06 0.03,0.06 0.03,0.07 0.03,0.06 0.02,0.07 0.02,0.07 0.02,0.07 0.02,0.07 0.01,0.08 0,0.08 0,0.07 c 0,0.48 -0.28,1.03 -0.81,1.03 -0.33,0 -0.63,-0.24 -0.63,-0.58 0,-0.32 0.19,-0.53 0.52,-0.53 0.18,0 0.31,0.14 0.42,0.14 0.08,0 0.11,-0.14 0.11,-0.2 0,-0.62 -0.5,-1.07 -1.05,-1.25 z"
   style="fill:#000000;stroke-width:0" />
<path
   id="path5283"
   d="m 430.13,487.2 -0.32,-0.27 -0.3,-0.28 -0.29,-0.29 -0.28,-0.29 -0.26,-0.31 -0.26,-0.31 -0.25,-0.32 -0.24,-0.33 -0.22,-0.33 -0.22,-0.35 -0.21,-0.34 -0.2,-0.36 -0.18,-0.36 -0.18,-0.36 -0.16,-0.37 -0.16,-0.38 -0.15,-0.37 -0.13,-0.39 -0.13,-0.38 -0.12,-0.39 -0.11,-0.4 -0.09,-0.39 -0.09,-0.4 -0.08,-0.4 -0.07,-0.4 -0.06,-0.41 -0.09,-0.8 -0.06,-0.82 -0.02,-0.81 c 0,-4.25 1.38,-9.55 4.87,-12.3 l 0.23,0.45 c -3.15,2.9 -3.38,8.05 -3.38,12.05 0,4.21 0.45,7.7 3.38,10.96 z"
   style="fill:#000000;stroke-width:0" />
<path
   id="path5285"
   d="m 432.97,485.57 -0.05,-0.01 -0.05,0 -0.05,0 -0.05,0 -0.05,-0.01 -0.04,0 -0.05,-0.01 -0.05,-0.01 -0.04,-0.01 -0.05,-0.01 -0.04,-0.01 -0.05,-0.01 -0.04,-0.01 -0.04,-0.01 -0.04,-0.02 -0.04,-0.01 -0.04,-0.02 -0.05,-0.02 -0.04,-0.02 -0.03,-0.02 -0.04,-0.02 -0.04,-0.02 -0.04,-0.02 -0.04,-0.03 -0.03,-0.02 -0.04,-0.03 -0.04,-0.02 -0.03,-0.03 -0.04,-0.03 -0.03,-0.03 -0.04,-0.03 -0.03,-0.03 c -0.58,-0.56 -0.96,-1.71 -0.96,-2.87 0,-1.09 0.33,-2.25 0.8,-2.81 0.37,-0.44 0.87,-0.68 1.45,-0.68 v 0.26 c -0.86,0 -1.29,1.07 -1.29,3.14 0,2.11 0.44,3.22 1.3,3.22 h 0 c 0.84,0 1.29,-1.13 1.29,-3.21 0,-2.08 -0.44,-3.15 -1.3,-3.15 v -0.26 c 0.51,0 0.94,0.17 1.3,0.52 0.57,0.55 0.95,1.7 0.95,2.91 0,2.04 -0.9,3.45 -2.21,3.45 z"
   style="fill:#000000;stroke-width:0" />
<path
   id="path5287"
   d="m 436.78,479.78 -0.03,0 -0.02,-0.01 -0.03,0 -0.03,0 -0.02,-0.01 -0.03,-0.01 -0.02,-0.01 -0.03,-0.01 -0.02,-0.01 -0.02,-0.01 -0.03,-0.01 -0.02,-0.02 -0.02,-0.01 -0.02,-0.02 -0.02,-0.01 -0.02,-0.02 -0.02,-0.02 -0.01,-0.02 -0.02,-0.02 -0.01,-0.02 -0.02,-0.02 -0.01,-0.02 -0.01,-0.03 -0.01,-0.02 -0.01,-0.03 -0.01,-0.02 -0.01,-0.03 -0.01,-0.02 0,-0.03 0,-0.03 -0.01,-0.02 0,-0.03 c 0,-0.3 0.24,-0.55 0.54,-0.55 0.3,0 0.54,0.25 0.54,0.55 0,0.3 -0.24,0.54 -0.54,0.54 z"
   style="fill:#000000;stroke-width:0" />
<path
   id="path5289"
   d="m 441.06,485.57 -1.79,-0.91 v -0.14 c 0.12,0.05 0.23,0.09 0.27,0.11 0.18,0.07 0.35,0.11 0.45,0.11 0.21,0 0.3,-0.15 0.3,-0.47 v -4.51 c 0,-0.33 -0.08,-0.56 -0.24,-0.65 -0.15,-0.09 -0.29,-0.12 -0.71,-0.13 v -0.15 h 2.75 v 0.15 c -0.79,0.01 -0.95,0.11 -0.95,0.59 v 5.98 z"
   style="fill:#000000;stroke-width:0" />
<path
   id="path5291"
   d="m 459.51,485.57 -0.06,-0.01 -0.05,0 -0.05,0 -0.04,0 -0.05,-0.01 -0.05,0 -0.05,-0.01 -0.04,-0.01 -0.05,-0.01 -0.04,-0.01 -0.05,-0.01 -0.04,-0.01 -0.04,-0.01 -0.05,-0.01 -0.04,-0.02 -0.04,-0.01 -0.04,-0.02 -0.04,-0.02 -0.04,-0.02 -0.04,-0.02 -0.04,-0.02 -0.04,-0.02 -0.03,-0.02 -0.04,-0.03 -0.04,-0.02 -0.04,-0.03 -0.03,-0.02 -0.04,-0.03 -0.03,-0.03 -0.04,-0.03 -0.03,-0.03 -0.04,-0.03 c -0.58,-0.56 -0.96,-1.71 -0.96,-2.87 0,-1.09 0.33,-2.25 0.8,-2.81 0.37,-0.44 0.88,-0.68 1.46,-0.68 v 0.26 c -0.86,0 -1.3,1.07 -1.3,3.14 0,2.11 0.45,3.22 1.31,3.22 h 0 c 0.83,0 1.28,-1.13 1.28,-3.21 0,-2.08 -0.44,-3.15 -1.29,-3.15 v -0.26 c 0.5,0 0.93,0.17 1.29,0.52 0.58,0.55 0.96,1.7 0.96,2.91 0,2.04 -0.91,3.45 -2.21,3.45 z"
   style="fill:#000000;stroke-width:0" />
<path
   id="path5293"
   d="m 436.83,473.61 -0.05,0 -0.05,0 -0.05,0 -0.05,-0.01 -0.04,0 -0.05,-0.01 -0.05,0 -0.04,-0.01 -0.05,-0.01 -0.05,-0.01 -0.04,-0.01 -0.04,-0.01 -0.05,-0.01 -0.04,-0.02 -0.04,-0.01 -0.04,-0.02 -0.04,-0.02 -0.04,-0.01 -0.04,-0.02 -0.04,-0.02 -0.04,-0.02 -0.04,-0.02 -0.04,-0.03 -0.03,-0.02 -0.04,-0.03 -0.04,-0.02 -0.04,-0.03 -0.03,-0.03 -0.04,-0.02 -0.03,-0.03 -0.04,-0.04 -0.03,-0.03 c -0.58,-0.56 -0.96,-1.7 -0.96,-2.87 0,-1.08 0.33,-2.25 0.8,-2.81 0.37,-0.43 0.87,-0.67 1.45,-0.67 v 0.25 c -0.85,0 -1.29,1.07 -1.29,3.14 0,2.11 0.45,3.22 1.3,3.22 h 0 c 0.84,0 1.29,-1.12 1.29,-3.21 0,-2.08 -0.44,-3.15 -1.3,-3.15 v -0.25 c 0.51,0 0.94,0.16 1.3,0.51 0.58,0.55 0.96,1.71 0.96,2.91 0,2.04 -0.91,3.45 -2.22,3.45 z"
   style="fill:#000000;stroke-width:0" />
<path
   id="path5295"
   d="m 455.64,473.61 -0.05,0 -0.05,0 -0.05,0 -0.05,-0.01 -0.04,0 -0.05,-0.01 -0.05,0 -0.04,-0.01 -0.05,-0.01 -0.05,-0.01 -0.04,-0.01 -0.04,-0.01 -0.05,-0.01 -0.04,-0.02 -0.04,-0.01 -0.04,-0.02 -0.04,-0.02 -0.04,-0.01 -0.04,-0.02 -0.04,-0.02 -0.04,-0.02 -0.04,-0.02 -0.04,-0.03 -0.03,-0.02 -0.04,-0.03 -0.04,-0.02 -0.04,-0.03 -0.03,-0.03 -0.04,-0.02 -0.03,-0.03 -0.04,-0.04 -0.03,-0.03 c -0.58,-0.56 -0.96,-1.7 -0.96,-2.87 0,-1.08 0.33,-2.25 0.8,-2.81 0.37,-0.43 0.87,-0.67 1.45,-0.67 v 0.25 c -0.85,0 -1.29,1.07 -1.29,3.14 0,2.11 0.45,3.22 1.3,3.22 h 0 c 0.84,0 1.29,-1.12 1.29,-3.21 0,-2.08 -0.44,-3.15 -1.3,-3.15 v -0.25 c 0.51,0 0.94,0.16 1.3,0.51 0.58,0.55 0.96,1.71 0.96,2.91 0,2.04 -0.91,3.45 -2.22,3.45 z"
   style="fill:#000000;stroke-width:0" />
<path
   id="path5297"
   d="m 459.45,467.82 -0.03,0 -0.03,0 -0.03,-0.01 -0.02,0 -0.03,-0.01 -0.02,0 -0.03,-0.01 -0.02,-0.01 -0.03,-0.01 -0.02,-0.01 -0.02,-0.02 -0.02,-0.01 -0.03,-0.02 -0.02,-0.01 -0.02,-0.02 -0.01,-0.02 -0.02,-0.01 -0.02,-0.02 -0.01,-0.02 -0.02,-0.03 -0.01,-0.02 -0.02,-0.02 -0.01,-0.02 -0.01,-0.03 -0.01,-0.02 -0.01,-0.03 0,-0.02 -0.01,-0.03 0,-0.02 -0.01,-0.03 0,-0.03 0,-0.03 c 0,-0.3 0.24,-0.54 0.54,-0.54 0.3,0 0.53,0.24 0.53,0.54 0,0.3 -0.23,0.54 -0.53,0.54 z"
   style="fill:#000000;stroke-width:0" />
<path
   id="path5299"
   d="m 463.73,473.61 -1.79,-0.91 v -0.14 c 0.11,0.05 0.23,0.09 0.26,0.11 0.18,0.07 0.35,0.11 0.45,0.11 0.21,0 0.3,-0.15 0.3,-0.46 v -4.52 c 0,-0.33 -0.08,-0.56 -0.24,-0.65 -0.15,-0.09 -0.29,-0.12 -0.7,-0.13 v -0.14 h 2.75 v 0.14 c -0.79,0.01 -0.95,0.11 -0.95,0.59 v 5.98 z"
   style="fill:#000000;stroke-width:0" />
<path
   id="path5301"
   d="m 466.13,487.2 0.31,-0.27 0.3,-0.28 0.29,-0.29 0.28,-0.29 0.27,-0.31 0.26,-0.31 0.25,-0.32 0.23,-0.33 0.23,-0.33 0.22,-0.35 0.2,-0.34 0.2,-0.36 0.19,-0.36 0.17,-0.36 0.17,-0.37 0.16,-0.38 0.14,-0.37 0.14,-0.39 0.13,-0.38 0.11,-0.39 0.11,-0.4 0.1,-0.39 0.09,-0.4 0.08,-0.4 0.07,-0.4 0.06,-0.41 0.09,-0.8 0.05,-0.82 0.02,-0.81 c 0,-4.25 -1.37,-9.55 -4.86,-12.3 l -0.24,0.45 c 3.16,2.9 3.39,8.05 3.39,12.05 0,4.21 -0.45,7.7 -3.39,10.96 z"
   style="fill:#000000;stroke-width:0" />
<path
   id="path5303"
   d="m 476.09,465.22 0,-0.07 0,-0.08 0,-0.07 -0.01,-0.07 0,-0.07 -0.01,-0.07 0,-0.06 -0.01,-0.06 -0.02,-0.13 -0.03,-0.11 -0.03,-0.11 -0.03,-0.1 -0.04,-0.09 -0.05,-0.09 -0.04,-0.08 -0.06,-0.07 -0.05,-0.07 -0.06,-0.07 -0.07,-0.06 -0.06,-0.05 -0.08,-0.05 -0.07,-0.05 -0.08,-0.04 -0.09,-0.03 -0.08,-0.04 -0.09,-0.02 -0.1,-0.03 -0.1,-0.02 -0.1,-0.02 -0.1,-0.01 -0.11,-0.01 -0.12,-0.01 -0.11,-0.01 -0.12,-0.01 -0.12,0 -0.13,0 v 0.15 c 0.94,0.22 1.2,0.75 1.2,1.7 v 8.32 c 0,0.99 0.17,1.53 1.19,1.76 v 0.03 c -1.02,0.24 -1.19,0.78 -1.19,1.76 v 8.34 c 0,0.95 -0.26,1.48 -1.2,1.7 v 0.15 c 1.36,0 2.17,-0.28 2.17,-1.92 v -8.47 c 0,-0.89 0.21,-1.32 1.12,-1.56 -0.91,-0.26 -1.12,-0.69 -1.12,-1.58 z"
   style="fill:#000000;stroke-width:0" />
<path
   id="path5305"
   d="m 481.71,473.7 -0.03,0 -0.03,0 -0.03,-0.01 -0.02,0 -0.03,-0.01 -0.02,0 -0.03,-0.01 -0.02,-0.01 -0.03,-0.01 -0.02,-0.01 -0.02,-0.02 -0.02,-0.01 -0.03,-0.02 -0.02,-0.01 -0.02,-0.02 -0.01,-0.02 -0.02,-0.01 -0.02,-0.02 -0.01,-0.02 -0.02,-0.03 -0.01,-0.02 -0.02,-0.02 -0.01,-0.02 -0.01,-0.03 -0.01,-0.02 -0.01,-0.03 0,-0.02 -0.01,-0.03 0,-0.02 -0.01,-0.03 0,-0.03 0,-0.03 c 0,-0.3 0.24,-0.54 0.54,-0.54 0.3,0 0.53,0.24 0.53,0.54 0,0.3 -0.23,0.54 -0.53,0.54 z"
   style="fill:#000000;stroke-width:0" />
</g>  </g>
</svg>
