<?xml version="1.0" encoding="UTF-8" standalone="no"?>
<!-- Created with Inkscape (http://www.inkscape.org/) -->

<svg
   xmlns:ns0="http://www.iki.fi/pav/software/textext/"
   xmlns:dc="http://purl.org/dc/elements/1.1/"
   xmlns:cc="http://creativecommons.org/ns#"
   xmlns:rdf="http://www.w3.org/1999/02/22-rdf-syntax-ns#"
   xmlns:svg="http://www.w3.org/2000/svg"
   xmlns="http://www.w3.org/2000/svg"
   xmlns:sodipodi="http://sodipodi.sourceforge.net/DTD/sodipodi-0.dtd"
   xmlns:inkscape="http://www.inkscape.org/namespaces/inkscape"
   width="170"
   height="40"
   id="svg2"
   inkscape:label="Pozadí"
   version="1.1"
   inkscape:version="0.47 r22583"
   sodipodi:docname="ex1-system.svg">
  <sodipodi:namedview
     id="base"
     pagecolor="#ffffff"
     bordercolor="#666666"
     borderopacity="1.0"
     inkscape:pageopacity="0.0"
     inkscape:pageshadow="2"
     inkscape:zoom="1.4"
     inkscape:cx="58.745979"
     inkscape:cy="-69.606411"
     inkscape:document-units="px"
     inkscape:current-layer="layer1"
     showgrid="false"
     inkscape:window-width="1211"
     inkscape:window-height="944"
     inkscape:window-x="0"
     inkscape:window-y="0"
     inkscape:window-maximized="0" />
  <defs
     id="defs3">
    <inkscape:perspective
       sodipodi:type="inkscape:persp3d"
       inkscape:vp_x="0 : 526.18109 : 1"
       inkscape:vp_y="0 : 1000 : 0"
       inkscape:vp_z="744.09448 : 526.18109 : 1"
       inkscape:persp3d-origin="372.04724 : 350.78739 : 1"
       id="perspective9" />
  </defs>
  <metadata
     id="metadata6">
    <rdf:RDF>
      <cc:Work
         rdf:about="">
        <dc:format>image/svg+xml</dc:format>
        <dc:type
           rdf:resource="http://purl.org/dc/dcmitype/StillImage" />
        <dc:title />
      </cc:Work>
    </rdf:RDF>
  </metadata>
  <g
     inkscape:label="Vrstva 1"
     inkscape:groupmode="layer"
     id="layer1"
     transform="translate(-110.25,-261.26)">
    <g
       ns0:preamble="/localhome/flidr/matlab/IDM-toolboxes/nft/nef/trunk/help/html/graphics/src/preamble.inc"
       ns0:text="\\begin{align*}\n   \\bdx_{k+1}&amp;=\n   \\left(\n     \\begin{matrix}\n       x_{1,k+1}\\\\\n       x_{2,k+1}\n     \\end{matrix}\n   \\right)=\n   \\left(\n     \\begin{array}[c]{c}\n       x_{2,k}{\\cdot}x_{1,k}\\\\\n       x_{2,k}\n     \\end{array}\n  \\right)+\\bdw_k,\\\\\n     z_k&amp;=\\left(1, 0\\right)\\bdx_k + v_k,\n\\end{align*}"
       word-spacing="normal"
       letter-spacing="normal"
       font-size-adjust="none"
       font-stretch="normal"
       font-weight="normal"
       font-variant="normal"
       font-style="normal"
       stroke-miterlimit="10.433"
       xml:space="preserve"
       transform="matrix(1,0,0,-1,-199.47,749.23)"
       id="content"
       style="font-style:normal;font-variant:normal;font-weight:normal;font-stretch:normal;letter-spacing:normal;word-spacing:normal;text-anchor:start;fill:none;stroke:#000000;stroke-linecap:butt;stroke-linejoin:miter;stroke-miterlimit:10.43299961;stroke-opacity:1;stroke-dasharray:none;stroke-dashoffset:0">
<path
   id="path4844"
   d="m 314.7,473.98 -0.02,-0.02 -0.02,-0.03 -0.02,-0.02 -0.01,-0.02 -0.02,-0.02 -0.02,-0.02 -0.01,-0.02 -0.02,-0.02 -0.03,-0.03 -0.03,-0.04 -0.02,-0.03 -0.03,-0.03 -0.02,-0.03 -0.03,-0.03 -0.02,-0.02 -0.02,-0.02 -0.02,-0.03 -0.02,-0.02 -0.02,-0.01 -0.02,-0.02 -0.01,-0.02 -0.02,-0.01 -0.02,-0.01 -0.01,-0.01 -0.02,-0.01 -0.02,-0.01 -0.01,-0.01 -0.02,-0.01 -0.01,0 -0.02,-0.01 -0.01,0 -0.02,0 -0.01,0 -0.02,-0.01 -0.02,0 -0.01,0 c -0.19,0 -0.29,0.15 -0.37,0.53 l -0.32,1.56 c 0.03,0.04 0.04,0.04 0.09,0.12 0.35,0.58 0.6,0.82 0.83,0.82 0.06,0 0.13,-0.03 0.25,-0.09 0.13,-0.09 0.2,-0.11 0.32,-0.11 0.29,0 0.55,0.24 0.55,0.52 0,0.33 -0.28,0.62 -0.58,0.62 -0.46,0 -0.77,-0.27 -1.57,-1.38 -0.18,0.85 -0.26,1.1 -0.45,1.38 l -1.66,-0.24 v -0.27 c 0.21,0.02 0.26,0.02 0.35,0.02 0.32,0 0.45,-0.18 0.55,-0.67 l 0.3,-1.53 -0.43,-0.7 c -0.2,-0.32 -0.31,-0.41 -0.48,-0.41 -0.06,0 -0.11,0.02 -0.21,0.08 -0.16,0.09 -0.28,0.13 -0.4,0.13 -0.31,0 -0.55,-0.25 -0.55,-0.56 0,-0.35 0.26,-0.59 0.64,-0.59 0.5,0 0.73,0.21 1.3,1.16 l 0.24,0.39 c 0.15,-0.75 0.23,-1.01 0.45,-1.28 0.12,-0.16 0.32,-0.27 0.52,-0.27 0.48,0 0.9,0.34 1.5,1.22 z"
   style="fill:#000000;stroke-width:0" />
<path
   id="path4846"
   d="m 319.37,472.08 -0.11,-0.2 c -0.14,-0.23 -0.23,-0.31 -0.34,-0.31 -0.16,0 -0.32,0.25 -0.62,0.97 -0.03,0.1 -0.15,0.37 -0.28,0.67 1.12,0.99 1.35,1.14 1.71,1.17 v 0.12 h -1.39 v -0.12 h 0.12 c 0.19,0 0.3,-0.06 0.3,-0.14 0,-0.15 -0.38,-0.52 -1.08,-1.06 -0.11,-0.08 -0.2,-0.16 -0.33,-0.25 l 0.91,3.46 -0.04,0.04 c -0.45,-0.1 -0.73,-0.16 -1.18,-0.21 v -0.12 c 0.36,0.01 0.51,-0.05 0.51,-0.19 -0.01,-0.13 -0.06,-0.33 -0.16,-0.68 -0.03,-0.11 -0.06,-0.19 -0.07,-0.25 l -0.02,-0.07 -0.96,-3.65 h 0.57 l 0.36,1.36 0.32,0.24 c 0.12,-0.33 0.32,-0.79 0.46,-1.07 0.24,-0.47 0.38,-0.62 0.59,-0.62 0.31,0 0.5,0.19 0.85,0.83 z"
   style="fill:#000000;stroke-width:0" />
<polygon
   id="polygon4848"
   points="322.82,475.67 322.82,473.34 320.48,473.34 320.48,472.96 322.82,472.96 322.82,470.63 323.2,470.63 323.2,472.96 325.54,472.96 325.54,473.34 323.2,473.34 323.2,475.67 "
   style="fill:#000000;stroke-width:0" />
<path
   id="path4850"
   d="m 328.16,476.37 -1.36,-0.69 v -0.1 c 0.09,0.04 0.17,0.07 0.2,0.08 0.14,0.05 0.27,0.08 0.34,0.08 0.16,0 0.23,-0.11 0.23,-0.35 v -3.43 c 0,-0.25 -0.06,-0.42 -0.18,-0.49 -0.12,-0.07 -0.22,-0.09 -0.54,-0.1 v -0.11 h 2.09 v 0.11 c -0.6,0.01 -0.72,0.08 -0.72,0.45 v 4.54 z"
   style="fill:#000000;stroke-width:0" />
<polygon
   id="polygon4852"
   points="333.57,476.37 333.57,475.81 340.23,475.81 340.23,476.37 "
   style="fill:#000000;stroke-width:0" />
<polygon
   id="polygon4854"
   points="333.57,474.36 333.57,473.8 340.23,473.8 340.23,474.36 "
   style="fill:#000000;stroke-width:0" />
<path
   id="path4856"
   d="m 349.96,487.2 -0.31,-0.27 -0.3,-0.28 -0.29,-0.29 -0.28,-0.29 -0.27,-0.31 -0.26,-0.31 -0.25,-0.32 -0.24,-0.33 -0.22,-0.33 -0.22,-0.35 -0.21,-0.34 -0.19,-0.36 -0.19,-0.36 -0.18,-0.36 -0.16,-0.37 -0.16,-0.38 -0.15,-0.37 -0.13,-0.39 -0.13,-0.38 -0.12,-0.39 -0.1,-0.4 -0.1,-0.39 -0.09,-0.4 -0.08,-0.4 -0.07,-0.4 -0.06,-0.41 -0.09,-0.8 -0.05,-0.82 -0.02,-0.81 c 0,-4.25 1.37,-9.55 4.86,-12.3 l 0.24,0.45 c -3.16,2.9 -3.39,8.05 -3.39,12.05 0,4.21 0.45,7.7 3.39,10.96 z"
   style="fill:#000000;stroke-width:0" />
<path
   id="path4858"
   d="m 354.55,479.94 -0.02,-0.02 -0.01,-0.02 -0.01,-0.01 -0.02,-0.02 -0.01,-0.01 -0.01,-0.02 -0.02,-0.01 -0.01,-0.02 -0.01,-0.01 -0.01,-0.02 -0.02,-0.02 -0.01,-0.01 -0.01,-0.01 -0.01,-0.01 0,-0.01 -0.01,-0.01 -0.01,-0.01 -0.01,-0.01 0,-0.01 -0.01,-0.01 c -0.23,-0.3 -0.35,-0.4 -0.46,-0.4 -0.15,0 -0.24,0.13 -0.31,0.41 -0.02,0.08 -0.03,0.14 -0.04,0.17 -0.25,1 -0.36,1.46 -0.36,1.61 0.44,0.77 0.8,1.21 0.98,1.21 0.06,0 0.14,-0.03 0.24,-0.08 0.12,-0.07 0.19,-0.09 0.27,-0.09 0.21,0 0.35,0.15 0.35,0.36 0,0.2 -0.17,0.36 -0.41,0.36 -0.44,0 -0.82,-0.36 -1.51,-1.42 l -0.11,0.55 c -0.14,0.67 -0.25,0.87 -0.52,0.87 -0.21,0 -0.55,-0.09 -1.16,-0.29 l -0.11,-0.04 0.04,-0.15 c 0.38,0.09 0.47,0.12 0.56,0.12 0.25,0 0.31,-0.09 0.45,-0.69 l 0.29,-1.23 -0.82,-1.16 c -0.2,-0.3 -0.4,-0.48 -0.51,-0.48 -0.06,0 -0.16,0.03 -0.26,0.09 -0.13,0.07 -0.24,0.1 -0.32,0.1 -0.19,0 -0.34,-0.15 -0.34,-0.35 0,-0.26 0.2,-0.42 0.5,-0.42 0.31,0 0.43,0.09 0.93,0.7 0.27,0.32 0.48,0.59 0.9,1.16 l 0.29,-1.19 c 0.13,-0.51 0.26,-0.67 0.58,-0.67 0.38,0 0.64,0.24 1.22,1.14 z"
   style="fill:#000000;stroke-width:0" />
<path
   id="path4860"
   d="m 357.46,482.45 -1.36,-0.69 v -0.11 c 0.09,0.04 0.17,0.07 0.2,0.09 0.14,0.05 0.27,0.08 0.35,0.08 0.15,0 0.22,-0.11 0.22,-0.36 v -3.43 c 0,-0.25 -0.06,-0.42 -0.18,-0.49 -0.11,-0.07 -0.22,-0.09 -0.54,-0.1 v -0.11 h 2.09 v 0.11 c -0.6,0.01 -0.72,0.09 -0.72,0.45 v 4.54 z"
   style="fill:#000000;stroke-width:0" />
<path
   id="path4862"
   d="m 359.59,476.07 0.11,0.03 0.05,0.02 0.05,0.03 0.05,0.02 0.05,0.02 0.05,0.03 0.05,0.03 0.05,0.02 0.05,0.03 0.04,0.03 0.05,0.04 0.04,0.03 0.04,0.03 0.04,0.04 0.04,0.04 0.04,0.03 0.04,0.04 0.03,0.05 0.03,0.04 0.03,0.04 0.03,0.05 0.02,0.04 0.03,0.05 0.02,0.05 0.02,0.05 0.01,0.06 0.02,0.05 0.01,0.06 0,0.05 0.01,0.06 0,0.06 c 0,0.37 -0.21,0.78 -0.62,0.78 -0.25,0 -0.48,-0.18 -0.48,-0.44 0,-0.25 0.15,-0.41 0.4,-0.41 0.13,0 0.23,0.11 0.31,0.11 0.06,0 0.09,-0.11 0.09,-0.15 0,-0.47 -0.38,-0.81 -0.8,-0.95 z"
   style="fill:#000000;stroke-width:0" />
<path
   id="path4864"
   d="m 364.69,478.15 -0.12,-0.19 c -0.13,-0.24 -0.22,-0.32 -0.34,-0.32 -0.16,0 -0.31,0.25 -0.61,0.98 -0.04,0.1 -0.15,0.37 -0.28,0.66 1.11,0.99 1.35,1.15 1.7,1.17 v 0.12 h -1.38 v -0.12 h 0.12 c 0.19,0 0.29,-0.05 0.29,-0.14 0,-0.15 -0.37,-0.52 -1.08,-1.06 -0.1,-0.08 -0.2,-0.16 -0.32,-0.25 l 0.9,3.46 -0.03,0.04 c -0.45,-0.1 -0.74,-0.15 -1.18,-0.2 v -0.12 c 0.36,0 0.5,-0.05 0.51,-0.19 -0.01,-0.13 -0.07,-0.34 -0.17,-0.69 -0.03,-0.1 -0.05,-0.18 -0.06,-0.25 l -0.02,-0.06 -0.96,-3.66 h 0.57 l 0.36,1.36 0.32,0.24 c 0.12,-0.33 0.32,-0.79 0.45,-1.06 0.24,-0.48 0.38,-0.62 0.6,-0.62 0.3,0 0.5,0.19 0.84,0.82 z"
   style="fill:#000000;stroke-width:0" />
<polygon
   id="polygon4866"
   points="368.13,481.74 368.13,479.41 365.79,479.41 365.79,479.03 368.13,479.03 368.13,476.7 368.51,476.7 368.51,479.03 370.84,479.03 370.84,479.41 368.51,479.41 368.51,481.74 "
   style="fill:#000000;stroke-width:0" />
<path
   id="path4868"
   d="m 373.48,482.45 -1.37,-0.69 v -0.11 c 0.09,0.04 0.18,0.07 0.21,0.09 0.13,0.05 0.26,0.08 0.34,0.08 0.16,0 0.23,-0.11 0.23,-0.36 v -3.43 c 0,-0.25 -0.06,-0.42 -0.19,-0.49 -0.11,-0.07 -0.22,-0.09 -0.53,-0.1 v -0.11 h 2.09 v 0.11 c -0.6,0.01 -0.72,0.09 -0.72,0.45 v 4.54 z"
   style="fill:#000000;stroke-width:0" />
<path
   id="path4870"
   d="m 354.55,467.98 -0.02,-0.02 -0.01,-0.01 -0.01,-0.02 -0.02,-0.01 -0.01,-0.02 -0.01,-0.01 -0.02,-0.02 -0.01,-0.01 -0.01,-0.02 -0.01,-0.01 -0.02,-0.02 -0.01,-0.02 -0.01,-0.01 -0.01,-0.01 0,-0.01 -0.01,-0.01 -0.01,-0.01 -0.01,-0.01 0,-0.01 -0.01,-0.01 c -0.23,-0.3 -0.35,-0.4 -0.46,-0.4 -0.15,0 -0.24,0.13 -0.31,0.41 -0.02,0.08 -0.03,0.14 -0.04,0.17 -0.25,1.01 -0.36,1.47 -0.36,1.62 0.44,0.76 0.8,1.2 0.98,1.2 0.06,0 0.14,-0.03 0.24,-0.08 0.12,-0.07 0.19,-0.09 0.27,-0.09 0.21,0 0.35,0.15 0.35,0.36 0,0.21 -0.17,0.37 -0.41,0.37 -0.44,0 -0.82,-0.36 -1.51,-1.43 l -0.11,0.55 c -0.14,0.68 -0.25,0.88 -0.52,0.88 -0.21,0 -0.55,-0.09 -1.16,-0.29 l -0.11,-0.04 0.04,-0.15 c 0.38,0.09 0.47,0.11 0.56,0.11 0.25,0 0.31,-0.09 0.45,-0.69 l 0.29,-1.22 -0.82,-1.17 c -0.2,-0.3 -0.4,-0.48 -0.51,-0.48 -0.06,0 -0.16,0.03 -0.26,0.09 -0.13,0.07 -0.24,0.1 -0.32,0.1 -0.19,0 -0.34,-0.15 -0.34,-0.35 0,-0.26 0.2,-0.41 0.5,-0.41 0.31,0 0.43,0.09 0.93,0.69 0.27,0.32 0.48,0.59 0.9,1.17 l 0.29,-1.2 c 0.13,-0.51 0.26,-0.66 0.58,-0.66 0.38,0 0.64,0.24 1.22,1.13 z"
   style="fill:#000000;stroke-width:0" />
<path
   id="path4872"
   d="m 358.86,466.41 -0.1,0.04 c -0.28,-0.43 -0.38,-0.5 -0.72,-0.5 h -1.81 l 1.27,1.33 c 0.67,0.71 0.97,1.28 0.97,1.87 0,0.76 -0.61,1.34 -1.4,1.34 -0.42,0 -0.81,-0.16 -1.09,-0.47 -0.24,-0.25 -0.36,-0.5 -0.49,-1.03 l 0.16,-0.04 c 0.31,0.74 0.58,0.98 1.1,0.98 0.64,0 1.07,-0.43 1.07,-1.06 0,-0.6 -0.35,-1.3 -0.99,-1.97 l -1.34,-1.43 v -0.09 h 2.95 z"
   style="fill:#000000;stroke-width:0" />
<path
   id="path4874"
   d="m 359.59,464.11 0.11,0.04 0.05,0.02 0.05,0.02 0.05,0.02 0.05,0.03 0.05,0.02 0.05,0.03 0.05,0.03 0.05,0.03 0.04,0.03 0.05,0.03 0.04,0.03 0.04,0.04 0.04,0.03 0.04,0.04 0.04,0.04 0.04,0.04 0.03,0.04 0.03,0.04 0.03,0.05 0.03,0.04 0.02,0.05 0.03,0.05 0.02,0.05 0.02,0.05 0.01,0.05 0.02,0.06 0.01,0.05 0,0.06 0.01,0.06 0,0.06 c 0,0.36 -0.21,0.78 -0.62,0.78 -0.25,0 -0.48,-0.19 -0.48,-0.44 0,-0.25 0.15,-0.41 0.4,-0.41 0.13,0 0.23,0.11 0.31,0.11 0.06,0 0.09,-0.11 0.09,-0.16 0,-0.47 -0.38,-0.81 -0.8,-0.94 z"
   style="fill:#000000;stroke-width:0" />
<path
   id="path4876"
   d="m 364.69,466.2 -0.12,-0.2 c -0.13,-0.23 -0.22,-0.32 -0.34,-0.32 -0.16,0 -0.31,0.25 -0.61,0.98 -0.04,0.1 -0.15,0.37 -0.28,0.67 1.11,0.99 1.35,1.14 1.7,1.16 v 0.13 h -1.38 v -0.13 h 0.12 c 0.19,0 0.29,-0.05 0.29,-0.13 0,-0.15 -0.37,-0.52 -1.08,-1.06 -0.1,-0.09 -0.2,-0.16 -0.32,-0.25 l 0.9,3.46 -0.03,0.04 c -0.45,-0.1 -0.74,-0.16 -1.18,-0.21 v -0.12 c 0.36,0.01 0.5,-0.05 0.51,-0.19 -0.01,-0.13 -0.07,-0.33 -0.17,-0.68 -0.03,-0.11 -0.05,-0.19 -0.06,-0.25 l -0.02,-0.07 -0.96,-3.65 h 0.57 l 0.36,1.36 0.32,0.24 c 0.12,-0.33 0.32,-0.8 0.45,-1.07 0.24,-0.47 0.38,-0.62 0.6,-0.62 0.3,0 0.5,0.19 0.84,0.83 z"
   style="fill:#000000;stroke-width:0" />
<polygon
   id="polygon4878"
   points="368.13,469.79 368.13,467.46 365.79,467.46 365.79,467.08 368.13,467.08 368.13,464.75 368.51,464.75 368.51,467.08 370.84,467.08 370.84,467.46 368.51,467.46 368.51,469.79 "
   style="fill:#000000;stroke-width:0" />
<path
   id="path4880"
   d="m 373.48,470.49 -1.37,-0.69 v -0.1 c 0.09,0.04 0.18,0.07 0.21,0.08 0.13,0.05 0.26,0.08 0.34,0.08 0.16,0 0.23,-0.11 0.23,-0.35 v -3.43 c 0,-0.25 -0.06,-0.43 -0.19,-0.49 -0.11,-0.07 -0.22,-0.09 -0.53,-0.1 v -0.11 h 2.09 v 0.11 c -0.6,0.01 -0.72,0.08 -0.72,0.44 v 4.55 z"
   style="fill:#000000;stroke-width:0" />
<path
   id="path4882"
   d="m 375.87,487.2 0.32,-0.27 0.3,-0.28 0.29,-0.29 0.28,-0.29 0.26,-0.31 0.26,-0.31 0.25,-0.32 0.24,-0.33 0.22,-0.33 0.22,-0.35 0.21,-0.34 0.2,-0.36 0.18,-0.36 0.18,-0.36 0.16,-0.37 0.16,-0.38 0.15,-0.37 0.13,-0.39 0.13,-0.38 0.12,-0.39 0.11,-0.4 0.09,-0.39 0.09,-0.4 0.08,-0.4 0.07,-0.4 0.06,-0.41 0.09,-0.8 0.06,-0.82 0.02,-0.81 c 0,-4.25 -1.38,-9.55 -4.87,-12.3 l -0.24,0.45 c 3.16,2.9 3.39,8.05 3.39,12.05 0,4.21 -0.45,7.7 -3.39,10.96 z"
   style="fill:#000000;stroke-width:0" />
<polygon
   id="polygon4884"
   points="385.61,476.37 385.61,475.81 392.26,475.81 392.26,476.37 "
   style="fill:#000000;stroke-width:0" />
<polygon
   id="polygon4886"
   points="385.61,474.36 385.61,473.8 392.26,473.8 392.26,474.36 "
   style="fill:#000000;stroke-width:0" />
<path
   id="path4888"
   d="m 401.99,487.2 -0.31,-0.27 -0.3,-0.28 -0.29,-0.29 -0.28,-0.29 -0.27,-0.31 -0.26,-0.31 -0.24,-0.32 -0.24,-0.33 -0.23,-0.33 -0.21,-0.35 -0.21,-0.34 -0.2,-0.36 -0.18,-0.36 -0.18,-0.36 -0.17,-0.37 -0.15,-0.38 -0.15,-0.37 -0.14,-0.39 -0.12,-0.38 -0.12,-0.39 -0.11,-0.4 -0.1,-0.39 -0.09,-0.4 -0.07,-0.4 -0.07,-0.4 -0.06,-0.41 -0.1,-0.8 -0.05,-0.82 -0.02,-0.81 c 0,-4.25 1.38,-9.55 4.86,-12.3 l 0.24,0.45 c -3.15,2.9 -3.38,8.05 -3.38,12.05 0,4.21 0.44,7.7 3.38,10.96 z"
   style="fill:#000000;stroke-width:0" />
<path
   id="path4890"
   d="m 411.56,479.94 -0.01,-0.02 -0.02,-0.02 -0.01,-0.01 -0.01,-0.02 -0.02,-0.01 -0.01,-0.02 -0.01,-0.01 -0.01,-0.02 -0.02,-0.01 -0.01,-0.02 -0.01,-0.02 -0.02,-0.01 0,-0.01 -0.01,-0.01 -0.01,-0.01 0,-0.01 -0.01,-0.01 -0.01,-0.01 -0.01,-0.01 -0.01,-0.01 c -0.23,-0.3 -0.35,-0.4 -0.45,-0.4 -0.15,0 -0.24,0.13 -0.31,0.41 -0.02,0.08 -0.03,0.14 -0.04,0.17 -0.25,1 -0.36,1.46 -0.36,1.61 0.44,0.77 0.8,1.21 0.97,1.21 0.06,0 0.14,-0.03 0.24,-0.08 0.12,-0.07 0.19,-0.09 0.27,-0.09 0.21,0 0.35,0.15 0.35,0.36 0,0.2 -0.17,0.36 -0.41,0.36 -0.44,0 -0.81,-0.36 -1.5,-1.42 l -0.11,0.55 c -0.14,0.67 -0.25,0.87 -0.52,0.87 -0.22,0 -0.56,-0.09 -1.17,-0.29 l -0.1,-0.04 0.03,-0.15 c 0.38,0.09 0.47,0.12 0.56,0.12 0.25,0 0.31,-0.09 0.45,-0.69 l 0.29,-1.23 -0.82,-1.16 c -0.2,-0.3 -0.39,-0.48 -0.51,-0.48 -0.06,0 -0.15,0.03 -0.25,0.09 -0.13,0.07 -0.24,0.1 -0.32,0.1 -0.19,0 -0.34,-0.15 -0.34,-0.35 0,-0.26 0.2,-0.42 0.5,-0.42 0.31,0 0.42,0.09 0.92,0.7 0.27,0.32 0.48,0.59 0.9,1.16 l 0.3,-1.19 c 0.13,-0.51 0.26,-0.67 0.58,-0.67 0.37,0 0.63,0.24 1.21,1.14 z"
   style="fill:#000000;stroke-width:0" />
<path
   id="path4892"
   d="m 415.87,478.37 -0.1,0.03 c -0.28,-0.43 -0.38,-0.5 -0.72,-0.5 h -1.81 l 1.28,1.34 c 0.67,0.7 0.96,1.28 0.96,1.87 0,0.75 -0.61,1.34 -1.4,1.34 -0.41,0 -0.81,-0.17 -1.09,-0.47 -0.24,-0.26 -0.35,-0.5 -0.48,-1.04 l 0.16,-0.04 c 0.3,0.75 0.57,0.99 1.1,0.99 0.63,0 1.06,-0.43 1.06,-1.07 0,-0.59 -0.34,-1.29 -0.98,-1.97 l -1.35,-1.43 v -0.09 h 2.95 z"
   style="fill:#000000;stroke-width:0" />
<path
   id="path4894"
   d="m 416.61,476.07 0.1,0.03 0.05,0.02 0.06,0.03 0.05,0.02 0.05,0.02 0.05,0.03 0.05,0.03 0.04,0.02 0.05,0.03 0.05,0.03 0.04,0.04 0.05,0.03 0.04,0.03 0.04,0.04 0.04,0.04 0.03,0.03 0.04,0.04 0.03,0.05 0.04,0.04 0.03,0.04 0.02,0.05 0.03,0.04 0.02,0.05 0.02,0.05 0.02,0.05 0.02,0.06 0.01,0.05 0.01,0.06 0.01,0.05 0,0.06 0.01,0.06 c 0,0.37 -0.22,0.78 -0.63,0.78 -0.25,0 -0.47,-0.18 -0.47,-0.44 0,-0.25 0.14,-0.41 0.39,-0.41 0.14,0 0.24,0.11 0.32,0.11 0.06,0 0.08,-0.11 0.08,-0.15 0,-0.47 -0.38,-0.81 -0.79,-0.95 z"
   style="fill:#000000;stroke-width:0" />
<path
   id="path4896"
   d="m 421.7,478.15 -0.11,-0.19 c -0.14,-0.24 -0.23,-0.32 -0.34,-0.32 -0.16,0 -0.32,0.25 -0.61,0.98 -0.04,0.1 -0.16,0.37 -0.29,0.66 1.12,0.99 1.35,1.15 1.71,1.17 v 0.12 h -1.39 v -0.12 h 0.12 c 0.19,0 0.3,-0.05 0.3,-0.14 0,-0.15 -0.38,-0.52 -1.08,-1.06 -0.11,-0.08 -0.2,-0.16 -0.33,-0.25 l 0.91,3.46 -0.04,0.04 c -0.44,-0.1 -0.73,-0.15 -1.18,-0.2 v -0.12 c 0.36,0 0.51,-0.05 0.52,-0.19 -0.02,-0.13 -0.07,-0.34 -0.17,-0.69 -0.03,-0.1 -0.05,-0.18 -0.07,-0.25 l -0.01,-0.06 -0.97,-3.66 h 0.57 l 0.37,1.36 0.31,0.24 c 0.12,-0.33 0.32,-0.79 0.46,-1.06 0.24,-0.48 0.38,-0.62 0.6,-0.62 0.3,0 0.5,0.19 0.84,0.82 z"
   style="fill:#000000;stroke-width:0" />
<path
   id="path4898"
   d="m 423.72,481.18 0,-0.03 0,-0.02 0,-0.03 0.01,-0.03 0,-0.02 0.01,-0.03 0.01,-0.02 0.01,-0.03 0.01,-0.02 0.01,-0.03 0.01,-0.02 0.02,-0.02 0.01,-0.02 0.02,-0.02 0.02,-0.02 0.01,-0.02 0.02,-0.02 0.02,-0.01 0.02,-0.02 0.02,-0.02 0.03,-0.01 0.02,-0.01 0.02,-0.01 0.02,-0.01 0.03,-0.01 0.02,-0.01 0.03,-0.01 0.03,-0.01 0.02,0 0.03,0 0.03,-0.01 0.03,0 c 0.29,0 0.54,0.24 0.54,0.54 0,0.3 -0.25,0.55 -0.54,0.55 -0.3,0 -0.54,-0.25 -0.54,-0.55 z"
   style="fill:#000000;stroke-width:0" />
<path
   id="path4900"
   d="m 429.92,479.94 -0.01,-0.02 -0.02,-0.02 -0.01,-0.01 -0.01,-0.02 -0.02,-0.01 -0.01,-0.02 -0.01,-0.01 -0.01,-0.02 -0.02,-0.01 -0.01,-0.02 -0.01,-0.02 -0.02,-0.01 0,-0.01 -0.01,-0.01 -0.01,-0.01 0,-0.01 -0.01,-0.01 -0.01,-0.01 -0.01,-0.01 -0.01,-0.01 c -0.23,-0.3 -0.34,-0.4 -0.46,-0.4 -0.14,0 -0.23,0.13 -0.3,0.41 -0.02,0.08 -0.03,0.14 -0.04,0.17 -0.25,1 -0.36,1.46 -0.36,1.61 0.44,0.77 0.79,1.21 0.97,1.21 0.06,0 0.14,-0.03 0.24,-0.08 0.12,-0.07 0.19,-0.09 0.27,-0.09 0.21,0 0.35,0.15 0.35,0.36 0,0.2 -0.17,0.36 -0.41,0.36 -0.44,0 -0.82,-0.36 -1.5,-1.42 l -0.11,0.55 c -0.14,0.67 -0.25,0.87 -0.52,0.87 -0.22,0 -0.56,-0.09 -1.16,-0.29 l -0.12,-0.04 0.05,-0.15 c 0.37,0.09 0.46,0.12 0.55,0.12 0.25,0 0.31,-0.09 0.45,-0.69 l 0.29,-1.23 -0.82,-1.16 c -0.2,-0.3 -0.4,-0.48 -0.5,-0.48 -0.06,0 -0.16,0.03 -0.26,0.09 -0.13,0.07 -0.24,0.1 -0.32,0.1 -0.19,0 -0.34,-0.15 -0.34,-0.35 0,-0.26 0.2,-0.42 0.5,-0.42 0.31,0 0.43,0.09 0.92,0.7 0.27,0.32 0.48,0.59 0.9,1.16 l 0.3,-1.19 c 0.13,-0.51 0.26,-0.67 0.58,-0.67 0.38,0 0.63,0.24 1.21,1.14 z"
   style="fill:#000000;stroke-width:0" />
<path
   id="path4902"
   d="m 432.83,482.45 -1.36,-0.69 v -0.11 c 0.09,0.04 0.17,0.07 0.2,0.09 0.14,0.05 0.27,0.08 0.34,0.08 0.16,0 0.23,-0.11 0.23,-0.36 v -3.43 c 0,-0.25 -0.06,-0.42 -0.18,-0.49 -0.11,-0.07 -0.22,-0.09 -0.54,-0.1 v -0.11 h 2.09 v 0.11 c -0.6,0.01 -0.72,0.09 -0.72,0.45 v 4.54 z"
   style="fill:#000000;stroke-width:0" />
<path
   id="path4904"
   d="m 434.97,476.07 0.1,0.03 0.05,0.02 0.06,0.03 0.05,0.02 0.05,0.02 0.05,0.03 0.05,0.03 0.04,0.02 0.05,0.03 0.05,0.03 0.04,0.04 0.05,0.03 0.04,0.03 0.04,0.04 0.04,0.04 0.03,0.03 0.04,0.04 0.03,0.05 0.04,0.04 0.03,0.04 0.02,0.05 0.03,0.04 0.02,0.05 0.02,0.05 0.02,0.05 0.02,0.06 0.01,0.05 0.01,0.06 0.01,0.05 0,0.06 0.01,0.06 c 0,0.37 -0.22,0.78 -0.62,0.78 -0.25,0 -0.48,-0.18 -0.48,-0.44 0,-0.25 0.14,-0.41 0.39,-0.41 0.14,0 0.24,0.11 0.32,0.11 0.06,0 0.08,-0.11 0.08,-0.15 0,-0.47 -0.38,-0.81 -0.79,-0.95 z"
   style="fill:#000000;stroke-width:0" />
<path
   id="path4906"
   d="m 440.05,478.15 -0.11,-0.19 c -0.14,-0.24 -0.23,-0.32 -0.34,-0.32 -0.16,0 -0.32,0.25 -0.61,0.98 -0.04,0.1 -0.15,0.37 -0.28,0.66 1.11,0.99 1.34,1.15 1.7,1.17 v 0.12 h -1.39 v -0.12 h 0.13 c 0.18,0 0.29,-0.05 0.29,-0.14 0,-0.15 -0.38,-0.52 -1.08,-1.06 -0.11,-0.08 -0.2,-0.16 -0.33,-0.25 l 0.91,3.46 -0.04,0.04 c -0.44,-0.1 -0.73,-0.15 -1.18,-0.2 v -0.12 c 0.37,0 0.51,-0.05 0.52,-0.19 -0.02,-0.13 -0.07,-0.34 -0.17,-0.69 -0.03,-0.1 -0.05,-0.18 -0.07,-0.25 l -0.01,-0.06 -0.96,-3.66 h 0.56 l 0.37,1.36 0.31,0.24 c 0.13,-0.33 0.32,-0.79 0.46,-1.06 0.24,-0.48 0.38,-0.62 0.6,-0.62 0.3,0 0.5,0.19 0.84,0.82 z"
   style="fill:#000000;stroke-width:0" />
<path
   id="path4908"
   d="m 420.74,467.98 -0.01,-0.02 -0.02,-0.01 -0.01,-0.02 -0.01,-0.01 -0.02,-0.02 -0.01,-0.01 -0.01,-0.02 -0.01,-0.01 -0.02,-0.02 -0.01,-0.01 -0.01,-0.02 -0.02,-0.02 0,-0.01 -0.01,-0.01 -0.01,-0.01 0,-0.01 -0.01,-0.01 -0.01,-0.01 -0.01,-0.01 -0.01,-0.01 c -0.23,-0.3 -0.35,-0.4 -0.45,-0.4 -0.15,0 -0.24,0.13 -0.31,0.41 -0.02,0.08 -0.03,0.14 -0.04,0.17 -0.25,1.01 -0.36,1.47 -0.36,1.62 0.44,0.76 0.79,1.2 0.97,1.2 0.06,0 0.14,-0.03 0.24,-0.08 0.12,-0.07 0.19,-0.09 0.27,-0.09 0.21,0 0.35,0.15 0.35,0.36 0,0.21 -0.17,0.37 -0.41,0.37 -0.44,0 -0.82,-0.36 -1.5,-1.43 l -0.11,0.55 c -0.14,0.68 -0.25,0.88 -0.52,0.88 -0.22,0 -0.56,-0.09 -1.17,-0.29 l -0.1,-0.04 0.04,-0.15 c 0.37,0.09 0.46,0.11 0.55,0.11 0.25,0 0.31,-0.09 0.45,-0.69 l 0.29,-1.22 -0.82,-1.17 c -0.2,-0.3 -0.4,-0.48 -0.5,-0.48 -0.06,0 -0.16,0.03 -0.26,0.09 -0.13,0.07 -0.24,0.1 -0.32,0.1 -0.19,0 -0.34,-0.15 -0.34,-0.35 0,-0.26 0.2,-0.41 0.5,-0.41 0.3,0 0.42,0.09 0.92,0.69 0.27,0.32 0.48,0.59 0.9,1.17 l 0.3,-1.2 c 0.13,-0.51 0.26,-0.66 0.58,-0.66 0.38,0 0.63,0.24 1.21,1.13 z"
   style="fill:#000000;stroke-width:0" />
<path
   id="path4910"
   d="m 425.04,466.41 -0.09,0.04 c -0.28,-0.43 -0.38,-0.5 -0.72,-0.5 h -1.81 l 1.27,1.33 c 0.67,0.71 0.97,1.28 0.97,1.87 0,0.76 -0.61,1.34 -1.4,1.34 -0.42,0 -0.81,-0.16 -1.09,-0.47 -0.25,-0.25 -0.36,-0.5 -0.49,-1.03 l 0.16,-0.04 c 0.3,0.74 0.58,0.98 1.1,0.98 0.64,0 1.07,-0.43 1.07,-1.06 0,-0.6 -0.35,-1.3 -0.99,-1.97 l -1.35,-1.43 v -0.09 h 2.96 z"
   style="fill:#000000;stroke-width:0" />
<path
   id="path4912"
   d="m 425.79,464.11 0.1,0.04 0.05,0.02 0.06,0.02 0.05,0.02 0.05,0.03 0.05,0.02 0.05,0.03 0.04,0.03 0.05,0.03 0.05,0.03 0.04,0.03 0.05,0.03 0.04,0.04 0.04,0.03 0.04,0.04 0.03,0.04 0.04,0.04 0.03,0.04 0.04,0.04 0.03,0.05 0.02,0.04 0.03,0.05 0.02,0.05 0.02,0.05 0.02,0.05 0.02,0.05 0.01,0.06 0.01,0.05 0.01,0.06 0,0.06 0.01,0.06 c 0,0.36 -0.22,0.78 -0.62,0.78 -0.25,0 -0.48,-0.19 -0.48,-0.44 0,-0.25 0.14,-0.41 0.39,-0.41 0.14,0 0.24,0.11 0.32,0.11 0.06,0 0.08,-0.11 0.08,-0.16 0,-0.47 -0.38,-0.81 -0.79,-0.94 z"
   style="fill:#000000;stroke-width:0" />
<path
   id="path4914"
   d="m 430.88,466.2 -0.12,-0.2 c -0.14,-0.23 -0.23,-0.32 -0.34,-0.32 -0.16,0 -0.32,0.25 -0.61,0.98 -0.04,0.1 -0.15,0.37 -0.28,0.67 1.11,0.99 1.35,1.14 1.7,1.16 v 0.13 h -1.38 v -0.13 h 0.12 c 0.18,0 0.29,-0.05 0.29,-0.13 0,-0.15 -0.38,-0.52 -1.08,-1.06 -0.11,-0.09 -0.2,-0.16 -0.33,-0.25 l 0.91,3.46 -0.04,0.04 c -0.44,-0.1 -0.73,-0.16 -1.18,-0.21 v -0.12 c 0.37,0.01 0.51,-0.05 0.52,-0.19 -0.02,-0.13 -0.07,-0.33 -0.17,-0.68 -0.03,-0.11 -0.05,-0.19 -0.07,-0.25 l -0.01,-0.07 -0.96,-3.65 h 0.56 l 0.37,1.36 0.32,0.24 c 0.12,-0.33 0.31,-0.8 0.45,-1.07 0.24,-0.47 0.38,-0.62 0.6,-0.62 0.3,0 0.5,0.19 0.84,0.83 z"
   style="fill:#000000;stroke-width:0" />
<path
   id="path4916"
   d="m 446.54,487.2 0.31,-0.27 0.3,-0.28 0.29,-0.29 0.28,-0.29 0.27,-0.31 0.26,-0.31 0.25,-0.32 0.23,-0.33 0.23,-0.33 0.22,-0.35 0.2,-0.34 0.2,-0.36 0.19,-0.36 0.17,-0.36 0.17,-0.37 0.16,-0.38 0.14,-0.37 0.14,-0.39 0.13,-0.38 0.11,-0.39 0.11,-0.4 0.1,-0.39 0.09,-0.4 0.08,-0.4 0.07,-0.4 0.06,-0.41 0.09,-0.8 0.05,-0.82 0.02,-0.81 c 0,-4.25 -1.37,-9.55 -4.86,-12.3 l -0.24,0.45 c 3.16,2.9 3.39,8.05 3.39,12.05 0,4.21 -0.45,7.7 -3.39,10.96 z"
   style="fill:#000000;stroke-width:0" />
<polygon
   id="polygon4918"
   points="458.79,478.56 458.79,475.49 455.71,475.49 455.71,475 458.79,475 458.79,471.93 459.29,471.93 459.29,475 462.36,475 462.36,475.49 459.29,475.49 459.29,478.56 "
   style="fill:#000000;stroke-width:0" />
<path
   id="path4920"
   d="m 470.19,477.36 h -1.16 l -0.59,-2.7 c -0.26,-1.21 -0.59,-1.28 -0.74,-1.28 -0.17,0 -0.25,0.16 -0.25,0.45 0,0.17 0.03,0.4 0.08,0.67 l 0.31,1.65 c 0.02,0.13 0.04,0.24 0.04,0.35 0,0.63 -0.42,0.86 -0.93,0.86 -0.61,0 -1.11,-0.5 -1.11,-0.95 0,-0.1 0.04,-0.18 0.07,-0.23 h 0.18 c 0.03,0.17 0.16,0.5 0.39,0.5 0.16,0 0.26,-0.11 0.26,-0.27 0,-0.08 -0.06,-0.37 -0.08,-0.45 l -0.23,-1.04 c -0.05,-0.22 -0.15,-0.84 -0.15,-1.06 0,-0.76 0.45,-1.24 1.15,-1.24 0.81,0 1.13,0.54 1.35,0.9 0.18,-0.6 0.51,-0.9 0.9,-0.9 1.61,0 2.25,2.4 2.25,3.73 0,0.4 -0.12,1.01 -0.64,1.01 -0.19,0 -0.52,-0.11 -0.52,-0.4 0,-0.42 0.46,-0.38 0.46,-1.24 0,-1.33 -0.86,-2.34 -1.19,-2.34 -0.27,0 -0.39,0.26 -0.39,0.77 0,0.33 0.05,0.76 0.15,1.28 z"
   style="fill:#000000;stroke-width:0" />
<path
   id="path4922"
   d="m 475.85,472.08 -0.12,-0.2 c -0.13,-0.23 -0.23,-0.31 -0.34,-0.31 -0.16,0 -0.32,0.25 -0.61,0.97 -0.04,0.1 -0.15,0.37 -0.28,0.67 1.11,0.99 1.35,1.14 1.7,1.17 v 0.12 h -1.38 v -0.12 h 0.12 c 0.18,0 0.29,-0.06 0.29,-0.14 0,-0.15 -0.38,-0.52 -1.08,-1.06 -0.11,-0.08 -0.2,-0.16 -0.33,-0.25 l 0.91,3.46 -0.04,0.04 c -0.44,-0.1 -0.73,-0.16 -1.18,-0.21 v -0.12 c 0.37,0.01 0.51,-0.05 0.52,-0.19 -0.02,-0.13 -0.07,-0.33 -0.17,-0.68 -0.03,-0.11 -0.05,-0.19 -0.07,-0.25 l -0.01,-0.07 -0.96,-3.65 h 0.56 l 0.37,1.36 0.32,0.24 c 0.12,-0.33 0.31,-0.79 0.45,-1.07 0.24,-0.47 0.38,-0.62 0.6,-0.62 0.3,0 0.5,0.19 0.84,0.83 z"
   style="fill:#000000;stroke-width:0" />
<path
   id="path4924"
   d="m 477.75,471.09 0.14,0.05 0.07,0.03 0.06,0.03 0.07,0.03 0.07,0.03 0.06,0.03 0.07,0.04 0.06,0.03 0.06,0.04 0.06,0.04 0.06,0.05 0.06,0.04 0.05,0.04 0.06,0.05 0.05,0.05 0.05,0.05 0.04,0.05 0.05,0.06 0.04,0.05 0.04,0.06 0.04,0.06 0.03,0.06 0.03,0.07 0.03,0.06 0.02,0.07 0.02,0.07 0.02,0.07 0.02,0.07 0.01,0.08 0,0.08 0,0.07 c 0,0.48 -0.27,1.03 -0.81,1.03 -0.33,0 -0.63,-0.24 -0.63,-0.58 0,-0.32 0.19,-0.53 0.52,-0.53 0.18,0 0.31,0.14 0.42,0.14 0.08,0 0.11,-0.14 0.11,-0.2 0,-0.62 -0.5,-1.07 -1.05,-1.25 z"
   style="fill:#000000;stroke-width:0" />
<path
   id="path4926"
   d="m 322.47,454.02 0.02,0.04 0.02,0.04 0.01,0.05 0.02,0.03 0.02,0.04 0.02,0.04 0.02,0.03 0.02,0.03 0.01,0.03 0.02,0.02 0.02,0.03 0.02,0.02 0.02,0.02 0.02,0.02 0.02,0.02 0.02,0.02 0.03,0.01 0.02,0.02 0.02,0.01 0.03,0.01 0.02,0.01 0.03,0.01 0.03,0.01 0.03,0 0.03,0.01 0.03,0 0.04,0.01 0.03,0 0.04,0 0.04,0 0.04,0 0.04,0 h 1.46 l -3.09,-3.7 0.09,-0.09 c 0.16,0.13 0.29,0.18 0.46,0.18 0.24,0 0.57,-0.13 1.03,-0.42 0.5,-0.31 0.84,-0.44 1.12,-0.44 0.5,0 0.94,0.36 0.94,0.76 0,0.21 -0.14,0.36 -0.35,0.36 -0.2,0 -0.34,-0.13 -0.34,-0.31 0,-0.09 0.03,-0.19 0.09,-0.3 0.03,-0.06 0.05,-0.12 0.05,-0.15 0,-0.09 -0.11,-0.15 -0.27,-0.15 -0.25,0 -0.37,0.08 -0.7,0.5 -0.44,0.57 -0.63,0.7 -1.2,0.83 l 2.89,3.42 v 0.11 h -2.83 l -0.31,-1.14 z"
   style="fill:#000000;stroke-width:0" />
<path
   id="path4928"
   d="m 329.06,450.26 -0.11,-0.19 c -0.14,-0.24 -0.23,-0.32 -0.34,-0.32 -0.16,0 -0.32,0.25 -0.62,0.98 -0.03,0.09 -0.15,0.37 -0.28,0.66 1.12,0.99 1.35,1.14 1.71,1.17 v 0.12 h -1.39 v -0.12 h 0.12 c 0.19,0 0.3,-0.06 0.3,-0.14 0,-0.15 -0.38,-0.52 -1.08,-1.06 -0.11,-0.08 -0.2,-0.16 -0.33,-0.25 l 0.91,3.46 -0.04,0.04 c -0.45,-0.1 -0.73,-0.15 -1.18,-0.21 v -0.12 c 0.36,0.01 0.51,-0.04 0.51,-0.19 -0.01,-0.13 -0.06,-0.33 -0.16,-0.68 -0.03,-0.1 -0.06,-0.19 -0.07,-0.25 l -0.02,-0.06 -0.96,-3.66 h 0.57 l 0.36,1.36 0.32,0.24 c 0.12,-0.33 0.32,-0.79 0.46,-1.06 0.24,-0.48 0.38,-0.63 0.59,-0.63 0.31,0 0.5,0.19 0.85,0.83 z"
   style="fill:#000000;stroke-width:0" />
<polygon
   id="polygon4930"
   points="333.57,454.55 333.57,454 340.23,454 340.23,454.55 "
   style="fill:#000000;stroke-width:0" />
<polygon
   id="polygon4932"
   points="333.57,452.54 333.57,451.98 340.23,451.98 340.23,452.54 "
   style="fill:#000000;stroke-width:0" />
<path
   id="path4934"
   d="m 347.12,449.12 -0.14,0.1 -0.14,0.11 -0.12,0.1 -0.12,0.12 -0.11,0.11 -0.11,0.12 -0.09,0.12 -0.1,0.12 -0.08,0.13 -0.08,0.13 -0.08,0.13 -0.06,0.13 -0.07,0.14 -0.06,0.14 -0.05,0.14 -0.05,0.14 -0.04,0.14 -0.04,0.15 -0.04,0.15 -0.03,0.15 -0.02,0.15 -0.03,0.15 -0.02,0.16 -0.02,0.15 -0.02,0.32 -0.02,0.32 -0.01,0.32 0,0.33 c 0,1.51 0.28,3.39 1.75,4.19 v 0.21 c -1.74,-0.77 -2.69,-2.69 -2.69,-4.53 0,-1.91 0.96,-3.66 2.69,-4.52 z"
   style="fill:#000000;stroke-width:0" />
<path
   id="path4936"
   d="m 350.16,457.67 -1.79,-0.9 v -0.14 c 0.12,0.05 0.23,0.09 0.27,0.11 0.18,0.06 0.35,0.11 0.45,0.11 0.21,0 0.3,-0.15 0.3,-0.47 v -4.52 c 0,-0.32 -0.08,-0.55 -0.24,-0.64 -0.15,-0.09 -0.29,-0.12 -0.71,-0.13 v -0.15 h 2.75 v 0.15 c -0.79,0.01 -0.95,0.11 -0.95,0.58 v 5.98 z"
   style="fill:#000000;stroke-width:0" />
<path
   id="path4938"
   d="m 352.97,449.27 0.14,0.05 0.07,0.03 0.07,0.03 0.06,0.03 0.07,0.03 0.06,0.04 0.07,0.03 0.06,0.04 0.06,0.04 0.06,0.04 0.06,0.04 0.06,0.04 0.06,0.05 0.05,0.04 0.05,0.05 0.05,0.05 0.05,0.06 0.04,0.05 0.04,0.06 0.04,0.05 0.04,0.06 0.03,0.07 0.03,0.06 0.03,0.06 0.03,0.07 0.02,0.07 0.02,0.07 0.01,0.08 0.01,0.07 0,0.08 0.01,0.08 c 0,0.48 -0.28,1.02 -0.82,1.02 -0.33,0 -0.63,-0.24 -0.63,-0.57 0,-0.33 0.19,-0.54 0.52,-0.54 0.18,0 0.31,0.14 0.42,0.14 0.08,0 0.11,-0.14 0.11,-0.2 0,-0.62 -0.5,-1.07 -1.05,-1.25 z"
   style="fill:#000000;stroke-width:0" />
<path
   id="path4940"
   d="m 359.73,457.67 -0.05,0 -0.05,0 -0.05,0 -0.05,-0.01 -0.04,0 -0.05,-0.01 -0.05,0 -0.04,-0.01 -0.05,-0.01 -0.05,-0.01 -0.04,-0.01 -0.04,-0.01 -0.05,-0.01 -0.04,-0.02 -0.04,-0.01 -0.04,-0.02 -0.04,-0.01 -0.04,-0.02 -0.04,-0.02 -0.04,-0.02 -0.04,-0.02 -0.04,-0.02 -0.04,-0.02 -0.03,-0.03 -0.04,-0.02 -0.04,-0.03 -0.04,-0.03 -0.03,-0.02 -0.04,-0.03 -0.03,-0.03 -0.04,-0.03 -0.03,-0.04 c -0.58,-0.55 -0.96,-1.7 -0.96,-2.86 0,-1.09 0.33,-2.26 0.8,-2.81 0.37,-0.44 0.87,-0.68 1.45,-0.68 v 0.26 c -0.85,0 -1.29,1.06 -1.29,3.14 0,2.11 0.45,3.21 1.3,3.21 h 0 c 0.84,0 1.29,-1.12 1.29,-3.21 0,-2.08 -0.44,-3.14 -1.3,-3.14 v -0.26 c 0.51,0 0.94,0.17 1.3,0.52 0.58,0.54 0.96,1.7 0.96,2.91 0,2.04 -0.91,3.44 -2.22,3.44 z"
   style="fill:#000000;stroke-width:0" />
<path
   id="path4942"
   d="m 362.41,457.58 0.06,-0.04 0.06,-0.04 0.06,-0.04 0.06,-0.05 0.05,-0.04 0.06,-0.05 0.05,-0.04 0.05,-0.05 0.05,-0.04 0.05,-0.05 0.04,-0.04 0.05,-0.05 0.04,-0.04 0.05,-0.05 0.04,-0.05 0.04,-0.04 c 0.2,-0.25 0.36,-0.51 0.47,-0.78 0.12,-0.27 0.22,-0.63 0.31,-1.08 0.1,-0.56 0.16,-1.2 0.16,-1.89 0,-0.64 -0.07,-1.25 -0.19,-1.84 -0.13,-0.59 -0.32,-1.07 -0.58,-1.46 -0.25,-0.37 -0.58,-0.67 -0.98,-0.9 v -0.18 c 0.81,0.36 1.45,0.94 1.95,1.78 0.49,0.83 0.74,1.75 0.74,2.75 0,0.69 -0.13,1.36 -0.38,1.99 -0.25,0.64 -0.61,1.19 -1.08,1.67 -0.32,0.33 -0.73,0.62 -1.23,0.85 z"
   style="fill:#000000;stroke-width:0" />
<path
   id="path4944"
   d="m 372.01,452.16 -0.02,-0.02 -0.02,-0.02 -0.01,-0.02 -0.02,-0.03 -0.02,-0.02 -0.01,-0.02 -0.02,-0.02 -0.01,-0.02 -0.03,-0.03 -0.03,-0.04 -0.03,-0.03 -0.02,-0.03 -0.03,-0.03 -0.02,-0.02 -0.02,-0.03 -0.02,-0.02 -0.03,-0.02 -0.02,-0.02 -0.01,-0.02 -0.02,-0.02 -0.02,-0.01 -0.02,-0.02 -0.01,-0.01 -0.02,-0.01 -0.02,-0.01 -0.01,-0.01 -0.02,-0.01 -0.01,0 -0.02,-0.01 -0.01,0 -0.02,-0.01 -0.01,0 -0.02,0 -0.01,0 -0.02,0 -0.02,0 c -0.19,0 -0.29,0.15 -0.37,0.52 l -0.32,1.56 c 0.03,0.04 0.05,0.05 0.09,0.13 0.35,0.57 0.6,0.81 0.83,0.81 0.06,0 0.13,-0.03 0.25,-0.09 0.14,-0.09 0.21,-0.11 0.32,-0.11 0.3,0 0.56,0.24 0.56,0.52 0,0.33 -0.28,0.62 -0.58,0.62 -0.47,0 -0.78,-0.27 -1.57,-1.37 -0.18,0.84 -0.26,1.09 -0.45,1.37 l -1.67,-0.24 v -0.27 c 0.21,0.02 0.26,0.02 0.35,0.02 0.32,0 0.46,-0.18 0.56,-0.66 l 0.3,-1.54 -0.44,-0.7 c -0.2,-0.32 -0.31,-0.41 -0.48,-0.41 -0.06,0 -0.11,0.02 -0.21,0.08 -0.16,0.09 -0.28,0.13 -0.4,0.13 -0.3,0 -0.54,-0.25 -0.54,-0.55 0,-0.35 0.26,-0.59 0.63,-0.59 0.5,0 0.73,0.2 1.31,1.15 l 0.24,0.39 c 0.15,-0.74 0.23,-1 0.45,-1.28 0.12,-0.16 0.32,-0.26 0.51,-0.26 0.48,0 0.9,0.34 1.51,1.21 z"
   style="fill:#000000;stroke-width:0" />
<path
   id="path4946"
   d="m 376.69,450.26 -0.12,-0.19 c -0.13,-0.24 -0.22,-0.32 -0.34,-0.32 -0.16,0 -0.31,0.25 -0.61,0.98 -0.04,0.09 -0.15,0.37 -0.28,0.66 1.11,0.99 1.35,1.14 1.7,1.17 v 0.12 h -1.38 v -0.12 h 0.12 c 0.19,0 0.29,-0.06 0.29,-0.14 0,-0.15 -0.37,-0.52 -1.08,-1.06 -0.1,-0.08 -0.2,-0.16 -0.32,-0.25 l 0.9,3.46 -0.03,0.04 c -0.45,-0.1 -0.74,-0.15 -1.18,-0.21 v -0.12 c 0.36,0.01 0.5,-0.04 0.51,-0.19 -0.01,-0.13 -0.07,-0.33 -0.17,-0.68 -0.03,-0.1 -0.05,-0.19 -0.06,-0.25 l -0.02,-0.06 -0.96,-3.66 h 0.57 l 0.36,1.36 0.32,0.24 c 0.12,-0.33 0.32,-0.79 0.45,-1.06 0.24,-0.48 0.38,-0.63 0.6,-0.63 0.3,0 0.5,0.19 0.84,0.83 z"
   style="fill:#000000;stroke-width:0" />
<polygon
   id="polygon4948"
   points="383.71,456.75 383.71,453.68 380.64,453.68 380.64,453.18 383.71,453.18 383.71,450.11 384.21,450.11 384.21,453.18 387.29,453.18 387.29,453.68 384.21,453.68 384.21,456.75 "
   style="fill:#000000;stroke-width:0" />
<polygon
   id="polygon4950"
   points="398.25,454.95 398.25,454.94 398.25,454.94 398.25,454.93 398.25,454.92 398.25,454.92 398.25,454.91 398.25,454.9 398.25,454.9 398.25,454.89 398.25,454.89 398.25,454.88 398.26,454.99 398.26,454.99 398.26,454.98 398.26,454.98 398.26,454.97 398.26,454.96 398.25,454.96 "
   style="fill:#000000;stroke-width:0" />
<path
   id="path4952"
   d="m 390.48,454.18 0.01,0.02 0.01,0.02 0.01,0.02 0.02,0.02 0.01,0.02 0.02,0.02 0.02,0.02 0.02,0.03 0.02,0.02 0.02,0.03 0.02,0.02 0.02,0.03 0.04,0.05 0.04,0.05 0.03,0.02 0.02,0.03 0.02,0.02 0.02,0.02 0.03,0.02 0.02,0.02 0.02,0.02 0.03,0.02 0.02,0.02 0.02,0.01 0.03,0.01 0.02,0.01 0.02,0.01 0.02,0.01 0.02,0 0.01,0 0.01,0 c 0.1,0 0.15,-0.05 0.15,-0.15 0,-0.13 -0.04,-0.26 -0.08,-0.38 -0.14,-0.51 -0.58,-1.79 -0.58,-2.41 0,-0.71 0.66,-1.03 1.3,-1.03 1.41,0 2.38,1.52 2.38,2.82 0,0.95 -0.47,1.54 -1.42,1.7 l -0.03,-0.19 c 0.7,-0.12 0.88,-0.7 0.88,-1.32 0,-0.7 -0.18,-1.37 -0.57,-1.95 -0.27,-0.4 -0.67,-0.85 -1.21,-0.85 -0.42,0 -0.62,0.34 -0.62,0.72 0,0.24 0.07,0.51 0.14,0.74 l 0.52,1.74 c 0.06,0.2 0.13,0.45 0.13,0.67 0,0.29 -0.14,0.44 -0.43,0.44 -0.59,0 -1.07,-0.62 -1.35,-1.05 z"
   style="fill:#000000;stroke-width:0" />
<path
   id="path4954"
   d="m 398.05,450.26 -0.12,-0.19 c -0.13,-0.24 -0.22,-0.32 -0.34,-0.32 -0.16,0 -0.32,0.25 -0.61,0.98 -0.04,0.09 -0.15,0.37 -0.28,0.66 1.11,0.99 1.35,1.14 1.7,1.17 v 0.12 h -1.38 v -0.12 h 0.12 c 0.19,0 0.29,-0.06 0.29,-0.14 0,-0.15 -0.38,-0.52 -1.08,-1.06 -0.11,-0.08 -0.2,-0.16 -0.32,-0.25 l 0.9,3.46 -0.03,0.04 c -0.45,-0.1 -0.74,-0.15 -1.19,-0.21 v -0.12 c 0.37,0.01 0.51,-0.04 0.52,-0.19 -0.02,-0.13 -0.07,-0.33 -0.17,-0.68 -0.03,-0.1 -0.05,-0.19 -0.07,-0.25 l -0.01,-0.06 -0.96,-3.66 h 0.57 l 0.36,1.36 0.32,0.24 c 0.12,-0.33 0.32,-0.79 0.45,-1.06 0.24,-0.48 0.38,-0.63 0.6,-0.63 0.3,0 0.5,0.19 0.84,0.83 z"
   style="fill:#000000;stroke-width:0" />
<path
   id="path4956"
   d="m 399.96,449.27 0.14,0.05 0.07,0.03 0.06,0.03 0.07,0.03 0.07,0.03 0.06,0.04 0.07,0.03 0.06,0.04 0.06,0.04 0.06,0.04 0.06,0.04 0.06,0.04 0.05,0.05 0.06,0.04 0.05,0.05 0.05,0.05 0.04,0.06 0.05,0.05 0.04,0.06 0.04,0.05 0.04,0.06 0.03,0.07 0.03,0.06 0.03,0.06 0.02,0.07 0.02,0.07 0.02,0.07 0.02,0.08 0.01,0.07 0,0.08 0,0.08 c 0,0.48 -0.28,1.02 -0.81,1.02 -0.33,0 -0.63,-0.24 -0.63,-0.57 0,-0.33 0.19,-0.54 0.52,-0.54 0.18,0 0.31,0.14 0.42,0.14 0.08,0 0.11,-0.14 0.11,-0.2 0,-0.62 -0.5,-1.07 -1.05,-1.25 z"
   style="fill:#000000;stroke-width:0" />
</g>  </g>
</svg>
