<?xml version="1.0" encoding="UTF-8" standalone="no"?>
<!-- Created with Inkscape (http://www.inkscape.org/) -->

<svg
   xmlns:ns0="http://www.iki.fi/pav/software/textext/"
   xmlns:dc="http://purl.org/dc/elements/1.1/"
   xmlns:cc="http://creativecommons.org/ns#"
   xmlns:rdf="http://www.w3.org/1999/02/22-rdf-syntax-ns#"
   xmlns:svg="http://www.w3.org/2000/svg"
   xmlns="http://www.w3.org/2000/svg"
   xmlns:sodipodi="http://sodipodi.sourceforge.net/DTD/sodipodi-0.dtd"
   xmlns:inkscape="http://www.inkscape.org/namespaces/inkscape"
   width="165"
   height="24"
   id="svg2"
   inkscape:label="Pozadí"
   version="1.1"
   inkscape:version="0.47 r22583"
   sodipodi:docname="ex2-measurement-pdf.svg"
   inkscape:export-filename="/localhome/flidr/matlab/IDM-toolboxes/nft/nef/trunk/help/html/graphics/ex1-system.png"
   inkscape:export-xdpi="120"
   inkscape:export-ydpi="120">
  <sodipodi:namedview
     id="base"
     pagecolor="#ffffff"
     bordercolor="#666666"
     borderopacity="1.0"
     inkscape:pageopacity="0.0"
     inkscape:pageshadow="2"
     inkscape:zoom="4.6091935"
     inkscape:cx="81.52"
     inkscape:cy="-0.59"
     inkscape:document-units="px"
     inkscape:current-layer="layer1"
     showgrid="false"
     inkscape:window-width="1472"
     inkscape:window-height="944"
     inkscape:window-x="0"
     inkscape:window-y="0"
     inkscape:window-maximized="0" />
  <defs
     id="defs3">
    <inkscape:perspective
       id="perspective9"
       inkscape:persp3d-origin="372.04724 : 350.78739 : 1"
       inkscape:vp_z="744.09448 : 526.18109 : 1"
       inkscape:vp_y="0 : 1000 : 0"
       inkscape:vp_x="0 : 526.18109 : 1"
       sodipodi:type="inkscape:persp3d" />
  </defs>
  <metadata
     id="metadata6">
    <rdf:RDF>
      <cc:Work
         rdf:about="">
        <dc:format>image/svg+xml</dc:format>
        <dc:type
           rdf:resource="http://purl.org/dc/dcmitype/StillImage" />
        <dc:title />
      </cc:Work>
    </rdf:RDF>
  </metadata>
  <g
     transform="translate(-115.46,-260.085)"
     id="layer1"
     inkscape:groupmode="layer"
     inkscape:label="Vrstva 1">
    <g
       style="font-style:normal;font-variant:normal;font-weight:normal;font-stretch:normal;letter-spacing:normal;word-spacing:normal;text-anchor:start;fill:none;stroke:#000000;stroke-linecap:butt;stroke-linejoin:miter;stroke-miterlimit:10.43299961;stroke-opacity:1;stroke-dasharray:none;stroke-dashoffset:0"
       ns0:preamble="/localhome/flidr/matlab/IDM-toolboxes/nft/nef/trunk/help/html/graphics/src/preamble.inc"
       ns0:text="\\begin{align*}\n   p(\\bdz_{k}|\\bdx_k)=\\mathcal{N}\n   \\left\\{\\bdz_{k};\\tan^{-1}(\\frac{y_k}{x_k}),0.0001\\right\\}.\n\\end{align*}"
       word-spacing="normal"
       letter-spacing="normal"
       font-size-adjust="none"
       font-stretch="normal"
       font-weight="normal"
       font-variant="normal"
       font-style="normal"
       stroke-miterlimit="10.433"
       xml:space="preserve"
       transform="matrix(1,0,0,-1,-197.105,747.33)"
       id="content">
<path
   id="path3435"
   d="m 313.87,476.78 h 0.23 c 0,0 0.02,0 0.03,0.01 0.13,0.06 0.39,-0.13 0.39,-0.28 0,-0.09 -0.36,-1.5 -0.71,-2.82 -0.27,-0.99 -0.51,-1.94 -0.58,-2.23 -0.11,-0.46 -0.24,-0.58 -0.66,-0.59 v -0.16 h 2.04 v 0.15 c -0.47,0 -0.64,0.09 -0.64,0.3 0,0.14 0.17,0.92 0.37,1.66 0.25,-0.14 0.43,-0.18 0.66,-0.18 l -0.04,0.19 c -0.28,0 -0.48,0.15 -0.48,0.37 0,0.34 0.36,1.65 0.65,2.38 0.26,0.68 0.84,1.17 1.34,1.14 h 0 c 0.43,-0.02 0.62,-0.28 0.62,-0.86 0,-0.65 -0.29,-1.51 -0.72,-2.13 -0.42,-0.59 -0.9,-0.9 -1.41,-0.9 l 0.04,-0.19 c 1.45,0 2.98,1.68 2.98,3.26 0,0.78 -0.43,1.25 -1.14,1.25 -0.65,0 -1.13,-0.32 -1.7,-1.13 l 0.28,1 0.03,0.09 c 0,0 0,0.01 -0.02,0.03 l -0.01,0.01 c 0,0.01 -0.02,0.01 -0.02,0.01 l -0.01,-0.01 -1.54,-0.22 z"
   style="fill:#000000;stroke-width:0" />
<path
   id="path3437"
   d="m 322.17,471 -0.14,0.1 -0.13,0.11 -0.13,0.11 -0.11,0.11 -0.12,0.12 -0.1,0.11 -0.1,0.12 -0.09,0.13 -0.09,0.12 -0.08,0.13 -0.07,0.13 -0.07,0.14 -0.06,0.13 -0.06,0.14 -0.05,0.14 -0.05,0.14 -0.05,0.15 -0.03,0.14 -0.04,0.15 -0.03,0.15 -0.03,0.15 -0.02,0.16 -0.02,0.15 -0.02,0.16 -0.03,0.31 -0.02,0.32 -0.01,0.33 0,0.33 c 0,1.51 0.29,3.38 1.75,4.19 v 0.21 c -1.74,-0.78 -2.69,-2.69 -2.69,-4.53 0,-1.92 0.96,-3.66 2.69,-4.53 z"
   style="fill:#000000;stroke-width:0" />
<path
   id="path3439"
   d="m 323.04,475.69 0.27,-0.03 c 0.17,0.46 0.33,0.61 0.63,0.61 h 1.45 l -2.91,-3.53 0.25,-0.21 c 0.07,0.06 0.16,0.11 0.19,0.14 0.14,0.1 0.21,0.13 0.32,0.13 0.18,0 0.38,-0.09 0.73,-0.32 0.54,-0.36 0.91,-0.5 1.31,-0.5 0.6,0 1.07,0.4 1.07,0.91 0,0.27 -0.25,0.51 -0.53,0.51 -0.27,0 -0.49,-0.24 -0.49,-0.51 0,-0.12 0.04,-0.19 0.12,-0.31 0.06,-0.07 0.07,-0.12 0.07,-0.15 0,-0.09 -0.09,-0.16 -0.21,-0.16 -0.18,0 -0.3,0.12 -0.47,0.46 -0.32,0.61 -0.56,0.84 -1.07,1.06 l 2.8,3.34 v 0.1 h -3.11 z"
   style="fill:#000000;stroke-width:0" />
<path
   id="path3441"
   d="m 330.28,472.08 -0.12,-0.2 c -0.13,-0.23 -0.22,-0.31 -0.34,-0.31 -0.16,0 -0.31,0.25 -0.61,0.97 -0.04,0.1 -0.15,0.37 -0.28,0.67 1.11,0.99 1.35,1.14 1.7,1.17 v 0.12 h -1.38 v -0.12 h 0.12 c 0.19,0 0.29,-0.06 0.29,-0.14 0,-0.15 -0.37,-0.52 -1.08,-1.06 -0.1,-0.08 -0.2,-0.16 -0.32,-0.25 l 0.9,3.46 -0.03,0.04 c -0.45,-0.1 -0.74,-0.16 -1.18,-0.21 v -0.12 c 0.36,0.01 0.5,-0.05 0.51,-0.19 -0.01,-0.13 -0.07,-0.33 -0.17,-0.68 -0.03,-0.11 -0.05,-0.19 -0.06,-0.25 l -0.02,-0.07 -0.96,-3.65 h 0.57 l 0.36,1.36 0.32,0.24 c 0.12,-0.33 0.32,-0.79 0.45,-1.07 0.24,-0.47 0.38,-0.62 0.6,-0.62 0.3,0 0.5,0.19 0.84,0.83 z"
   style="fill:#000000;stroke-width:0" />
<polygon
   id="polygon3443"
   points="333.13,470.95 333.13,479.41 332.63,479.41 332.63,470.95 "
   style="fill:#000000;stroke-width:0" />
<path
   id="path3445"
   d="m 338.75,473.98 -0.02,-0.02 -0.02,-0.03 -0.01,-0.02 -0.02,-0.02 -0.02,-0.02 -0.01,-0.02 -0.02,-0.02 -0.02,-0.02 -0.02,-0.03 -0.03,-0.04 -0.03,-0.03 -0.03,-0.03 -0.02,-0.03 -0.02,-0.03 -0.03,-0.02 -0.02,-0.02 -0.02,-0.03 -0.02,-0.02 -0.02,-0.01 -0.01,-0.02 -0.02,-0.02 -0.02,-0.01 -0.02,-0.01 -0.01,-0.01 -0.02,-0.01 -0.01,-0.01 -0.02,-0.01 -0.01,-0.01 -0.02,0 -0.02,-0.01 -0.01,0 -0.02,0 -0.01,0 -0.02,-0.01 -0.01,0 -0.02,0 c -0.19,0 -0.29,0.15 -0.37,0.53 l -0.32,1.56 c 0.03,0.04 0.04,0.04 0.09,0.12 0.35,0.58 0.6,0.82 0.83,0.82 0.06,0 0.13,-0.03 0.25,-0.09 0.14,-0.09 0.21,-0.11 0.32,-0.11 0.3,0 0.55,0.24 0.55,0.52 0,0.33 -0.27,0.62 -0.57,0.62 -0.47,0 -0.78,-0.27 -1.58,-1.38 -0.18,0.85 -0.26,1.1 -0.45,1.38 l -1.66,-0.24 v -0.27 c 0.21,0.02 0.26,0.02 0.35,0.02 0.32,0 0.46,-0.18 0.56,-0.67 l 0.3,-1.53 -0.44,-0.7 c -0.2,-0.32 -0.31,-0.41 -0.48,-0.41 -0.06,0 -0.11,0.02 -0.21,0.08 -0.16,0.09 -0.28,0.13 -0.4,0.13 -0.31,0 -0.55,-0.25 -0.55,-0.56 0,-0.35 0.26,-0.59 0.64,-0.59 0.5,0 0.73,0.21 1.31,1.16 l 0.24,0.39 c 0.15,-0.75 0.22,-1.01 0.44,-1.28 0.12,-0.16 0.32,-0.27 0.52,-0.27 0.48,0 0.9,0.34 1.51,1.22 z"
   style="fill:#000000;stroke-width:0" />
<path
   id="path3447"
   d="m 343.43,472.08 -0.11,-0.2 c -0.14,-0.23 -0.23,-0.31 -0.34,-0.31 -0.16,0 -0.32,0.25 -0.62,0.97 -0.03,0.1 -0.15,0.37 -0.28,0.67 1.12,0.99 1.35,1.14 1.71,1.17 v 0.12 h -1.39 v -0.12 h 0.12 c 0.19,0 0.3,-0.06 0.3,-0.14 0,-0.15 -0.38,-0.52 -1.08,-1.06 -0.11,-0.08 -0.2,-0.16 -0.33,-0.25 l 0.91,3.46 -0.04,0.04 c -0.45,-0.1 -0.73,-0.16 -1.18,-0.21 v -0.12 c 0.36,0.01 0.51,-0.05 0.51,-0.19 -0.01,-0.13 -0.06,-0.33 -0.16,-0.68 -0.03,-0.11 -0.06,-0.19 -0.07,-0.25 l -0.02,-0.07 -0.96,-3.65 h 0.57 l 0.36,1.36 0.32,0.24 c 0.12,-0.33 0.32,-0.79 0.46,-1.07 0.24,-0.47 0.38,-0.62 0.59,-0.62 0.31,0 0.5,0.19 0.85,0.83 z"
   style="fill:#000000;stroke-width:0" />
<path
   id="path3449"
   d="m 344.83,479.47 0.06,-0.04 0.06,-0.05 0.06,-0.04 0.06,-0.04 0.05,-0.05 0.06,-0.04 0.05,-0.05 0.05,-0.04 0.05,-0.05 0.05,-0.04 0.04,-0.05 0.05,-0.04 0.04,-0.05 0.05,-0.04 0.04,-0.05 0.04,-0.05 c 0.19,-0.25 0.35,-0.51 0.47,-0.77 0.12,-0.27 0.22,-0.63 0.31,-1.08 0.1,-0.57 0.16,-1.21 0.16,-1.89 0,-0.64 -0.07,-1.26 -0.19,-1.85 -0.13,-0.58 -0.32,-1.06 -0.57,-1.45 -0.26,-0.38 -0.59,-0.68 -0.99,-0.91 v -0.18 c 0.81,0.36 1.45,0.95 1.95,1.79 0.49,0.82 0.74,1.74 0.74,2.75 0,0.68 -0.13,1.35 -0.38,1.99 -0.25,0.64 -0.61,1.18 -1.07,1.66 -0.33,0.33 -0.74,0.62 -1.24,0.86 z"
   style="fill:#000000;stroke-width:0" />
<polygon
   id="polygon3451"
   points="351.65,475.81 358.3,475.81 358.3,476.37 351.65,476.37 "
   style="fill:#000000;stroke-width:0" />
<polygon
   id="polygon3453"
   points="351.65,473.8 358.3,473.8 358.3,474.36 351.65,474.36 "
   style="fill:#000000;stroke-width:0" />
<path
   id="path3455"
   d="m 365.86,477.03 v -0.06 c 0,-1.16 1.49,-3.01 1.65,-4.39 h 0.14 c 1.6,2.45 1.48,6.11 2.2,6.11 0.18,0 0.3,-0.14 0.53,-0.14 0.2,0 0.44,0.14 0.44,0.4 0,0.33 -0.32,0.44 -0.59,0.44 -1.54,0 -1.21,-3.22 -2.38,-5.09 0,0.03 0.01,0.07 0.01,0.1 0,0.9 -1.52,2.8 -1.52,4.58 0,0.14 0.02,0.28 0.04,0.41 -1.37,-0.75 -1.05,-6.56 -2.98,-6.56 -0.31,0 -0.72,0.23 -0.72,0.56 0,0.25 0.15,0.36 0.26,0.36 0.1,0 0.21,-0.04 0.31,-0.04 0.2,0 0.48,0.16 0.48,0.48 0,0.22 -0.22,0.46 -0.51,0.46 -0.43,0 -0.92,-0.42 -0.92,-1.07 0,-0.43 0.38,-1 1.1,-1 2.04,0 2.21,3.86 2.45,4.46 z"
   style="fill:#000000;stroke-width:0" />
<path
   id="path3457"
   d="m 375.75,465.22 0,-0.07 0.01,-0.08 0,-0.07 0,-0.07 0.01,-0.07 0,-0.07 0.01,-0.06 0.01,-0.06 0.02,-0.13 0.03,-0.11 0.03,-0.11 0.03,-0.1 0.04,-0.09 0.04,-0.09 0.05,-0.08 0.05,-0.07 0.06,-0.07 0.06,-0.07 0.06,-0.06 0.07,-0.05 0.07,-0.05 0.08,-0.05 0.08,-0.04 0.08,-0.03 0.09,-0.04 0.09,-0.02 0.1,-0.03 0.09,-0.02 0.11,-0.02 0.1,-0.01 0.11,-0.01 0.11,-0.01 0.12,-0.01 0.12,-0.01 0.12,0 0.12,0 v 0.15 c -0.93,0.22 -1.19,0.75 -1.19,1.7 v 8.32 c 0,0.99 -0.17,1.53 -1.2,1.76 v 0.03 c 1.03,0.24 1.2,0.78 1.2,1.76 v 8.34 c 0,0.95 0.26,1.48 1.19,1.7 v 0.15 c -1.35,0 -2.17,-0.28 -2.17,-1.92 v -8.47 c 0,-0.89 -0.21,-1.32 -1.11,-1.56 0.9,-0.26 1.11,-0.69 1.11,-1.58 z"
   style="fill:#000000;stroke-width:0" />
<path
   id="path3459"
   d="m 380.12,475.69 0.28,-0.03 c 0.17,0.46 0.33,0.61 0.63,0.61 h 1.45 l -2.91,-3.53 0.25,-0.21 c 0.07,0.06 0.16,0.11 0.19,0.14 0.14,0.1 0.21,0.13 0.32,0.13 0.18,0 0.38,-0.09 0.73,-0.32 0.54,-0.36 0.91,-0.5 1.31,-0.5 0.6,0 1.07,0.4 1.07,0.91 0,0.27 -0.25,0.51 -0.53,0.51 -0.27,0 -0.49,-0.24 -0.49,-0.51 0,-0.12 0.04,-0.19 0.13,-0.31 0.05,-0.07 0.06,-0.12 0.06,-0.15 0,-0.09 -0.09,-0.16 -0.21,-0.16 -0.18,0 -0.3,0.12 -0.47,0.46 -0.32,0.61 -0.56,0.84 -1.07,1.06 l 2.8,3.34 v 0.1 h -3.11 z"
   style="fill:#000000;stroke-width:0" />
<path
   id="path3461"
   d="m 387.37,472.08 -0.12,-0.2 c -0.13,-0.23 -0.22,-0.31 -0.34,-0.31 -0.16,0 -0.31,0.25 -0.61,0.97 -0.04,0.1 -0.15,0.37 -0.28,0.67 1.11,0.99 1.35,1.14 1.7,1.17 v 0.12 h -1.38 v -0.12 h 0.12 c 0.19,0 0.29,-0.06 0.29,-0.14 0,-0.15 -0.37,-0.52 -1.08,-1.06 -0.1,-0.08 -0.2,-0.16 -0.32,-0.25 l 0.9,3.46 -0.03,0.04 c -0.45,-0.1 -0.74,-0.16 -1.18,-0.21 v -0.12 c 0.36,0.01 0.5,-0.05 0.51,-0.19 -0.01,-0.13 -0.07,-0.33 -0.17,-0.68 -0.03,-0.11 -0.05,-0.19 -0.06,-0.25 l -0.02,-0.07 -0.96,-3.65 h 0.57 l 0.36,1.36 0.32,0.24 c 0.12,-0.33 0.32,-0.79 0.45,-1.07 0.24,-0.47 0.38,-0.62 0.6,-0.62 0.3,0 0.5,0.19 0.84,0.83 z"
   style="fill:#000000;stroke-width:0" />
<path
   id="path3463"
   d="m 390.55,472.7 0,0.01 0,0.01 0,0.01 0,0.01 0,0.02 0,0.03 0,0.02 0.01,0.02 0,0.01 0,0.01 0,0.01 0,0.02 c 0,0.71 -0.41,0.85 -0.63,0.85 -0.16,0 -0.57,-0.02 -0.57,-0.57 0,-0.36 0.32,-0.49 0.49,-0.49 0.08,0 0.11,0.04 0.19,0.04 0.06,0 0.16,-0.07 0.16,-0.23 0,-0.13 -0.04,-0.51 -0.67,-0.96 l 0.09,-0.2 c 0.47,0.32 0.88,0.76 0.93,1.38 z"
   style="fill:#000000;stroke-width:0" />
<path
   id="path3465"
   d="m 390.47,476.73 0,0.03 0,0.03 -0.01,0.03 0,0.02 -0.01,0.03 -0.01,0.03 -0.01,0.02 -0.01,0.03 -0.01,0.02 -0.01,0.03 -0.01,0.02 -0.02,0.03 -0.02,0.02 -0.01,0.02 -0.02,0.02 -0.02,0.02 -0.02,0.02 -0.02,0.02 -0.02,0.01 -0.02,0.02 -0.02,0.01 -0.03,0.02 -0.02,0.01 -0.03,0.01 -0.02,0.01 -0.03,0.01 -0.02,0.01 -0.03,0.01 -0.03,0 -0.02,0.01 -0.03,0 -0.03,0 c -0.3,0 -0.55,-0.25 -0.55,-0.57 0,-0.38 0.34,-0.54 0.55,-0.54 0.21,0 0.56,0.17 0.56,0.54 z"
   style="fill:#000000;stroke-width:0" />
<path
   id="path3467"
   d="m 396.3,477.24 h -1 v 1.15 c 0,0.1 -0.01,0.13 -0.07,0.13 -0.07,-0.09 -0.13,-0.18 -0.2,-0.28 -0.38,-0.54 -0.81,-1.02 -0.97,-1.06 -0.11,-0.07 -0.17,-0.14 -0.17,-0.19 0,-0.03 0.01,-0.05 0.04,-0.07 h 0.53 v -3 c 0,-0.84 0.3,-1.27 0.89,-1.27 0.49,0 0.87,0.24 1.2,0.76 l -0.13,0.11 c -0.21,-0.25 -0.38,-0.35 -0.6,-0.35 -0.37,0 -0.52,0.27 -0.52,0.9 v 2.85 h 1 z"
   style="fill:#000000;stroke-width:0" />
<path
   id="path3469"
   d="m 400.94,473.41 -0.02,-0.01 -0.02,-0.01 -0.01,-0.01 -0.02,-0.02 -0.01,-0.01 -0.01,-0.01 -0.02,-0.01 -0.01,-0.01 -0.02,0 -0.01,-0.01 -0.01,-0.01 -0.02,-0.01 -0.01,-0.01 -0.01,0 -0.02,-0.01 -0.01,0 -0.01,-0.01 -0.02,0 -0.01,-0.01 -0.01,0 -0.02,-0.01 -0.01,0 -0.01,0 -0.01,-0.01 -0.03,0 -0.03,0 -0.02,-0.01 -0.03,0 c -0.23,0 -0.3,0.14 -0.3,0.58 v 1.94 c 0,0.52 -0.05,0.81 -0.2,1.05 -0.22,0.36 -0.65,0.55 -1.24,0.55 -0.93,0 -1.67,-0.49 -1.67,-1.12 0,-0.23 0.2,-0.43 0.43,-0.43 0.24,0 0.45,0.2 0.45,0.42 0,0.04 -0.01,0.09 -0.02,0.16 -0.02,0.09 -0.03,0.17 -0.03,0.24 0,0.27 0.32,0.49 0.72,0.49 0.48,0 0.75,-0.29 0.75,-0.83 v -0.61 -0.24 -1.44 c 0,-0.31 -0.05,-0.4 -0.26,-0.52 -0.24,-0.14 -0.52,-0.23 -0.73,-0.23 -0.34,0 -0.62,0.34 -0.62,0.77 v 0.04 c 0,0.59 0.41,0.95 1.61,1.38 v 0.24 c -1.53,-0.61 -1.7,-0.69 -2.13,-1.07 -0.22,-0.2 -0.36,-0.54 -0.36,-0.87 0,-0.63 0.44,-1.07 1.05,-1.07 0.44,0 0.84,0.21 1.45,0.73 0.05,-0.52 0.23,-0.73 0.64,-0.73 0.34,0 0.55,0.12 0.9,0.5 z"
   style="fill:#000000;stroke-width:0" />
<path
   id="path3471"
   d="m 401.12,476.72 0,0 0.01,0.01 0,0 0.01,0 0.01,0 0,0 0.01,0.01 0.01,0 0.01,0 0,0 0.02,0.01 0.02,0 0.01,0 0.02,0 0.02,0.01 0.02,0 0.02,0 0.02,0 0.02,0 0.02,0 0.02,0 c 0.28,0 0.37,-0.15 0.37,-0.64 v -2.47 c 0,-0.57 -0.12,-0.71 -0.62,-0.75 v -0.14 h 2.11 v 0.14 c -0.51,0.04 -0.66,0.16 -0.66,0.52 v 2.8 c 0.48,0.45 0.7,0.57 1.03,0.57 0.49,0 0.73,-0.31 0.73,-0.97 v -2.08 c 0,-0.63 -0.14,-0.8 -0.63,-0.84 v -0.14 h 2.07 v 0.14 c -0.49,0.05 -0.61,0.17 -0.61,0.66 v 2.28 c 0,0.94 -0.44,1.5 -1.17,1.5 -0.46,0 -0.77,-0.17 -1.45,-0.81 v 0.79 l -0.07,0.02 c -0.49,-0.18 -0.82,-0.29 -1.37,-0.45 z"
   style="fill:#000000;stroke-width:0" />
<polygon
   id="polygon3473"
   points="406.57,478.57 411.21,478.57 411.21,478.95 406.57,478.95 "
   style="fill:#000000;stroke-width:0" />
<path
   id="path3475"
   d="m 414.04,481.98 -1.36,-0.69 v -0.1 c 0.09,0.04 0.18,0.07 0.21,0.08 0.13,0.06 0.26,0.09 0.34,0.09 0.16,0 0.22,-0.12 0.22,-0.36 v -3.43 c 0,-0.25 -0.06,-0.43 -0.18,-0.49 -0.11,-0.07 -0.22,-0.09 -0.54,-0.1 v -0.12 h 2.09 v 0.12 c -0.59,0.01 -0.72,0.08 -0.72,0.44 v 4.55 z"
   style="fill:#000000;stroke-width:0" />
<path
   id="path3477"
   d="m 419.69,471 -0.14,0.1 -0.14,0.11 -0.12,0.11 -0.12,0.11 -0.11,0.12 -0.11,0.11 -0.09,0.12 -0.1,0.13 -0.08,0.12 -0.08,0.13 -0.08,0.13 -0.06,0.14 -0.07,0.13 -0.06,0.14 -0.05,0.14 -0.05,0.14 -0.04,0.15 -0.04,0.14 -0.04,0.15 -0.03,0.15 -0.02,0.15 -0.03,0.16 -0.02,0.15 -0.02,0.16 -0.02,0.31 -0.02,0.32 -0.01,0.33 0,0.33 c 0,1.51 0.29,3.38 1.75,4.19 v 0.21 c -1.74,-0.78 -2.69,-2.69 -2.69,-4.53 0,-1.92 0.96,-3.66 2.69,-4.53 z"
   style="fill:#000000;stroke-width:0" />
<path
   id="path3479"
   d="m 421.82,483.72 0.01,0.01 0.02,0 0.01,0 0.01,0 0.01,0.01 0.01,0 0.01,0 0.01,0 0.02,0 0.02,0.01 0.02,0 0.01,0 0.02,0.01 0.02,0 0.02,0 0.01,0 0.02,0 0.02,0 0.02,0 0.01,0 0.01,0 c 0.57,0 0.72,-0.25 1.18,-1.96 0.17,-0.65 0.4,-1.81 0.4,-1.98 0,-0.16 -0.06,-0.32 -0.2,-0.5 -0.31,-0.41 -0.51,-0.67 -0.62,-0.79 -0.21,-0.22 -0.33,-0.3 -0.46,-0.3 -0.06,0 -0.13,0.03 -0.24,0.11 -0.15,0.12 -0.26,0.17 -0.37,0.17 -0.22,0 -0.39,-0.17 -0.39,-0.39 0,-0.24 0.22,-0.44 0.51,-0.44 0.64,0 1.94,1.5 3.02,3.47 0.68,1.23 0.96,1.95 0.96,2.43 0,0.3 -0.25,0.55 -0.55,0.55 -0.23,0 -0.39,-0.15 -0.39,-0.37 0,-0.15 0.08,-0.26 0.28,-0.39 0.19,-0.11 0.26,-0.2 0.26,-0.33 0,-0.4 -0.37,-1.18 -1.22,-2.59 l -0.2,1.16 c -0.15,0.88 -0.7,2.52 -0.85,2.52 h -0.04 c -0.01,-0.01 -0.05,-0.01 -0.09,-0.01 -0.09,-0.01 -0.45,-0.07 -0.98,-0.17 -0.05,-0.01 -0.18,-0.04 -0.32,-0.06 z"
   style="fill:#000000;stroke-width:0" />
<path
   id="path3481"
   d="m 429.16,479.07 -0.12,-0.2 c -0.13,-0.23 -0.22,-0.32 -0.34,-0.32 -0.16,0 -0.31,0.25 -0.61,0.98 -0.04,0.1 -0.15,0.37 -0.28,0.67 1.11,0.99 1.35,1.14 1.7,1.16 v 0.13 h -1.38 v -0.13 h 0.12 c 0.19,0 0.29,-0.05 0.29,-0.13 0,-0.15 -0.37,-0.52 -1.08,-1.06 -0.1,-0.09 -0.2,-0.16 -0.32,-0.25 l 0.9,3.46 -0.03,0.04 c -0.45,-0.1 -0.74,-0.15 -1.18,-0.21 v -0.12 c 0.36,0.01 0.5,-0.04 0.51,-0.19 -0.01,-0.13 -0.07,-0.33 -0.17,-0.68 -0.03,-0.11 -0.05,-0.19 -0.06,-0.25 l -0.02,-0.07 -0.96,-3.66 h 0.57 l 0.36,1.37 0.32,0.24 c 0.12,-0.33 0.32,-0.8 0.45,-1.07 0.24,-0.47 0.38,-0.62 0.6,-0.62 0.3,0 0.5,0.19 0.84,0.83 z"
   style="fill:#000000;stroke-width:0" />
<line
   id="line3483"
   y2="475.23999"
   x2="430.32999"
   y1="475.23999"
   x1="421.04001"
   style="stroke-width:0.458" />
<path
   id="path3485"
   d="m 425.31,466.79 -0.01,-0.02 -0.02,-0.01 -0.01,-0.02 -0.02,-0.01 -0.01,-0.02 -0.01,-0.01 -0.01,-0.02 -0.02,-0.01 -0.01,-0.02 -0.01,-0.02 -0.01,-0.01 -0.02,-0.02 -0.01,-0.01 0,-0.01 -0.01,-0.01 -0.01,-0.01 0,-0.01 -0.01,-0.01 -0.01,-0.01 -0.01,-0.01 c -0.23,-0.3 -0.35,-0.4 -0.46,-0.4 -0.15,0 -0.24,0.13 -0.31,0.41 -0.02,0.08 -0.03,0.14 -0.04,0.17 -0.24,1 -0.36,1.46 -0.36,1.61 0.44,0.77 0.8,1.21 0.98,1.21 0.06,0 0.14,-0.03 0.24,-0.08 0.12,-0.07 0.19,-0.09 0.27,-0.09 0.21,0 0.35,0.15 0.35,0.36 0,0.21 -0.17,0.37 -0.41,0.37 -0.44,0 -0.82,-0.36 -1.5,-1.43 l -0.11,0.55 c -0.14,0.68 -0.25,0.88 -0.52,0.88 -0.22,0 -0.56,-0.09 -1.17,-0.29 l -0.11,-0.04 0.04,-0.15 c 0.38,0.09 0.47,0.11 0.56,0.11 0.25,0 0.31,-0.09 0.45,-0.69 l 0.29,-1.22 -0.82,-1.17 c -0.2,-0.3 -0.4,-0.48 -0.51,-0.48 -0.06,0 -0.16,0.03 -0.26,0.09 -0.13,0.07 -0.24,0.1 -0.31,0.1 -0.2,0 -0.34,-0.15 -0.34,-0.35 0,-0.26 0.19,-0.42 0.49,-0.42 0.31,0 0.43,0.09 0.93,0.7 0.27,0.32 0.48,0.59 0.9,1.17 l 0.3,-1.2 c 0.13,-0.51 0.26,-0.67 0.57,-0.67 0.38,0 0.64,0.24 1.22,1.14 z"
   style="fill:#000000;stroke-width:0" />
<path
   id="path3487"
   d="m 429.16,465.01 -0.12,-0.2 c -0.13,-0.23 -0.22,-0.32 -0.34,-0.32 -0.16,0 -0.31,0.25 -0.61,0.98 -0.04,0.1 -0.15,0.37 -0.28,0.67 1.11,0.99 1.35,1.14 1.7,1.16 v 0.12 h -1.38 v -0.12 h 0.12 c 0.19,0 0.29,-0.05 0.29,-0.13 0,-0.16 -0.37,-0.53 -1.08,-1.06 -0.1,-0.09 -0.2,-0.16 -0.32,-0.25 l 0.9,3.46 -0.03,0.03 c -0.45,-0.09 -0.74,-0.15 -1.18,-0.2 v -0.12 c 0.36,0.01 0.5,-0.05 0.51,-0.19 -0.01,-0.13 -0.07,-0.33 -0.17,-0.68 -0.03,-0.11 -0.05,-0.19 -0.06,-0.25 l -0.02,-0.07 -0.96,-3.66 h 0.57 l 0.36,1.37 0.32,0.24 c 0.12,-0.34 0.32,-0.8 0.45,-1.07 0.24,-0.48 0.38,-0.62 0.6,-0.62 0.3,0 0.5,0.19 0.84,0.82 z"
   style="fill:#000000;stroke-width:0" />
<path
   id="path3489"
   d="m 431.75,479.47 0.06,-0.04 0.06,-0.05 0.06,-0.04 0.06,-0.04 0.05,-0.05 0.06,-0.04 0.05,-0.05 0.05,-0.04 0.05,-0.05 0.05,-0.04 0.04,-0.05 0.05,-0.04 0.04,-0.05 0.04,-0.04 0.04,-0.05 0.04,-0.05 c 0.2,-0.25 0.36,-0.51 0.48,-0.77 0.12,-0.27 0.22,-0.63 0.31,-1.08 0.1,-0.57 0.16,-1.21 0.16,-1.89 0,-0.64 -0.07,-1.26 -0.19,-1.85 -0.13,-0.58 -0.32,-1.06 -0.58,-1.45 -0.26,-0.38 -0.59,-0.68 -0.98,-0.91 v -0.18 c 0.8,0.36 1.45,0.95 1.95,1.79 0.49,0.82 0.74,1.74 0.74,2.75 0,0.68 -0.13,1.35 -0.38,1.99 -0.25,0.64 -0.61,1.18 -1.08,1.66 -0.33,0.33 -0.74,0.62 -1.23,0.86 z"
   style="fill:#000000;stroke-width:0" />
<path
   id="path3491"
   d="m 435.98,471.09 0.13,0.05 0.07,0.03 0.07,0.03 0.07,0.03 0.06,0.03 0.07,0.03 0.06,0.04 0.06,0.03 0.07,0.04 0.06,0.04 0.06,0.05 0.05,0.04 0.06,0.04 0.05,0.05 0.05,0.05 0.05,0.05 0.05,0.05 0.04,0.06 0.05,0.05 0.04,0.06 0.03,0.06 0.04,0.06 0.03,0.07 0.02,0.06 0.03,0.07 0.02,0.07 0.02,0.07 0.01,0.07 0.01,0.08 0.01,0.08 0,0.07 c 0,0.48 -0.28,1.03 -0.82,1.03 -0.33,0 -0.62,-0.24 -0.62,-0.58 0,-0.32 0.18,-0.53 0.51,-0.53 0.18,0 0.31,0.14 0.42,0.14 0.08,0 0.11,-0.14 0.11,-0.2 0,-0.62 -0.5,-1.07 -1.04,-1.25 z"
   style="fill:#000000;stroke-width:0" />
<path
   id="path3493"
   d="m 442.74,479.49 -0.06,0 -0.05,0 -0.04,0 -0.05,-0.01 -0.05,0 -0.05,-0.01 -0.05,0 -0.04,-0.01 -0.05,-0.01 -0.04,-0.01 -0.05,-0.01 -0.04,-0.01 -0.04,-0.01 -0.05,-0.02 -0.04,-0.01 -0.04,-0.02 -0.04,-0.02 -0.04,-0.01 -0.04,-0.02 -0.04,-0.02 -0.04,-0.02 -0.04,-0.02 -0.03,-0.03 -0.04,-0.02 -0.04,-0.03 -0.04,-0.02 -0.03,-0.03 -0.04,-0.03 -0.03,-0.02 -0.04,-0.03 -0.03,-0.04 -0.04,-0.03 c -0.58,-0.56 -0.96,-1.7 -0.96,-2.87 0,-1.08 0.33,-2.25 0.8,-2.81 0.37,-0.43 0.88,-0.67 1.46,-0.67 v 0.26 c -0.86,0 -1.3,1.06 -1.3,3.13 0,2.11 0.45,3.22 1.31,3.22 h 0 c 0.83,0 1.28,-1.12 1.28,-3.21 0,-2.08 -0.44,-3.14 -1.29,-3.14 v -0.26 c 0.5,0 0.93,0.17 1.29,0.51 0.58,0.55 0.96,1.71 0.96,2.91 0,2.04 -0.91,3.45 -2.21,3.45 z"
   style="fill:#000000;stroke-width:0" />
<path
   id="path3495"
   d="m 446.54,473.7 -0.03,0 -0.03,0 -0.02,-0.01 -0.03,0 -0.03,-0.01 -0.02,0 -0.03,-0.01 -0.02,-0.01 -0.02,-0.01 -0.03,-0.01 -0.02,-0.02 -0.02,-0.01 -0.02,-0.02 -0.02,-0.01 -0.02,-0.02 -0.02,-0.02 -0.02,-0.01 -0.02,-0.02 -0.01,-0.02 -0.02,-0.03 -0.01,-0.02 -0.01,-0.02 -0.02,-0.02 -0.01,-0.03 -0.01,-0.02 0,-0.03 -0.01,-0.02 -0.01,-0.03 0,-0.02 -0.01,-0.03 0,-0.03 0,-0.03 c 0,-0.3 0.24,-0.54 0.54,-0.54 0.3,0 0.54,0.24 0.54,0.54 0,0.3 -0.24,0.54 -0.54,0.54 z"
   style="fill:#000000;stroke-width:0" />
<path
   id="path3497"
   d="m 450.45,479.49 -0.05,0 -0.05,0 -0.05,0 -0.05,-0.01 -0.04,0 -0.05,-0.01 -0.05,0 -0.04,-0.01 -0.05,-0.01 -0.05,-0.01 -0.04,-0.01 -0.04,-0.01 -0.05,-0.01 -0.04,-0.02 -0.04,-0.01 -0.04,-0.02 -0.04,-0.02 -0.04,-0.01 -0.04,-0.02 -0.04,-0.02 -0.04,-0.02 -0.04,-0.02 -0.04,-0.03 -0.03,-0.02 -0.04,-0.03 -0.04,-0.02 -0.04,-0.03 -0.03,-0.03 -0.04,-0.02 -0.03,-0.03 -0.04,-0.04 -0.03,-0.03 c -0.58,-0.56 -0.96,-1.7 -0.96,-2.87 0,-1.08 0.33,-2.25 0.8,-2.81 0.37,-0.43 0.87,-0.67 1.45,-0.67 v 0.26 c -0.85,0 -1.29,1.06 -1.29,3.13 0,2.11 0.45,3.22 1.3,3.22 h 0 c 0.84,0 1.29,-1.12 1.29,-3.21 0,-2.08 -0.44,-3.14 -1.3,-3.14 v -0.26 c 0.51,0 0.94,0.17 1.3,0.51 0.58,0.55 0.96,1.71 0.96,2.91 0,2.04 -0.91,3.45 -2.22,3.45 z"
   style="fill:#000000;stroke-width:0" />
<path
   id="path3499"
   d="m 455.43,479.49 -0.05,0 -0.05,0 -0.05,0 -0.05,-0.01 -0.04,0 -0.05,-0.01 -0.05,0 -0.04,-0.01 -0.05,-0.01 -0.05,-0.01 -0.04,-0.01 -0.04,-0.01 -0.05,-0.01 -0.04,-0.02 -0.04,-0.01 -0.04,-0.02 -0.04,-0.02 -0.04,-0.01 -0.04,-0.02 -0.04,-0.02 -0.04,-0.02 -0.04,-0.02 -0.04,-0.03 -0.03,-0.02 -0.04,-0.03 -0.04,-0.02 -0.04,-0.03 -0.03,-0.03 -0.04,-0.02 -0.03,-0.03 -0.04,-0.04 -0.03,-0.03 c -0.58,-0.56 -0.96,-1.7 -0.96,-2.87 0,-1.08 0.33,-2.25 0.8,-2.81 0.37,-0.43 0.88,-0.67 1.45,-0.67 v 0.26 c -0.85,0 -1.29,1.06 -1.29,3.13 0,2.11 0.45,3.22 1.3,3.22 h 0 c 0.84,0 1.29,-1.12 1.29,-3.21 0,-2.08 -0.44,-3.14 -1.3,-3.14 v -0.26 c 0.51,0 0.94,0.17 1.3,0.51 0.58,0.55 0.95,1.71 0.95,2.91 0,2.04 -0.9,3.45 -2.21,3.45 z"
   style="fill:#000000;stroke-width:0" />
<path
   id="path3501"
   d="m 460.42,479.49 -0.05,0 -0.05,0 -0.05,0 -0.05,-0.01 -0.05,0 -0.04,-0.01 -0.05,0 -0.05,-0.01 -0.04,-0.01 -0.05,-0.01 -0.04,-0.01 -0.05,-0.01 -0.04,-0.01 -0.04,-0.02 -0.04,-0.01 -0.04,-0.02 -0.04,-0.02 -0.05,-0.01 -0.04,-0.02 -0.03,-0.02 -0.04,-0.02 -0.04,-0.02 -0.04,-0.03 -0.04,-0.02 -0.03,-0.03 -0.04,-0.02 -0.04,-0.03 -0.03,-0.03 -0.04,-0.02 -0.03,-0.03 -0.04,-0.04 -0.03,-0.03 c -0.58,-0.56 -0.96,-1.7 -0.96,-2.87 0,-1.08 0.33,-2.25 0.8,-2.81 0.37,-0.43 0.87,-0.67 1.45,-0.67 v 0.26 c -0.86,0 -1.29,1.06 -1.29,3.13 0,2.11 0.44,3.22 1.3,3.22 h 0 c 0.84,0 1.29,-1.12 1.29,-3.21 0,-2.08 -0.44,-3.14 -1.3,-3.14 v -0.26 c 0.51,0 0.94,0.17 1.3,0.51 0.57,0.55 0.95,1.71 0.95,2.91 0,2.04 -0.9,3.45 -2.21,3.45 z"
   style="fill:#000000;stroke-width:0" />
<path
   id="path3503"
   d="m 465.77,479.49 -1.79,-0.91 v -0.14 c 0.12,0.05 0.22,0.09 0.26,0.11 0.18,0.07 0.35,0.11 0.45,0.11 0.21,0 0.3,-0.15 0.3,-0.46 v -4.52 c 0,-0.33 -0.08,-0.56 -0.24,-0.65 -0.15,-0.09 -0.29,-0.12 -0.7,-0.13 v -0.14 h 2.75 v 0.14 c -0.79,0.01 -0.95,0.11 -0.95,0.59 v 5.98 z"
   style="fill:#000000;stroke-width:0" />
<path
   id="path3505"
   d="m 471.41,465.22 0,-0.07 -0.01,-0.08 0,-0.07 0,-0.07 -0.01,-0.07 0,-0.07 -0.01,-0.06 -0.01,-0.06 -0.02,-0.13 -0.03,-0.11 -0.03,-0.11 -0.03,-0.1 -0.04,-0.09 -0.04,-0.09 -0.05,-0.08 -0.05,-0.07 -0.06,-0.07 -0.06,-0.07 -0.06,-0.06 -0.07,-0.05 -0.07,-0.05 -0.08,-0.05 -0.08,-0.04 -0.08,-0.03 -0.09,-0.04 -0.09,-0.02 -0.1,-0.03 -0.09,-0.02 -0.11,-0.02 -0.1,-0.01 -0.11,-0.01 -0.11,-0.01 -0.12,-0.01 -0.12,-0.01 -0.12,0 -0.13,0 v 0.15 c 0.94,0.22 1.2,0.75 1.2,1.7 v 8.32 c 0,0.99 0.17,1.53 1.2,1.76 v 0.03 c -1.03,0.24 -1.2,0.78 -1.2,1.76 v 8.34 c 0,0.95 -0.26,1.48 -1.2,1.7 v 0.15 c 1.36,0 2.18,-0.28 2.18,-1.92 v -8.47 c 0,-0.89 0.21,-1.32 1.11,-1.56 -0.9,-0.26 -1.11,-0.69 -1.11,-1.58 z"
   style="fill:#000000;stroke-width:0" />
<path
   id="path3507"
   d="m 477.02,473.7 -0.03,0 -0.03,0 -0.02,-0.01 -0.03,0 -0.03,-0.01 -0.02,0 -0.03,-0.01 -0.02,-0.01 -0.02,-0.01 -0.03,-0.01 -0.02,-0.02 -0.02,-0.01 -0.02,-0.02 -0.02,-0.01 -0.02,-0.02 -0.02,-0.02 -0.02,-0.01 -0.02,-0.02 -0.01,-0.02 -0.02,-0.03 -0.01,-0.02 -0.01,-0.02 -0.02,-0.02 -0.01,-0.03 -0.01,-0.02 0,-0.03 -0.01,-0.02 -0.01,-0.03 0,-0.02 -0.01,-0.03 0,-0.03 0,-0.03 c 0,-0.3 0.24,-0.54 0.54,-0.54 0.3,0 0.54,0.24 0.54,0.54 0,0.3 -0.24,0.54 -0.54,0.54 z"
   style="fill:#000000;stroke-width:0" />
</g>  </g>
</svg>
