<?xml version="1.0" encoding="UTF-8" standalone="no"?>
<!-- Created with Inkscape (http://www.inkscape.org/) -->

<svg
   xmlns:ns0="http://www.iki.fi/pav/software/textext/"
   xmlns:dc="http://purl.org/dc/elements/1.1/"
   xmlns:cc="http://creativecommons.org/ns#"
   xmlns:rdf="http://www.w3.org/1999/02/22-rdf-syntax-ns#"
   xmlns:svg="http://www.w3.org/2000/svg"
   xmlns="http://www.w3.org/2000/svg"
   xmlns:sodipodi="http://sodipodi.sourceforge.net/DTD/sodipodi-0.dtd"
   xmlns:inkscape="http://www.inkscape.org/namespaces/inkscape"
   width="242"
   height="49"
   id="svg2"
   inkscape:label="Pozadí"
   version="1.1"
   inkscape:version="0.47 r22583"
   sodipodi:docname="ex2-transition-pdf.svg"
   inkscape:export-filename="/localhome/flidr/matlab/IDM-toolboxes/nft/nef/trunk/help/html/graphics/ex1-system.png"
   inkscape:export-xdpi="120"
   inkscape:export-ydpi="120">
  <sodipodi:namedview
     id="base"
     pagecolor="#ffffff"
     bordercolor="#666666"
     borderopacity="1.0"
     inkscape:pageopacity="0.0"
     inkscape:pageshadow="2"
     inkscape:zoom="4.6091935"
     inkscape:cx="120.52"
     inkscape:cy="24.01"
     inkscape:document-units="px"
     inkscape:current-layer="layer1"
     showgrid="false"
     inkscape:window-width="1472"
     inkscape:window-height="944"
     inkscape:window-x="0"
     inkscape:window-y="0"
     inkscape:window-maximized="0" />
  <defs
     id="defs3">
    <inkscape:perspective
       sodipodi:type="inkscape:persp3d"
       inkscape:vp_x="0 : 526.18109 : 1"
       inkscape:vp_y="0 : 1000 : 0"
       inkscape:vp_z="744.09448 : 526.18109 : 1"
       inkscape:persp3d-origin="372.04724 : 350.78739 : 1"
       id="perspective9" />
  </defs>
  <metadata
     id="metadata6">
    <rdf:RDF>
      <cc:Work
         rdf:about="">
        <dc:format>image/svg+xml</dc:format>
        <dc:type
           rdf:resource="http://purl.org/dc/dcmitype/StillImage" />
        <dc:title />
      </cc:Work>
    </rdf:RDF>
  </metadata>
  <g
     inkscape:label="Vrstva 1"
     inkscape:groupmode="layer"
     id="layer1"
     transform="translate(-76.46,-259.685)">
    <g
       style="font-style:normal;font-variant:normal;font-weight:normal;font-stretch:normal;letter-spacing:normal;word-spacing:normal;text-anchor:start;fill:none;stroke:#000000;stroke-linecap:butt;stroke-linejoin:miter;stroke-miterlimit:10.43299961;stroke-opacity:1;stroke-dasharray:none;stroke-dashoffset:0"
       ns0:preamble="/localhome/flidr/matlab/IDM-toolboxes/nft/nef/trunk/help/html/graphics/src/preamble.inc"
       ns0:text="\\begin{align*}\n  p(\\bdx_{k+1}|\\bdx_k)=\\mathcal{N}\\left\\{\\bdx_{k+1};\\left(\n \\begin{array}{cccc}\n   1&amp;1&amp;0&amp;0\\\\\n   0&amp;1&amp;0&amp;0\\\\\n   0&amp;0&amp;1&amp;1\\\\\n   0&amp;0&amp;0&amp;1\\\\\n \\end{array}\n\\right)\\bdx_k,0.0001\\bdI_4\\right\\}\n\\end{align*}"
       word-spacing="normal"
       letter-spacing="normal"
       font-size-adjust="none"
       font-stretch="normal"
       font-weight="normal"
       font-variant="normal"
       font-style="normal"
       stroke-miterlimit="10.433"
       xml:space="preserve"
       transform="matrix(1,0,0,-1,-197.11,747.375)"
       id="content">
<path
   id="path3198"
   d="m 275.36,464.83 h 0.23 c 0,0 0.02,0 0.03,0 0.13,0.06 0.39,-0.13 0.39,-0.27 0,-0.09 -0.36,-1.51 -0.71,-2.82 -0.27,-1 -0.51,-1.95 -0.58,-2.23 -0.11,-0.46 -0.24,-0.58 -0.67,-0.59 v -0.16 h 2.05 v 0.15 c -0.47,0 -0.64,0.09 -0.64,0.3 0,0.14 0.17,0.91 0.37,1.65 0.25,-0.13 0.43,-0.17 0.65,-0.17 l -0.04,0.19 c -0.27,0 -0.47,0.15 -0.47,0.37 0,0.34 0.35,1.64 0.64,2.38 0.27,0.68 0.85,1.17 1.35,1.14 h 0 c 0.43,-0.03 0.62,-0.28 0.62,-0.86 0,-0.66 -0.29,-1.52 -0.72,-2.13 -0.42,-0.59 -0.9,-0.9 -1.42,-0.9 l 0.04,-0.19 c 1.46,0 2.99,1.67 2.99,3.26 0,0.78 -0.44,1.24 -1.14,1.24 -0.65,0 -1.13,-0.31 -1.71,-1.12 l 0.29,0.99 0.03,0.09 c 0,0 -0.01,0.01 -0.02,0.03 l -0.02,0.01 c 0,0.01 -0.01,0.01 -0.01,0.01 l -0.02,-0.01 -1.53,-0.22 z"
   style="fill:#000000;stroke-width:0" />
<path
   id="path3200"
   d="m 283.65,459.05 -0.14,0.1 -0.13,0.11 -0.13,0.1 -0.11,0.12 -0.12,0.11 -0.1,0.12 -0.1,0.12 -0.09,0.12 -0.09,0.13 -0.08,0.13 -0.07,0.13 -0.07,0.13 -0.06,0.14 -0.06,0.14 -0.05,0.14 -0.05,0.14 -0.05,0.14 -0.03,0.15 -0.04,0.15 -0.03,0.15 -0.03,0.15 -0.02,0.15 -0.02,0.16 -0.02,0.15 -0.03,0.32 -0.02,0.32 -0.01,0.32 0,0.33 c 0,1.51 0.29,3.39 1.75,4.19 v 0.21 c -1.74,-0.77 -2.69,-2.69 -2.69,-4.53 0,-1.91 0.96,-3.66 2.69,-4.52 z"
   style="fill:#000000;stroke-width:0" />
<path
   id="path3202"
   d="m 288.25,462.02 -0.02,-0.02 -0.02,-0.02 -0.01,-0.02 -0.02,-0.02 -0.02,-0.02 -0.01,-0.02 -0.02,-0.02 -0.01,-0.02 -0.03,-0.04 -0.03,-0.03 -0.03,-0.04 -0.02,-0.03 -0.03,-0.03 -0.02,-0.02 -0.02,-0.03 -0.02,-0.02 -0.03,-0.02 -0.02,-0.02 -0.01,-0.02 -0.02,-0.02 -0.02,-0.01 -0.02,-0.01 -0.01,-0.02 -0.02,-0.01 -0.02,-0.01 -0.01,-0.01 -0.02,0 -0.01,-0.01 -0.02,-0.01 -0.01,0 -0.02,0 -0.01,-0.01 -0.02,0 -0.01,0 -0.02,0 -0.02,0 c -0.19,0 -0.29,0.15 -0.37,0.53 l -0.32,1.55 c 0.03,0.04 0.04,0.05 0.09,0.13 0.35,0.58 0.6,0.82 0.83,0.82 0.06,0 0.13,-0.03 0.25,-0.09 0.14,-0.09 0.21,-0.11 0.32,-0.11 0.3,0 0.56,0.24 0.56,0.52 0,0.32 -0.28,0.61 -0.58,0.61 -0.47,0 -0.78,-0.27 -1.57,-1.37 -0.18,0.85 -0.26,1.09 -0.45,1.37 l -1.67,-0.24 v -0.27 c 0.21,0.03 0.26,0.03 0.35,0.03 0.32,0 0.46,-0.19 0.56,-0.67 l 0.3,-1.54 -0.44,-0.69 c -0.2,-0.32 -0.31,-0.41 -0.48,-0.41 -0.06,0 -0.11,0.02 -0.21,0.08 -0.16,0.09 -0.28,0.13 -0.39,0.13 -0.31,0 -0.55,-0.25 -0.55,-0.56 0,-0.35 0.26,-0.59 0.63,-0.59 0.5,0 0.73,0.2 1.31,1.16 l 0.24,0.38 c 0.15,-0.74 0.23,-1 0.45,-1.28 0.12,-0.16 0.32,-0.26 0.51,-0.26 0.48,0 0.9,0.34 1.51,1.22 z"
   style="fill:#000000;stroke-width:0" />
<path
   id="path3204"
   d="m 292.93,460.12 -0.12,-0.19 c -0.13,-0.24 -0.22,-0.32 -0.34,-0.32 -0.16,0 -0.32,0.25 -0.61,0.98 -0.04,0.1 -0.15,0.37 -0.28,0.66 1.11,0.99 1.35,1.15 1.7,1.17 v 0.12 h -1.38 v -0.12 h 0.12 c 0.19,0 0.29,-0.05 0.29,-0.14 0,-0.15 -0.38,-0.52 -1.08,-1.06 -0.11,-0.08 -0.2,-0.16 -0.32,-0.25 l 0.9,3.46 -0.03,0.04 c -0.45,-0.1 -0.74,-0.15 -1.18,-0.2 v -0.12 c 0.36,0 0.5,-0.05 0.51,-0.19 -0.01,-0.13 -0.07,-0.34 -0.17,-0.69 -0.03,-0.1 -0.05,-0.18 -0.06,-0.25 l -0.02,-0.06 -0.96,-3.66 h 0.57 l 0.36,1.36 0.32,0.24 c 0.12,-0.33 0.32,-0.79 0.45,-1.06 0.24,-0.48 0.38,-0.62 0.6,-0.62 0.3,0 0.5,0.19 0.84,0.82 z"
   style="fill:#000000;stroke-width:0" />
<polygon
   id="polygon3206"
   points="299.09,461.38 296.75,461.38 296.75,463.71 296.37,463.71 296.37,461.38 294.03,461.38 294.03,461 296.37,461 296.37,458.67 296.75,458.67 296.75,461 299.09,461 "
   style="fill:#000000;stroke-width:0" />
<path
   id="path3208"
   d="m 301.72,464.42 -1.37,-0.69 v -0.11 c 0.09,0.04 0.18,0.07 0.21,0.09 0.13,0.05 0.26,0.08 0.34,0.08 0.16,0 0.22,-0.11 0.22,-0.36 V 460 c 0,-0.25 -0.05,-0.42 -0.18,-0.49 -0.11,-0.07 -0.22,-0.09 -0.53,-0.1 v -0.11 h 2.09 v 0.11 c -0.6,0.01 -0.72,0.09 -0.72,0.45 v 4.54 z"
   style="fill:#000000;stroke-width:0" />
<polygon
   id="polygon3210"
   points="305.48,459 305.48,467.45 304.98,467.45 304.98,459 "
   style="fill:#000000;stroke-width:0" />
<path
   id="path3212"
   d="m 311.1,462.02 -0.02,-0.02 -0.02,-0.02 -0.02,-0.02 -0.01,-0.02 -0.02,-0.02 -0.02,-0.02 -0.01,-0.02 -0.02,-0.02 -0.03,-0.04 -0.03,-0.03 -0.02,-0.04 -0.03,-0.03 -0.02,-0.03 -0.03,-0.02 -0.02,-0.03 -0.02,-0.02 -0.02,-0.02 -0.02,-0.02 -0.02,-0.02 -0.02,-0.02 -0.01,-0.01 -0.02,-0.01 -0.02,-0.02 -0.01,-0.01 -0.02,-0.01 -0.02,-0.01 -0.01,0 -0.02,-0.01 -0.01,-0.01 -0.02,0 -0.01,0 -0.02,-0.01 -0.01,0 -0.02,0 -0.02,0 -0.01,0 c -0.19,0 -0.29,0.15 -0.37,0.53 l -0.32,1.55 c 0.03,0.04 0.04,0.05 0.09,0.13 0.35,0.58 0.6,0.82 0.83,0.82 0.06,0 0.13,-0.03 0.25,-0.09 0.14,-0.09 0.2,-0.11 0.32,-0.11 0.29,0 0.55,0.24 0.55,0.52 0,0.32 -0.28,0.61 -0.58,0.61 -0.46,0 -0.77,-0.27 -1.57,-1.37 -0.18,0.85 -0.26,1.09 -0.45,1.37 l -1.66,-0.24 v -0.27 c 0.21,0.03 0.26,0.03 0.35,0.03 0.32,0 0.46,-0.19 0.55,-0.67 l 0.3,-1.54 -0.43,-0.69 c -0.2,-0.32 -0.31,-0.41 -0.48,-0.41 -0.06,0 -0.11,0.02 -0.21,0.08 -0.16,0.09 -0.28,0.13 -0.4,0.13 -0.31,0 -0.55,-0.25 -0.55,-0.56 0,-0.35 0.26,-0.59 0.64,-0.59 0.5,0 0.73,0.2 1.3,1.16 l 0.24,0.38 c 0.15,-0.74 0.23,-1 0.45,-1.28 0.12,-0.16 0.32,-0.26 0.52,-0.26 0.48,0 0.9,0.34 1.5,1.22 z"
   style="fill:#000000;stroke-width:0" />
<path
   id="path3214"
   d="m 315.77,460.12 -0.11,-0.19 c -0.14,-0.24 -0.23,-0.32 -0.34,-0.32 -0.16,0 -0.32,0.25 -0.62,0.98 -0.03,0.1 -0.15,0.37 -0.28,0.66 1.12,0.99 1.35,1.15 1.71,1.17 v 0.12 h -1.39 v -0.12 h 0.12 c 0.19,0 0.3,-0.05 0.3,-0.14 0,-0.15 -0.38,-0.52 -1.08,-1.06 -0.11,-0.08 -0.2,-0.16 -0.33,-0.25 l 0.91,3.46 -0.04,0.04 c -0.45,-0.1 -0.73,-0.15 -1.18,-0.2 v -0.12 c 0.36,0 0.51,-0.05 0.51,-0.19 -0.01,-0.13 -0.06,-0.34 -0.16,-0.69 -0.03,-0.1 -0.06,-0.18 -0.07,-0.25 l -0.02,-0.06 -0.96,-3.66 h 0.57 l 0.36,1.36 0.32,0.24 c 0.12,-0.33 0.32,-0.79 0.46,-1.06 0.24,-0.48 0.38,-0.62 0.6,-0.62 0.3,0 0.5,0.19 0.84,0.82 z"
   style="fill:#000000;stroke-width:0" />
<path
   id="path3216"
   d="m 317.17,467.52 0.06,-0.05 0.06,-0.04 0.06,-0.04 0.06,-0.05 0.05,-0.04 0.06,-0.05 0.05,-0.04 0.05,-0.05 0.05,-0.04 0.05,-0.05 0.04,-0.04 0.05,-0.05 0.04,-0.04 0.05,-0.05 0.04,-0.05 0.04,-0.04 c 0.19,-0.25 0.35,-0.51 0.47,-0.78 0.12,-0.27 0.22,-0.63 0.31,-1.08 0.1,-0.56 0.16,-1.2 0.16,-1.89 0,-0.64 -0.07,-1.25 -0.19,-1.84 -0.13,-0.59 -0.32,-1.07 -0.58,-1.46 -0.25,-0.37 -0.58,-0.67 -0.98,-0.9 v -0.18 c 0.81,0.36 1.45,0.94 1.95,1.78 0.49,0.83 0.74,1.75 0.74,2.75 0,0.69 -0.13,1.36 -0.38,1.99 -0.25,0.64 -0.61,1.19 -1.08,1.67 -0.32,0.33 -0.73,0.62 -1.23,0.85 z"
   style="fill:#000000;stroke-width:0" />
<polygon
   id="polygon3218"
   points="323.99,463.86 330.65,463.86 330.65,464.42 323.99,464.42 "
   style="fill:#000000;stroke-width:0" />
<polygon
   id="polygon3220"
   points="323.99,461.85 330.65,461.85 330.65,462.4 323.99,462.4 "
   style="fill:#000000;stroke-width:0" />
<path
   id="path3222"
   d="m 338.21,465.07 v -0.06 c 0,-1.15 1.48,-3 1.64,-4.39 H 340 c 1.6,2.45 1.48,6.12 2.19,6.12 0.18,0 0.3,-0.14 0.53,-0.14 0.21,0 0.45,0.14 0.45,0.4 0,0.33 -0.32,0.43 -0.59,0.43 -1.54,0 -1.21,-3.21 -2.38,-5.09 0,0.03 0.01,0.07 0.01,0.1 0,0.9 -1.52,2.8 -1.52,4.59 0,0.14 0.02,0.28 0.04,0.4 -1.38,-0.74 -1.05,-6.55 -2.98,-6.55 -0.31,0 -0.72,0.23 -0.72,0.56 0,0.25 0.15,0.36 0.26,0.36 0.1,0 0.21,-0.04 0.31,-0.04 0.2,0 0.48,0.16 0.48,0.47 0,0.22 -0.22,0.46 -0.51,0.46 -0.43,0 -0.92,-0.42 -0.92,-1.06 0,-0.43 0.38,-1.01 1.1,-1.01 2.04,0 2.21,3.87 2.45,4.46 z"
   style="fill:#000000;stroke-width:0" />
<path
   id="path3224"
   d="m 348.82,484.8 v -6.69 h 1.44 v 6.78 c 0,1.13 0.23,1.84 1.43,2.12 v 0.19 c -1.77,0 -2.87,-0.41 -2.87,-2.4 z"
   style="fill:#000000;stroke-width:0" />
<polygon
   id="polygon3226"
   points="348.82,475.12 350.26,475.12 350.26,478.35 348.82,478.35 "
   style="fill:#000000;stroke-width:0" />
<polygon
   id="polygon3228"
   points="348.82,472.14 350.26,472.14 350.26,475.36 348.82,475.36 "
   style="fill:#000000;stroke-width:0" />
<path
   id="path3230"
   d="m 350.24,461.07 v -6.87 h -1.42 v 7.11 c 0,1.13 -0.28,1.66 -1.39,1.98 1.11,0.29 1.39,0.83 1.39,1.95 v 7.13 h 1.42 v -6.87 c 0,-1.22 -0.2,-1.9 -1.49,-2.21 v -0.03 c 1.29,-0.3 1.49,-0.99 1.49,-2.19 z"
   style="fill:#000000;stroke-width:0" />
<polygon
   id="polygon3232"
   points="348.82,451.21 350.26,451.21 350.26,454.44 348.82,454.44 "
   style="fill:#000000;stroke-width:0" />
<polygon
   id="polygon3234"
   points="348.82,448.23 350.26,448.23 350.26,451.45 348.82,451.45 "
   style="fill:#000000;stroke-width:0" />
<path
   id="path3236"
   d="m 348.82,441.78 v 6.68 h 1.44 v -6.77 c 0,-1.14 0.23,-1.85 1.43,-2.12 v -0.19 c -1.77,0 -2.87,0.41 -2.87,2.4 z"
   style="fill:#000000;stroke-width:0" />
<path
   id="path3238"
   d="m 357.93,462.02 -0.02,-0.02 -0.01,-0.02 -0.02,-0.02 -0.02,-0.02 -0.01,-0.02 -0.02,-0.02 -0.01,-0.02 -0.02,-0.02 -0.03,-0.04 -0.03,-0.03 -0.02,-0.04 -0.03,-0.03 -0.02,-0.03 -0.03,-0.02 -0.02,-0.03 -0.02,-0.02 -0.02,-0.02 -0.02,-0.02 -0.02,-0.02 -0.02,-0.02 -0.02,-0.01 -0.01,-0.01 -0.02,-0.02 -0.02,-0.01 -0.01,-0.01 -0.02,-0.01 -0.01,0 -0.02,-0.01 -0.02,-0.01 -0.01,0 -0.02,0 -0.01,-0.01 -0.02,0 -0.01,0 -0.02,0 -0.01,0 c -0.19,0 -0.29,0.15 -0.37,0.53 l -0.32,1.55 c 0.03,0.04 0.04,0.05 0.09,0.13 0.35,0.58 0.6,0.82 0.82,0.82 0.06,0 0.13,-0.03 0.25,-0.09 0.14,-0.09 0.21,-0.11 0.32,-0.11 0.3,0 0.56,0.24 0.56,0.52 0,0.32 -0.28,0.61 -0.58,0.61 -0.47,0 -0.77,-0.27 -1.57,-1.37 -0.18,0.85 -0.26,1.09 -0.45,1.37 l -1.66,-0.24 v -0.27 c 0.21,0.03 0.25,0.03 0.34,0.03 0.32,0 0.46,-0.19 0.56,-0.67 l 0.3,-1.54 -0.44,-0.69 c -0.2,-0.32 -0.31,-0.41 -0.48,-0.41 -0.06,0 -0.1,0.02 -0.2,0.08 -0.16,0.09 -0.28,0.13 -0.4,0.13 -0.31,0 -0.55,-0.25 -0.55,-0.56 0,-0.35 0.26,-0.59 0.64,-0.59 0.49,0 0.72,0.2 1.3,1.16 l 0.24,0.38 c 0.15,-0.74 0.23,-1 0.45,-1.28 0.12,-0.16 0.32,-0.26 0.52,-0.26 0.48,0 0.89,0.34 1.5,1.22 z"
   style="fill:#000000;stroke-width:0" />
<path
   id="path3240"
   d="m 362.61,460.12 -0.11,-0.19 c -0.14,-0.24 -0.23,-0.32 -0.35,-0.32 -0.15,0 -0.31,0.25 -0.61,0.98 -0.04,0.1 -0.15,0.37 -0.28,0.66 1.12,0.99 1.35,1.15 1.71,1.17 v 0.12 h -1.39 v -0.12 h 0.12 c 0.19,0 0.3,-0.05 0.3,-0.14 0,-0.15 -0.38,-0.52 -1.09,-1.06 -0.1,-0.08 -0.19,-0.16 -0.32,-0.25 l 0.91,3.46 -0.04,0.04 c -0.45,-0.1 -0.74,-0.15 -1.18,-0.2 v -0.12 c 0.36,0 0.51,-0.05 0.51,-0.19 -0.01,-0.13 -0.07,-0.34 -0.16,-0.69 -0.03,-0.1 -0.06,-0.18 -0.07,-0.25 l -0.02,-0.06 -0.96,-3.66 h 0.57 l 0.36,1.36 0.32,0.24 c 0.12,-0.33 0.32,-0.79 0.46,-1.06 0.24,-0.48 0.37,-0.62 0.59,-0.62 0.31,0 0.5,0.19 0.84,0.82 z"
   style="fill:#000000;stroke-width:0" />
<polygon
   id="polygon3242"
   points="368.77,461.38 366.43,461.38 366.43,463.71 366.06,463.71 366.06,461.38 363.72,461.38 363.72,461 366.06,461 366.06,458.67 366.43,458.67 366.43,461 368.77,461 "
   style="fill:#000000;stroke-width:0" />
<path
   id="path3244"
   d="m 371.4,464.42 -1.36,-0.69 v -0.11 c 0.09,0.04 0.17,0.07 0.2,0.09 0.14,0.05 0.27,0.08 0.34,0.08 0.16,0 0.23,-0.11 0.23,-0.36 V 460 c 0,-0.25 -0.06,-0.42 -0.18,-0.49 -0.12,-0.07 -0.22,-0.09 -0.54,-0.1 v -0.11 h 2.09 v 0.11 c -0.6,0.01 -0.72,0.09 -0.72,0.45 v 4.54 z"
   style="fill:#000000;stroke-width:0" />
<path
   id="path3246"
   d="m 375.48,460.74 0,0.01 0,0.01 0,0.01 0,0.01 0,0.03 0.01,0.02 0,0.02 0,0.02 0,0.02 0,0.01 0,0.01 0,0.01 c 0,0.72 -0.41,0.86 -0.63,0.86 -0.16,0 -0.57,-0.02 -0.57,-0.57 0,-0.37 0.32,-0.49 0.49,-0.49 0.08,0 0.11,0.04 0.19,0.04 0.06,0 0.16,-0.07 0.16,-0.24 0,-0.13 -0.04,-0.51 -0.67,-0.95 l 0.09,-0.21 c 0.47,0.32 0.88,0.76 0.93,1.38 z"
   style="fill:#000000;stroke-width:0" />
<path
   id="path3248"
   d="m 375.4,464.77 0,0.03 0,0.03 -0.01,0.03 0,0.03 -0.01,0.03 -0.01,0.02 0,0.03 -0.02,0.02 -0.01,0.03 -0.01,0.02 -0.01,0.03 -0.02,0.02 -0.01,0.02 -0.02,0.02 -0.02,0.03 -0.02,0.01 -0.02,0.02 -0.02,0.02 -0.02,0.02 -0.02,0.01 -0.02,0.02 -0.03,0.01 -0.02,0.02 -0.02,0.01 -0.03,0.01 -0.03,0.01 -0.02,0 -0.03,0.01 -0.03,0.01 -0.02,0 -0.03,0 -0.03,0 c -0.3,0 -0.55,-0.25 -0.55,-0.57 0,-0.37 0.34,-0.53 0.55,-0.53 0.21,0 0.56,0.17 0.56,0.53 z"
   style="fill:#000000;stroke-width:0" />
<path
   id="path3250"
   d="m 386.45,486.95 -0.43,-0.96 -0.41,-1 -0.39,-1.01 -0.38,-1.04 -0.36,-1.06 -0.34,-1.09 -0.32,-1.1 -0.29,-1.12 -0.27,-1.14 -0.24,-1.15 -0.2,-1.17 -0.17,-1.19 -0.14,-1.19 -0.1,-1.21 -0.06,-1.22 -0.03,-1.23 h -1.33 c 0,6.74 2.59,13.71 5.23,18.13 z"
   style="fill:#000000;stroke-width:0" />
<polygon
   id="polygon3252"
   points="380.99,463.17 382.42,463.17 382.42,469.39 380.99,469.39 "
   style="fill:#000000;stroke-width:0" />
<polygon
   id="polygon3254"
   points="380.99,457.19 382.42,457.19 382.42,463.41 380.99,463.41 "
   style="fill:#000000;stroke-width:0" />
<path
   id="path3256"
   d="m 386.45,439.43 -0.36,0.48 -0.34,0.49 -0.32,0.52 -0.3,0.52 -0.28,0.55 -0.25,0.55 -0.24,0.57 -0.22,0.58 -0.2,0.58 -0.19,0.6 -0.17,0.6 -0.16,0.6 -0.14,0.61 -0.12,0.62 -0.22,1.23 -0.17,1.22 -0.12,1.21 -0.1,1.18 -0.06,1.15 -0.02,0.55 -0.02,0.55 -0.01,0.53 -0.01,0.51 0,0.5 0,0.48 -0.01,0.46 0,0.44 h -1.43 c 0,-9.7 1.68,-13.97 5.23,-18.13 z"
   style="fill:#000000;stroke-width:0" />
<path
   id="path3258"
   d="m 394.53,485.57 -1.79,-0.91 v -0.14 c 0.12,0.05 0.23,0.09 0.27,0.11 0.18,0.07 0.35,0.11 0.45,0.11 0.21,0 0.3,-0.15 0.3,-0.47 v -4.51 c 0,-0.33 -0.08,-0.56 -0.24,-0.65 -0.15,-0.09 -0.29,-0.12 -0.71,-0.13 v -0.15 h 2.75 v 0.15 c -0.79,0.01 -0.95,0.11 -0.95,0.59 v 5.98 z"
   style="fill:#000000;stroke-width:0" />
<path
   id="path3260"
   d="m 409.48,485.57 -1.79,-0.91 v -0.14 c 0.12,0.05 0.23,0.09 0.27,0.11 0.18,0.07 0.35,0.11 0.45,0.11 0.2,0 0.29,-0.15 0.29,-0.47 v -4.51 c 0,-0.33 -0.08,-0.56 -0.24,-0.65 -0.14,-0.09 -0.28,-0.12 -0.7,-0.13 v -0.15 h 2.75 v 0.15 c -0.79,0.01 -0.95,0.11 -0.95,0.59 v 5.98 z"
   style="fill:#000000;stroke-width:0" />
<path
   id="path3262"
   d="m 424.05,485.57 -0.05,-0.01 -0.05,0 -0.05,0 -0.05,0 -0.04,-0.01 -0.05,0 -0.05,-0.01 -0.04,-0.01 -0.05,-0.01 -0.05,-0.01 -0.04,-0.01 -0.04,-0.01 -0.05,-0.01 -0.04,-0.01 -0.04,-0.02 -0.04,-0.01 -0.04,-0.02 -0.04,-0.02 -0.04,-0.02 -0.04,-0.02 -0.04,-0.02 -0.04,-0.02 -0.04,-0.02 -0.03,-0.03 -0.04,-0.02 -0.04,-0.03 -0.04,-0.02 -0.03,-0.03 -0.04,-0.03 -0.03,-0.03 -0.04,-0.03 -0.03,-0.03 c -0.58,-0.56 -0.96,-1.71 -0.96,-2.87 0,-1.09 0.33,-2.25 0.8,-2.81 0.37,-0.44 0.87,-0.68 1.45,-0.68 v 0.26 c -0.85,0 -1.29,1.07 -1.29,3.14 0,2.11 0.45,3.22 1.3,3.22 h 0 c 0.84,0 1.29,-1.13 1.29,-3.21 0,-2.08 -0.44,-3.15 -1.3,-3.15 v -0.26 c 0.51,0 0.94,0.17 1.3,0.52 0.58,0.55 0.96,1.7 0.96,2.91 0,2.04 -0.91,3.45 -2.22,3.45 z"
   style="fill:#000000;stroke-width:0" />
<path
   id="path3264"
   d="m 439,485.57 -0.05,-0.01 -0.05,0 -0.05,0 -0.05,0 -0.05,-0.01 -0.04,0 -0.05,-0.01 -0.05,-0.01 -0.04,-0.01 -0.05,-0.01 -0.04,-0.01 -0.05,-0.01 -0.04,-0.01 -0.04,-0.01 -0.04,-0.02 -0.04,-0.01 -0.04,-0.02 -0.05,-0.02 -0.04,-0.02 -0.03,-0.02 -0.04,-0.02 -0.04,-0.02 -0.04,-0.02 -0.04,-0.03 -0.03,-0.02 -0.04,-0.03 -0.04,-0.02 -0.03,-0.03 -0.04,-0.03 -0.03,-0.03 -0.04,-0.03 -0.03,-0.03 c -0.58,-0.56 -0.96,-1.71 -0.96,-2.87 0,-1.09 0.33,-2.25 0.8,-2.81 0.37,-0.44 0.87,-0.68 1.45,-0.68 v 0.26 c -0.86,0 -1.29,1.07 -1.29,3.14 0,2.11 0.44,3.22 1.3,3.22 h 0 c 0.84,0 1.29,-1.13 1.29,-3.21 0,-2.08 -0.44,-3.15 -1.3,-3.15 v -0.26 c 0.51,0 0.94,0.17 1.3,0.52 0.57,0.55 0.95,1.7 0.95,2.91 0,2.04 -0.9,3.45 -2.21,3.45 z"
   style="fill:#000000;stroke-width:0" />
<path
   id="path3266"
   d="m 394.17,473.61 -0.06,0 -0.05,0 -0.05,0 -0.04,-0.01 -0.05,0 -0.05,-0.01 -0.05,0 -0.04,-0.01 -0.05,-0.01 -0.04,-0.01 -0.05,-0.01 -0.04,-0.01 -0.04,-0.01 -0.05,-0.02 -0.04,-0.01 -0.04,-0.02 -0.04,-0.02 -0.04,-0.01 -0.04,-0.02 -0.04,-0.02 -0.04,-0.02 -0.04,-0.02 -0.03,-0.03 -0.04,-0.02 -0.04,-0.03 -0.04,-0.02 -0.03,-0.03 -0.04,-0.03 -0.03,-0.02 -0.04,-0.03 -0.03,-0.04 -0.04,-0.03 c -0.58,-0.56 -0.96,-1.7 -0.96,-2.87 0,-1.08 0.33,-2.25 0.8,-2.81 0.37,-0.43 0.88,-0.67 1.46,-0.67 v 0.25 c -0.86,0 -1.3,1.07 -1.3,3.14 0,2.11 0.45,3.22 1.31,3.22 h 0 c 0.83,0 1.28,-1.12 1.28,-3.21 0,-2.08 -0.44,-3.15 -1.29,-3.15 v -0.25 c 0.5,0 0.93,0.16 1.29,0.51 0.58,0.55 0.96,1.71 0.96,2.91 0,2.04 -0.91,3.45 -2.21,3.45 z"
   style="fill:#000000;stroke-width:0" />
<path
   id="path3268"
   d="m 409.48,473.61 -1.79,-0.91 v -0.14 c 0.12,0.05 0.23,0.09 0.27,0.11 0.18,0.07 0.35,0.11 0.45,0.11 0.2,0 0.29,-0.15 0.29,-0.46 v -4.52 c 0,-0.33 -0.08,-0.56 -0.24,-0.65 -0.14,-0.09 -0.28,-0.12 -0.7,-0.13 v -0.14 h 2.75 v 0.14 c -0.79,0.01 -0.95,0.11 -0.95,0.59 v 5.98 z"
   style="fill:#000000;stroke-width:0" />
<path
   id="path3270"
   d="m 424.05,473.61 -0.05,0 -0.05,0 -0.05,0 -0.05,-0.01 -0.04,0 -0.05,-0.01 -0.05,0 -0.04,-0.01 -0.05,-0.01 -0.05,-0.01 -0.04,-0.01 -0.04,-0.01 -0.05,-0.01 -0.04,-0.02 -0.04,-0.01 -0.04,-0.02 -0.04,-0.02 -0.04,-0.01 -0.04,-0.02 -0.04,-0.02 -0.04,-0.02 -0.04,-0.02 -0.04,-0.03 -0.03,-0.02 -0.04,-0.03 -0.04,-0.02 -0.04,-0.03 -0.03,-0.03 -0.04,-0.02 -0.03,-0.03 -0.04,-0.04 -0.03,-0.03 c -0.58,-0.56 -0.96,-1.7 -0.96,-2.87 0,-1.08 0.33,-2.25 0.8,-2.81 0.37,-0.43 0.87,-0.67 1.45,-0.67 v 0.25 c -0.85,0 -1.29,1.07 -1.29,3.14 0,2.11 0.45,3.22 1.3,3.22 h 0 c 0.84,0 1.29,-1.12 1.29,-3.21 0,-2.08 -0.44,-3.15 -1.3,-3.15 v -0.25 c 0.51,0 0.94,0.16 1.3,0.51 0.58,0.55 0.96,1.71 0.96,2.91 0,2.04 -0.91,3.45 -2.22,3.45 z"
   style="fill:#000000;stroke-width:0" />
<path
   id="path3272"
   d="m 439,473.61 -0.05,0 -0.05,0 -0.05,0 -0.05,-0.01 -0.05,0 -0.04,-0.01 -0.05,0 -0.05,-0.01 -0.04,-0.01 -0.05,-0.01 -0.04,-0.01 -0.05,-0.01 -0.04,-0.01 -0.04,-0.02 -0.04,-0.01 -0.04,-0.02 -0.04,-0.02 -0.05,-0.01 -0.04,-0.02 -0.03,-0.02 -0.04,-0.02 -0.04,-0.02 -0.04,-0.03 -0.04,-0.02 -0.03,-0.03 -0.04,-0.02 -0.04,-0.03 -0.03,-0.03 -0.04,-0.02 -0.03,-0.03 -0.04,-0.04 -0.03,-0.03 c -0.58,-0.56 -0.96,-1.7 -0.96,-2.87 0,-1.08 0.33,-2.25 0.8,-2.81 0.37,-0.43 0.87,-0.67 1.45,-0.67 v 0.25 c -0.86,0 -1.29,1.07 -1.29,3.14 0,2.11 0.44,3.22 1.3,3.22 h 0 c 0.84,0 1.29,-1.12 1.29,-3.21 0,-2.08 -0.44,-3.15 -1.3,-3.15 v -0.25 c 0.51,0 0.94,0.16 1.3,0.51 0.57,0.55 0.95,1.71 0.95,2.91 0,2.04 -0.9,3.45 -2.21,3.45 z"
   style="fill:#000000;stroke-width:0" />
<path
   id="path3274"
   d="m 394.17,461.65 -0.06,0 -0.05,0 -0.05,0 -0.04,0 -0.05,-0.01 -0.05,0 -0.05,-0.01 -0.04,-0.01 -0.05,-0.01 -0.04,-0.01 -0.05,-0.01 -0.04,-0.01 -0.04,-0.01 -0.05,-0.01 -0.04,-0.02 -0.04,-0.01 -0.04,-0.02 -0.04,-0.02 -0.04,-0.02 -0.04,-0.02 -0.04,-0.02 -0.04,-0.02 -0.03,-0.02 -0.04,-0.03 -0.04,-0.02 -0.04,-0.03 -0.03,-0.02 -0.04,-0.03 -0.03,-0.03 -0.04,-0.03 -0.03,-0.03 -0.04,-0.03 c -0.58,-0.56 -0.96,-1.71 -0.96,-2.87 0,-1.09 0.33,-2.25 0.8,-2.81 0.37,-0.44 0.88,-0.68 1.46,-0.68 v 0.26 c -0.86,0 -1.3,1.07 -1.3,3.14 0,2.11 0.45,3.22 1.31,3.22 h 0 c 0.83,0 1.28,-1.13 1.28,-3.21 0,-2.08 -0.44,-3.15 -1.29,-3.15 v -0.26 c 0.5,0 0.93,0.17 1.29,0.52 0.58,0.55 0.96,1.7 0.96,2.91 0,2.04 -0.91,3.44 -2.21,3.44 z"
   style="fill:#000000;stroke-width:0" />
<path
   id="path3276"
   d="m 409.11,461.65 -0.05,0 -0.05,0 -0.05,0 -0.05,0 -0.04,-0.01 -0.05,0 -0.05,-0.01 -0.04,-0.01 -0.05,-0.01 -0.05,-0.01 -0.04,-0.01 -0.04,-0.01 -0.05,-0.01 -0.04,-0.01 -0.04,-0.02 -0.04,-0.01 -0.04,-0.02 -0.04,-0.02 -0.04,-0.02 -0.04,-0.02 -0.04,-0.02 -0.04,-0.02 -0.04,-0.02 -0.03,-0.03 -0.04,-0.02 -0.04,-0.03 -0.04,-0.02 -0.03,-0.03 -0.04,-0.03 -0.03,-0.03 -0.04,-0.03 -0.03,-0.03 c -0.58,-0.56 -0.96,-1.71 -0.96,-2.87 0,-1.09 0.33,-2.25 0.8,-2.81 0.37,-0.44 0.87,-0.68 1.45,-0.68 v 0.26 c -0.85,0 -1.29,1.07 -1.29,3.14 0,2.11 0.45,3.22 1.3,3.22 h 0 c 0.84,0 1.29,-1.13 1.29,-3.21 0,-2.08 -0.44,-3.15 -1.3,-3.15 v -0.26 c 0.51,0 0.94,0.17 1.3,0.52 0.58,0.55 0.96,1.7 0.96,2.91 0,2.04 -0.91,3.44 -2.22,3.44 z"
   style="fill:#000000;stroke-width:0" />
<path
   id="path3278"
   d="m 424.42,461.65 -1.79,-0.9 v -0.14 c 0.12,0.05 0.23,0.09 0.27,0.11 0.18,0.07 0.35,0.11 0.45,0.11 0.2,0 0.29,-0.15 0.29,-0.47 v -4.51 c 0,-0.33 -0.07,-0.56 -0.24,-0.65 -0.14,-0.09 -0.28,-0.12 -0.7,-0.13 v -0.15 h 2.75 v 0.15 c -0.79,0.01 -0.95,0.11 -0.95,0.59 v 5.98 z"
   style="fill:#000000;stroke-width:0" />
<path
   id="path3280"
   d="m 439.37,461.65 -1.79,-0.9 v -0.14 c 0.12,0.05 0.22,0.09 0.27,0.11 0.17,0.07 0.34,0.11 0.44,0.11 0.21,0 0.3,-0.15 0.3,-0.47 v -4.51 c 0,-0.33 -0.08,-0.56 -0.24,-0.65 -0.15,-0.09 -0.29,-0.12 -0.7,-0.13 v -0.15 h 2.74 v 0.15 c -0.78,0.01 -0.94,0.11 -0.94,0.59 v 5.98 z"
   style="fill:#000000;stroke-width:0" />
<path
   id="path3282"
   d="m 394.17,449.7 -0.06,0 -0.05,0 -0.05,0 -0.04,-0.01 -0.05,0 -0.05,-0.01 -0.05,0 -0.04,-0.01 -0.05,-0.01 -0.04,-0.01 -0.05,-0.01 -0.04,-0.01 -0.04,-0.01 -0.05,-0.02 -0.04,-0.01 -0.04,-0.02 -0.04,-0.02 -0.04,-0.01 -0.04,-0.02 -0.04,-0.02 -0.04,-0.02 -0.04,-0.02 -0.03,-0.03 -0.04,-0.02 -0.04,-0.03 -0.04,-0.02 -0.03,-0.03 -0.04,-0.03 -0.03,-0.02 -0.04,-0.03 -0.03,-0.04 -0.04,-0.03 c -0.58,-0.56 -0.96,-1.7 -0.96,-2.87 0,-1.08 0.33,-2.25 0.8,-2.81 0.37,-0.43 0.88,-0.67 1.46,-0.67 v 0.25 c -0.86,0 -1.3,1.07 -1.3,3.14 0,2.11 0.45,3.22 1.31,3.22 h 0 c 0.83,0 1.28,-1.12 1.28,-3.21 0,-2.08 -0.44,-3.15 -1.29,-3.15 v -0.25 c 0.5,0 0.93,0.16 1.29,0.51 0.58,0.55 0.96,1.71 0.96,2.91 0,2.05 -0.91,3.45 -2.21,3.45 z"
   style="fill:#000000;stroke-width:0" />
<path
   id="path3284"
   d="m 409.11,449.7 -0.05,0 -0.05,0 -0.05,0 -0.05,-0.01 -0.04,0 -0.05,-0.01 -0.05,0 -0.04,-0.01 -0.05,-0.01 -0.05,-0.01 -0.04,-0.01 -0.04,-0.01 -0.05,-0.01 -0.04,-0.02 -0.04,-0.01 -0.04,-0.02 -0.04,-0.02 -0.04,-0.01 -0.04,-0.02 -0.04,-0.02 -0.04,-0.02 -0.04,-0.02 -0.04,-0.03 -0.03,-0.02 -0.04,-0.03 -0.04,-0.02 -0.04,-0.03 -0.03,-0.03 -0.04,-0.02 -0.03,-0.03 -0.04,-0.04 -0.03,-0.03 c -0.58,-0.56 -0.96,-1.7 -0.96,-2.87 0,-1.08 0.33,-2.25 0.8,-2.81 0.37,-0.43 0.87,-0.67 1.45,-0.67 v 0.25 c -0.85,0 -1.29,1.07 -1.29,3.14 0,2.11 0.45,3.22 1.3,3.22 h 0 c 0.84,0 1.29,-1.12 1.29,-3.21 0,-2.08 -0.44,-3.15 -1.3,-3.15 v -0.25 c 0.51,0 0.94,0.16 1.3,0.51 0.58,0.55 0.96,1.71 0.96,2.91 0,2.05 -0.91,3.45 -2.22,3.45 z"
   style="fill:#000000;stroke-width:0" />
<path
   id="path3286"
   d="m 424.05,449.7 -0.05,0 -0.05,0 -0.05,0 -0.05,-0.01 -0.04,0 -0.05,-0.01 -0.05,0 -0.04,-0.01 -0.05,-0.01 -0.05,-0.01 -0.04,-0.01 -0.04,-0.01 -0.05,-0.01 -0.04,-0.02 -0.04,-0.01 -0.04,-0.02 -0.04,-0.02 -0.04,-0.01 -0.04,-0.02 -0.04,-0.02 -0.04,-0.02 -0.04,-0.02 -0.04,-0.03 -0.03,-0.02 -0.04,-0.03 -0.04,-0.02 -0.04,-0.03 -0.03,-0.03 -0.04,-0.02 -0.03,-0.03 -0.04,-0.04 -0.03,-0.03 c -0.58,-0.56 -0.96,-1.7 -0.96,-2.87 0,-1.08 0.33,-2.25 0.8,-2.81 0.37,-0.43 0.87,-0.67 1.45,-0.67 v 0.25 c -0.85,0 -1.29,1.07 -1.29,3.14 0,2.11 0.45,3.22 1.3,3.22 h 0 c 0.84,0 1.29,-1.12 1.29,-3.21 0,-2.08 -0.44,-3.15 -1.3,-3.15 v -0.25 c 0.51,0 0.94,0.16 1.3,0.51 0.58,0.55 0.96,1.71 0.96,2.91 0,2.05 -0.91,3.45 -2.22,3.45 z"
   style="fill:#000000;stroke-width:0" />
<path
   id="path3288"
   d="m 439.37,449.7 -1.79,-0.91 v -0.14 c 0.12,0.05 0.22,0.09 0.27,0.11 0.17,0.07 0.34,0.11 0.44,0.11 0.21,0 0.3,-0.15 0.3,-0.47 v -4.51 c 0,-0.33 -0.08,-0.56 -0.24,-0.65 -0.15,-0.09 -0.29,-0.12 -0.7,-0.13 v -0.15 h 2.74 v 0.15 c -0.78,0.01 -0.94,0.11 -0.94,0.59 v 5.98 z"
   style="fill:#000000;stroke-width:0" />
<path
   id="path3290"
   d="m 446.64,486.95 0.42,-0.96 0.41,-1 0.4,-1.01 0.38,-1.04 0.36,-1.06 0.34,-1.09 0.32,-1.1 0.29,-1.12 0.27,-1.14 0.23,-1.15 0.21,-1.17 0.17,-1.19 0.14,-1.19 0.1,-1.21 0.06,-1.22 0.02,-1.23 h 1.34 c 0,6.74 -2.59,13.71 -5.23,18.13 z"
   style="fill:#000000;stroke-width:0" />
<polygon
   id="polygon3292"
   points="450.66,463.17 452.1,463.17 452.1,469.39 450.66,469.39 "
   style="fill:#000000;stroke-width:0" />
<polygon
   id="polygon3294"
   points="450.66,457.19 452.1,457.19 452.1,463.41 450.66,463.41 "
   style="fill:#000000;stroke-width:0" />
<path
   id="path3296"
   d="m 446.64,439.43 0.36,0.48 0.34,0.49 0.32,0.52 0.3,0.52 0.27,0.55 0.26,0.55 0.24,0.57 0.22,0.58 0.2,0.58 0.19,0.6 0.17,0.6 0.15,0.6 0.14,0.61 0.13,0.62 0.22,1.23 0.16,1.22 0.13,1.21 0.09,1.18 0.07,1.15 0.02,0.55 0.01,0.55 0.02,0.53 0,0.51 0.01,0.5 0,0.48 0,0.46 0,0.44 h 1.44 c 0,-9.7 -1.68,-13.97 -5.23,-18.13 z"
   style="fill:#000000;stroke-width:0" />
<path
   id="path3298"
   d="m 460.49,462.02 -0.01,-0.02 -0.02,-0.02 -0.02,-0.02 -0.01,-0.02 -0.02,-0.02 -0.02,-0.02 -0.01,-0.02 -0.02,-0.02 -0.03,-0.04 -0.03,-0.03 -0.02,-0.04 -0.03,-0.03 -0.02,-0.03 -0.03,-0.02 -0.02,-0.03 -0.02,-0.02 -0.02,-0.02 -0.02,-0.02 -0.02,-0.02 -0.02,-0.02 -0.01,-0.01 -0.02,-0.01 -0.02,-0.02 -0.01,-0.01 -0.02,-0.01 -0.02,-0.01 -0.01,0 -0.02,-0.01 -0.01,-0.01 -0.02,0 -0.01,0 -0.02,-0.01 -0.01,0 -0.02,0 -0.02,0 -0.01,0 c -0.19,0 -0.29,0.15 -0.37,0.53 l -0.32,1.55 c 0.03,0.04 0.04,0.05 0.09,0.13 0.35,0.58 0.6,0.82 0.83,0.82 0.06,0 0.13,-0.03 0.25,-0.09 0.14,-0.09 0.21,-0.11 0.31,-0.11 0.3,0 0.56,0.24 0.56,0.52 0,0.32 -0.28,0.61 -0.57,0.61 -0.47,0 -0.78,-0.27 -1.58,-1.37 -0.18,0.85 -0.26,1.09 -0.45,1.37 l -1.66,-0.24 v -0.27 c 0.21,0.03 0.26,0.03 0.35,0.03 0.32,0 0.46,-0.19 0.56,-0.67 l 0.29,-1.54 -0.43,-0.69 c -0.2,-0.32 -0.31,-0.41 -0.48,-0.41 -0.06,0 -0.11,0.02 -0.21,0.08 -0.16,0.09 -0.28,0.13 -0.4,0.13 -0.31,0 -0.55,-0.25 -0.55,-0.56 0,-0.35 0.26,-0.59 0.64,-0.59 0.5,0 0.73,0.2 1.3,1.16 l 0.24,0.38 c 0.15,-0.74 0.23,-1 0.45,-1.28 0.12,-0.16 0.32,-0.26 0.52,-0.26 0.48,0 0.9,0.34 1.5,1.22 z"
   style="fill:#000000;stroke-width:0" />
<path
   id="path3300"
   d="m 465.17,460.12 -0.11,-0.19 c -0.14,-0.24 -0.23,-0.32 -0.34,-0.32 -0.16,0 -0.32,0.25 -0.61,0.98 -0.04,0.1 -0.16,0.37 -0.29,0.66 1.12,0.99 1.35,1.15 1.71,1.17 v 0.12 h -1.39 v -0.12 h 0.12 c 0.19,0 0.3,-0.05 0.3,-0.14 0,-0.15 -0.38,-0.52 -1.08,-1.06 -0.11,-0.08 -0.2,-0.16 -0.33,-0.25 l 0.91,3.46 -0.04,0.04 c -0.44,-0.1 -0.73,-0.15 -1.18,-0.2 v -0.12 c 0.36,0 0.51,-0.05 0.52,-0.19 -0.02,-0.13 -0.07,-0.34 -0.17,-0.69 -0.03,-0.1 -0.05,-0.18 -0.07,-0.25 l -0.01,-0.06 -0.97,-3.66 h 0.57 l 0.37,1.36 0.31,0.24 c 0.12,-0.33 0.32,-0.79 0.46,-1.06 0.24,-0.48 0.38,-0.62 0.6,-0.62 0.3,0 0.5,0.19 0.84,0.82 z"
   style="fill:#000000;stroke-width:0" />
<path
   id="path3302"
   d="m 467.08,459.14 0.14,0.05 0.07,0.02 0.07,0.03 0.07,0.03 0.06,0.03 0.07,0.04 0.06,0.03 0.06,0.04 0.07,0.04 0.06,0.04 0.06,0.04 0.05,0.04 0.06,0.05 0.05,0.05 0.05,0.05 0.05,0.05 0.05,0.05 0.04,0.05 0.05,0.06 0.04,0.06 0.03,0.06 0.04,0.06 0.03,0.06 0.02,0.07 0.03,0.06 0.02,0.07 0.02,0.07 0.01,0.08 0.01,0.07 0.01,0.08 0,0.08 c 0,0.48 -0.28,1.03 -0.82,1.03 -0.33,0 -0.63,-0.24 -0.63,-0.58 0,-0.33 0.19,-0.54 0.52,-0.54 0.18,0 0.31,0.14 0.42,0.14 0.08,0 0.11,-0.14 0.11,-0.2 0,-0.62 -0.5,-1.06 -1.05,-1.24 z"
   style="fill:#000000;stroke-width:0" />
<path
   id="path3304"
   d="m 473.85,467.54 -0.05,-0.01 -0.06,0 -0.04,0 -0.05,0 -0.05,-0.01 -0.05,0 -0.05,-0.01 -0.04,-0.01 -0.05,-0.01 -0.04,-0.01 -0.05,-0.01 -0.04,-0.01 -0.04,-0.01 -0.05,-0.01 -0.04,-0.02 -0.04,-0.01 -0.04,-0.02 -0.04,-0.02 -0.04,-0.02 -0.04,-0.02 -0.04,-0.02 -0.04,-0.02 -0.03,-0.02 -0.04,-0.03 -0.04,-0.02 -0.04,-0.03 -0.03,-0.02 -0.04,-0.03 -0.03,-0.03 -0.04,-0.03 -0.03,-0.03 -0.04,-0.03 c -0.58,-0.56 -0.96,-1.71 -0.96,-2.87 0,-1.09 0.33,-2.25 0.8,-2.81 0.37,-0.44 0.88,-0.68 1.46,-0.68 v 0.26 c -0.86,0 -1.3,1.07 -1.3,3.14 0,2.11 0.45,3.22 1.31,3.22 h 0 c 0.83,0 1.28,-1.13 1.28,-3.21 0,-2.08 -0.44,-3.15 -1.29,-3.15 v -0.26 c 0.5,0 0.93,0.17 1.29,0.52 0.58,0.55 0.96,1.7 0.96,2.91 0,2.04 -0.91,3.45 -2.21,3.45 z"
   style="fill:#000000;stroke-width:0" />
<path
   id="path3306"
   d="m 477.65,461.75 -0.03,0 -0.03,-0.01 -0.02,0 -0.03,0 -0.03,-0.01 -0.02,-0.01 -0.03,-0.01 -0.02,-0.01 -0.02,-0.01 -0.03,-0.01 -0.02,-0.01 -0.02,-0.02 -0.02,-0.01 -0.02,-0.02 -0.02,-0.01 -0.02,-0.02 -0.02,-0.02 -0.02,-0.02 -0.01,-0.02 -0.02,-0.02 -0.01,-0.02 -0.01,-0.02 -0.02,-0.03 -0.01,-0.02 -0.01,-0.03 0,-0.02 -0.01,-0.03 -0.01,-0.02 0,-0.03 -0.01,-0.03 0,-0.02 0,-0.03 c 0,-0.3 0.24,-0.55 0.54,-0.55 0.3,0 0.54,0.25 0.54,0.55 0,0.3 -0.24,0.54 -0.54,0.54 z"
   style="fill:#000000;stroke-width:0" />
<path
   id="path3308"
   d="m 481.56,467.54 -0.05,-0.01 -0.05,0 -0.05,0 -0.05,0 -0.04,-0.01 -0.05,0 -0.05,-0.01 -0.04,-0.01 -0.05,-0.01 -0.05,-0.01 -0.04,-0.01 -0.04,-0.01 -0.05,-0.01 -0.04,-0.01 -0.04,-0.02 -0.04,-0.01 -0.04,-0.02 -0.04,-0.02 -0.04,-0.02 -0.04,-0.02 -0.04,-0.02 -0.04,-0.02 -0.04,-0.02 -0.03,-0.03 -0.04,-0.02 -0.04,-0.03 -0.04,-0.02 -0.03,-0.03 -0.04,-0.03 -0.03,-0.03 -0.04,-0.03 -0.03,-0.03 c -0.58,-0.56 -0.96,-1.71 -0.96,-2.87 0,-1.09 0.33,-2.25 0.8,-2.81 0.37,-0.44 0.88,-0.68 1.45,-0.68 v 0.26 c -0.85,0 -1.29,1.07 -1.29,3.14 0,2.11 0.45,3.22 1.3,3.22 h 0 c 0.84,0 1.29,-1.13 1.29,-3.21 0,-2.08 -0.44,-3.15 -1.3,-3.15 v -0.26 c 0.51,0 0.94,0.17 1.3,0.52 0.58,0.55 0.95,1.7 0.95,2.91 0,2.04 -0.9,3.45 -2.21,3.45 z"
   style="fill:#000000;stroke-width:0" />
<path
   id="path3310"
   d="m 486.54,467.54 -0.05,-0.01 -0.05,0 -0.05,0 -0.05,0 -0.04,-0.01 -0.05,0 -0.05,-0.01 -0.04,-0.01 -0.05,-0.01 -0.05,-0.01 -0.04,-0.01 -0.04,-0.01 -0.05,-0.01 -0.04,-0.01 -0.04,-0.02 -0.04,-0.01 -0.04,-0.02 -0.04,-0.02 -0.04,-0.02 -0.04,-0.02 -0.04,-0.02 -0.04,-0.02 -0.04,-0.02 -0.03,-0.03 -0.04,-0.02 -0.04,-0.03 -0.04,-0.02 -0.03,-0.03 -0.04,-0.03 -0.03,-0.03 -0.04,-0.03 -0.03,-0.03 c -0.58,-0.56 -0.96,-1.71 -0.96,-2.87 0,-1.09 0.33,-2.25 0.8,-2.81 0.37,-0.44 0.87,-0.68 1.45,-0.68 v 0.26 c -0.85,0 -1.29,1.07 -1.29,3.14 0,2.11 0.45,3.22 1.3,3.22 h 0 c 0.84,0 1.29,-1.13 1.29,-3.21 0,-2.08 -0.44,-3.15 -1.3,-3.15 v -0.26 c 0.51,0 0.94,0.17 1.3,0.52 0.58,0.55 0.96,1.7 0.96,2.91 0,2.04 -0.91,3.45 -2.22,3.45 z"
   style="fill:#000000;stroke-width:0" />
<path
   id="path3312"
   d="m 491.52,467.54 -0.05,-0.01 -0.05,0 -0.05,0 -0.05,0 -0.04,-0.01 -0.05,0 -0.05,-0.01 -0.04,-0.01 -0.05,-0.01 -0.05,-0.01 -0.04,-0.01 -0.04,-0.01 -0.05,-0.01 -0.04,-0.01 -0.04,-0.02 -0.04,-0.01 -0.04,-0.02 -0.04,-0.02 -0.04,-0.02 -0.04,-0.02 -0.04,-0.02 -0.04,-0.02 -0.04,-0.02 -0.03,-0.03 -0.04,-0.02 -0.04,-0.03 -0.04,-0.02 -0.03,-0.03 -0.04,-0.03 -0.03,-0.03 -0.04,-0.03 -0.03,-0.03 c -0.58,-0.56 -0.96,-1.71 -0.96,-2.87 0,-1.09 0.33,-2.25 0.8,-2.81 0.37,-0.44 0.87,-0.68 1.45,-0.68 v 0.26 c -0.85,0 -1.29,1.07 -1.29,3.14 0,2.11 0.45,3.22 1.3,3.22 h 0 c 0.84,0 1.29,-1.13 1.29,-3.21 0,-2.08 -0.44,-3.15 -1.3,-3.15 v -0.26 c 0.51,0 0.94,0.17 1.3,0.52 0.58,0.55 0.95,1.7 0.95,2.91 0,2.04 -0.9,3.45 -2.21,3.45 z"
   style="fill:#000000;stroke-width:0" />
<path
   id="path3314"
   d="m 496.88,467.54 -1.79,-0.91 v -0.14 c 0.11,0.05 0.23,0.09 0.27,0.11 0.17,0.07 0.34,0.11 0.44,0.11 0.21,0 0.3,-0.15 0.3,-0.47 v -4.51 c 0,-0.33 -0.08,-0.56 -0.24,-0.65 -0.15,-0.09 -0.29,-0.12 -0.7,-0.13 v -0.15 h 2.74 v 0.15 c -0.78,0.01 -0.94,0.11 -0.94,0.59 v 5.98 z"
   style="fill:#000000;stroke-width:0" />
<path
   id="path3316"
   d="m 502.54,461.05 -0.03,0 -0.03,0 -0.05,0.01 -0.04,0 -0.05,0 -0.04,0.01 -0.04,0 -0.04,0.01 -0.04,0 -0.03,0.01 -0.03,0.01 -0.03,0.01 -0.03,0 -0.03,0.01 -0.02,0.01 -0.03,0.01 -0.02,0.02 -0.02,0.01 -0.01,0.01 -0.02,0.01 -0.01,0.02 -0.02,0.01 -0.01,0.02 -0.01,0.01 -0.01,0.02 -0.01,0.02 0,0.02 -0.01,0.02 0,0.02 -0.01,0.02 0,0.03 0,0.02 0,0.03 c 0,0.15 0.05,0.38 0.18,0.86 l 1.13,4.19 c 0.16,0.53 0.31,0.66 0.82,0.72 v 0.24 h -2.97 v -0.24 c 0.14,-0.02 0.27,-0.04 0.32,-0.05 0.31,-0.04 0.41,-0.12 0.41,-0.32 0,-0.12 -0.05,-0.43 -0.1,-0.61 l -1.23,-4.47 c -0.16,-0.52 -0.31,-0.66 -0.79,-0.72 v -0.25 h 2.95 z"
   style="fill:#000000;stroke-width:0" />
<polygon
   id="polygon3318"
   points="506.97,460.56 506.97,459.3 507.55,459.3 507.55,460.56 508.32,460.56 508.32,461.05 507.55,461.05 507.55,464.42 507.22,464.42 504.84,461.05 505.14,461.05 506.96,463.65 506.96,461.05 505.14,461.05 504.84,461.05 504.84,460.56 "
   style="fill:#000000;stroke-width:0" />
<path
   id="path3320"
   d="m 513.7,484.8 v -6.69 h -1.44 v 6.78 c 0,1.13 -0.24,1.84 -1.43,2.12 v 0.19 c 1.77,0 2.87,-0.41 2.87,-2.4 z"
   style="fill:#000000;stroke-width:0" />
<polygon
   id="polygon3322"
   points="512.26,475.12 513.7,475.12 513.7,478.35 512.26,478.35 "
   style="fill:#000000;stroke-width:0" />
<polygon
   id="polygon3324"
   points="512.26,472.14 513.7,472.14 513.7,475.36 512.26,475.36 "
   style="fill:#000000;stroke-width:0" />
<path
   id="path3326"
   d="m 512.27,461.07 v -6.87 h 1.43 v 7.11 c 0,1.13 0.27,1.66 1.39,1.98 -1.12,0.29 -1.39,0.83 -1.39,1.95 v 7.13 h -1.43 v -6.87 c 0,-1.22 0.21,-1.9 1.5,-2.21 v -0.03 c -1.29,-0.3 -1.5,-0.99 -1.5,-2.19 z"
   style="fill:#000000;stroke-width:0" />
<polygon
   id="polygon3328"
   points="512.26,451.21 513.7,451.21 513.7,454.44 512.26,454.44 "
   style="fill:#000000;stroke-width:0" />
<polygon
   id="polygon3330"
   points="512.26,448.23 513.7,448.23 513.7,451.45 512.26,451.45 "
   style="fill:#000000;stroke-width:0" />
<path
   id="path3332"
   d="m 513.7,441.78 v 6.68 h -1.44 v -6.77 c 0,-1.14 -0.24,-1.85 -1.43,-2.12 v -0.19 c 1.77,0 2.87,0.41 2.87,2.4 z"
   style="fill:#000000;stroke-width:0" />
</g>  </g>
</svg>
