<?xml version="1.0" encoding="UTF-8" standalone="no"?>
<!-- Created with Inkscape (http://www.inkscape.org/) -->

<svg
   xmlns:ns0="http://www.iki.fi/pav/software/textext/"
   xmlns:dc="http://purl.org/dc/elements/1.1/"
   xmlns:cc="http://creativecommons.org/ns#"
   xmlns:rdf="http://www.w3.org/1999/02/22-rdf-syntax-ns#"
   xmlns:svg="http://www.w3.org/2000/svg"
   xmlns="http://www.w3.org/2000/svg"
   xmlns:sodipodi="http://sodipodi.sourceforge.net/DTD/sodipodi-0.dtd"
   xmlns:inkscape="http://www.inkscape.org/namespaces/inkscape"
   width="225"
   height="18"
   id="svg2"
   inkscape:label="Pozadí"
   version="1.1"
   inkscape:version="0.47 r22583"
   sodipodi:docname="ex2-x0-pdf.svg"
   inkscape:export-filename="/localhome/flidr/matlab/IDM-toolboxes/nft/nef/trunk/help/html/graphics/ex2-transition-pdf.png"
   inkscape:export-xdpi="120"
   inkscape:export-ydpi="120">
  <sodipodi:namedview
     id="base"
     pagecolor="#ffffff"
     bordercolor="#666666"
     borderopacity="1.0"
     inkscape:pageopacity="0.0"
     inkscape:pageshadow="2"
     inkscape:zoom="4.6091935"
     inkscape:cx="82.911584"
     inkscape:cy="8.49"
     inkscape:document-units="px"
     inkscape:current-layer="layer1"
     showgrid="false"
     inkscape:window-width="1472"
     inkscape:window-height="944"
     inkscape:window-x="0"
     inkscape:window-y="0"
     inkscape:window-maximized="0" />
  <defs
     id="defs3">
    <inkscape:perspective
       sodipodi:type="inkscape:persp3d"
       inkscape:vp_x="0 : 526.18109 : 1"
       inkscape:vp_y="0 : 1000 : 0"
       inkscape:vp_z="744.09448 : 526.18109 : 1"
       inkscape:persp3d-origin="372.04724 : 350.78739 : 1"
       id="perspective9" />
    <inkscape:perspective
       id="perspective4825"
       inkscape:persp3d-origin="0.5 : 0.33333333 : 1"
       inkscape:vp_z="1 : 0.5 : 1"
       inkscape:vp_y="0 : 1000 : 0"
       inkscape:vp_x="0 : 0.5 : 1"
       sodipodi:type="inkscape:persp3d" />
  </defs>
  <metadata
     id="metadata6">
    <rdf:RDF>
      <cc:Work
         rdf:about="">
        <dc:format>image/svg+xml</dc:format>
        <dc:type
           rdf:resource="http://purl.org/dc/dcmitype/StillImage" />
        <dc:title></dc:title>
      </cc:Work>
    </rdf:RDF>
  </metadata>
  <g
     inkscape:label="Vrstva 1"
     inkscape:groupmode="layer"
     id="layer1"
     transform="translate(-85.43,-275.165)">
    <g
       style="font-style:normal;font-variant:normal;font-weight:normal;font-stretch:normal;letter-spacing:normal;word-spacing:normal;text-anchor:start;fill:none;stroke:#000000;stroke-linecap:butt;stroke-linejoin:miter;stroke-miterlimit:10.43299961;stroke-opacity:1;stroke-dasharray:none;stroke-dashoffset:0"
       ns0:preamble="/localhome/flidr/Dokumenty/Pracovn\xc3\xad/Ilustrace/NEF/preamble.inc"
       ns0:text="\\begin{align*}\n  p(\\bdx_0)=\\mathcal{N}\\left\\{\\bdx_0;\n    \\left(\n      -0.05\\ 0.001\\ 2\\ -0.055\n    \\right)^T,0.01\\cdot\\bdI_4\n\t\\right)\n\\end{align*}"
       word-spacing="normal"
       letter-spacing="normal"
       font-size-adjust="none"
       font-stretch="normal"
       font-weight="normal"
       font-variant="normal"
       font-style="normal"
       stroke-miterlimit="10.433"
       xml:space="preserve"
       transform="matrix(1,0,0,-1,-196.84,762.395)"
       id="content-0">
<path
   id="path4431"
   d="m 284.04,479.77 h 0.23 c 0,0 0.02,0 0.03,0 0.13,0.06 0.39,-0.13 0.39,-0.27 0,-0.09 -0.36,-1.51 -0.71,-2.82 -0.27,-1 -0.5,-1.95 -0.58,-2.23 -0.1,-0.46 -0.23,-0.58 -0.66,-0.59 v -0.16 h 2.04 v 0.15 c -0.47,0 -0.64,0.09 -0.64,0.3 0,0.14 0.17,0.91 0.37,1.65 0.25,-0.13 0.43,-0.17 0.66,-0.17 l -0.04,0.19 c -0.28,0 -0.48,0.15 -0.48,0.37 0,0.34 0.36,1.64 0.65,2.38 0.27,0.68 0.84,1.16 1.34,1.13 h 0 c 0.43,-0.02 0.62,-0.27 0.62,-0.85 0,-0.66 -0.29,-1.52 -0.72,-2.13 -0.42,-0.59 -0.89,-0.9 -1.41,-0.9 l 0.04,-0.19 c 1.45,0 2.99,1.67 2.99,3.26 0,0.78 -0.44,1.24 -1.15,1.24 -0.65,0 -1.12,-0.31 -1.7,-1.12 l 0.29,0.99 0.03,0.09 c 0,0 -0.01,0.01 -0.02,0.03 l -0.02,0.01 c 0,0.01 -0.01,0.01 -0.01,0.01 l -0.02,-0.01 -1.54,-0.22 z"
   style="fill:#000000;stroke-width:0" />
<path
   id="path4433"
   d="m 292.35,473.99 -0.14,0.1 -0.14,0.11 -0.12,0.1 -0.12,0.12 -0.11,0.11 -0.11,0.12 -0.1,0.12 -0.09,0.12 -0.08,0.13 -0.08,0.13 -0.08,0.13 -0.07,0.13 -0.06,0.14 -0.06,0.14 -0.05,0.14 -0.05,0.14 -0.04,0.14 -0.04,0.15 -0.04,0.15 -0.03,0.15 -0.03,0.15 -0.02,0.15 -0.02,0.16 -0.02,0.15 -0.03,0.32 -0.02,0.32 0,0.32 -0.01,0.33 c 0,1.51 0.29,3.39 1.76,4.19 v 0.21 c -1.75,-0.77 -2.69,-2.69 -2.69,-4.53 0,-1.91 0.95,-3.66 2.69,-4.52 z"
   style="fill:#000000;stroke-width:0" />
<path
   id="path4435"
   d="m 296.93,476.96 -0.01,-0.02 -0.02,-0.02 -0.02,-0.02 -0.01,-0.02 -0.02,-0.02 -0.02,-0.02 -0.01,-0.02 -0.02,-0.02 -0.03,-0.04 -0.03,-0.03 -0.02,-0.04 -0.03,-0.03 -0.02,-0.03 -0.03,-0.02 -0.02,-0.03 -0.02,-0.02 -0.02,-0.02 -0.02,-0.02 -0.02,-0.02 -0.02,-0.02 -0.01,-0.01 -0.02,-0.01 -0.02,-0.02 -0.01,-0.01 -0.02,-0.01 -0.02,-0.01 -0.01,0 -0.02,-0.01 -0.01,-0.01 -0.02,0 -0.01,0 -0.02,-0.01 -0.01,0 -0.02,0 -0.02,0 -0.01,0 c -0.19,0 -0.29,0.15 -0.37,0.53 l -0.32,1.55 c 0.03,0.04 0.04,0.05 0.09,0.13 0.35,0.58 0.6,0.82 0.83,0.82 0.06,0 0.13,-0.03 0.25,-0.09 0.14,-0.09 0.2,-0.11 0.32,-0.11 0.29,0 0.55,0.24 0.55,0.52 0,0.32 -0.28,0.61 -0.57,0.61 -0.47,0 -0.78,-0.27 -1.58,-1.37 -0.18,0.85 -0.26,1.09 -0.45,1.37 l -1.66,-0.24 v -0.27 c 0.21,0.03 0.26,0.03 0.35,0.03 0.32,0 0.46,-0.19 0.56,-0.67 l 0.29,-1.54 -0.43,-0.7 c -0.2,-0.31 -0.31,-0.4 -0.48,-0.4 -0.06,0 -0.11,0.02 -0.21,0.08 -0.16,0.09 -0.28,0.13 -0.4,0.13 -0.31,0 -0.55,-0.25 -0.55,-0.56 0,-0.35 0.26,-0.59 0.64,-0.59 0.5,0 0.73,0.2 1.3,1.16 l 0.24,0.38 c 0.15,-0.74 0.23,-1 0.45,-1.28 0.12,-0.16 0.32,-0.26 0.52,-0.26 0.48,0 0.9,0.34 1.5,1.22 z"
   style="fill:#000000;stroke-width:0" />
<path
   id="path4437"
   d="m 300.4,479.37 -0.04,0 -0.04,-0.01 -0.03,0 -0.04,0 -0.04,0 -0.03,-0.01 -0.04,0 -0.03,-0.01 -0.04,0 -0.03,-0.01 -0.04,-0.01 -0.03,-0.01 -0.03,-0.01 -0.03,-0.01 -0.04,-0.01 -0.03,-0.01 -0.03,-0.01 -0.03,-0.02 -0.03,-0.01 -0.03,-0.02 -0.03,-0.01 -0.03,-0.02 -0.03,-0.02 -0.03,-0.01 -0.02,-0.02 -0.03,-0.02 -0.03,-0.02 -0.03,-0.02 -0.02,-0.03 -0.03,-0.02 -0.03,-0.02 -0.02,-0.03 c -0.44,-0.42 -0.73,-1.29 -0.73,-2.18 0,-0.82 0.25,-1.71 0.61,-2.13 0.28,-0.34 0.66,-0.52 1.1,-0.52 v 0.2 c -0.65,0 -0.98,0.81 -0.98,2.38 0,1.61 0.34,2.45 0.99,2.45 h 0 c 0.63,0 0.98,-0.86 0.98,-2.44 0,-1.58 -0.34,-2.39 -0.99,-2.39 v -0.2 c 0.39,0 0.71,0.13 0.99,0.4 0.43,0.41 0.72,1.29 0.72,2.21 0,1.55 -0.69,2.62 -1.68,2.62 z"
   style="fill:#000000;stroke-width:0" />
<path
   id="path4439"
   d="m 302.99,482.45 0.06,-0.04 0.06,-0.04 0.06,-0.04 0.06,-0.05 0.05,-0.04 0.06,-0.05 0.05,-0.04 0.05,-0.05 0.05,-0.04 0.05,-0.05 0.04,-0.04 0.05,-0.05 0.04,-0.04 0.04,-0.05 0.04,-0.05 0.04,-0.04 c 0.2,-0.25 0.36,-0.51 0.48,-0.78 0.12,-0.27 0.22,-0.63 0.31,-1.08 0.1,-0.56 0.16,-1.2 0.16,-1.89 0,-0.64 -0.07,-1.25 -0.19,-1.84 -0.13,-0.59 -0.32,-1.07 -0.58,-1.46 -0.26,-0.37 -0.58,-0.67 -0.98,-0.9 v -0.18 c 0.8,0.36 1.45,0.94 1.95,1.78 0.49,0.83 0.74,1.75 0.74,2.75 0,0.69 -0.13,1.36 -0.38,1.99 -0.25,0.64 -0.61,1.19 -1.08,1.67 -0.33,0.33 -0.74,0.62 -1.23,0.85 z"
   style="fill:#000000;stroke-width:0" />
<polygon
   id="polygon4441"
   points="309.8,478.8 316.46,478.8 316.46,479.36 309.8,479.36 "
   style="fill:#000000;stroke-width:0" />
<polygon
   id="polygon4443"
   points="309.8,476.79 316.46,476.79 316.46,477.34 309.8,477.34 "
   style="fill:#000000;stroke-width:0" />
<path
   id="path4445"
   d="m 324.02,480.01 v -0.06 c 0,-1.15 1.48,-3 1.64,-4.39 h 0.15 c 1.6,2.45 1.48,6.12 2.19,6.12 0.18,0 0.3,-0.14 0.53,-0.14 0.21,0 0.45,0.14 0.45,0.4 0,0.33 -0.32,0.44 -0.59,0.44 -1.54,0 -1.21,-3.22 -2.38,-5.1 0,0.03 0.01,0.07 0.01,0.1 0,0.9 -1.52,2.8 -1.52,4.59 0,0.14 0.02,0.28 0.04,0.41 -1.38,-0.75 -1.05,-6.56 -2.98,-6.56 -0.31,0 -0.72,0.23 -0.72,0.56 0,0.25 0.15,0.36 0.26,0.36 0.1,0 0.21,-0.04 0.31,-0.04 0.2,0 0.48,0.16 0.48,0.47 0,0.22 -0.22,0.46 -0.51,0.46 -0.43,0 -0.92,-0.42 -0.92,-1.06 0,-0.43 0.38,-1.01 1.1,-1.01 2.04,0 2.21,3.87 2.45,4.46 z"
   style="fill:#000000;stroke-width:0" />
<path
   id="path4447"
   d="m 333.72,471.18 0,-0.08 0,-0.07 0.01,-0.07 0,-0.07 0.01,-0.07 0,-0.07 0.01,-0.07 0.01,-0.06 0.02,-0.12 0.03,-0.12 0.03,-0.1 0.03,-0.1 0.04,-0.1 0.04,-0.08 0.05,-0.09 0.05,-0.07 0.06,-0.07 0.06,-0.07 0.06,-0.06 0.07,-0.05 0.07,-0.05 0.08,-0.04 0.08,-0.04 0.08,-0.04 0.09,-0.03 0.09,-0.03 0.09,-0.02 0.1,-0.02 0.1,-0.02 0.11,-0.02 0.11,-0.01 0.11,-0.01 0.12,0 0.12,-0.01 0.12,0 0.12,0 v 0.15 c -0.93,0.22 -1.19,0.74 -1.19,1.69 v 5.36 c 0,0.99 -0.17,1.53 -1.2,1.75 v 0.03 c 1.03,0.25 1.2,0.79 1.2,1.77 v 5.36 c 0,0.95 0.26,1.48 1.19,1.7 v 0.15 c -1.35,0 -2.17,-0.28 -2.17,-1.92 v -5.49 c 0,-0.89 -0.21,-1.32 -1.11,-1.57 0.9,-0.25 1.11,-0.68 1.11,-1.57 z"
   style="fill:#000000;stroke-width:0" />
<path
   id="path4449"
   d="m 341.29,476.96 -0.02,-0.02 -0.02,-0.02 -0.01,-0.02 -0.02,-0.02 -0.02,-0.02 -0.01,-0.02 -0.02,-0.02 -0.01,-0.02 -0.03,-0.04 -0.03,-0.03 -0.03,-0.04 -0.02,-0.03 -0.03,-0.03 -0.02,-0.02 -0.02,-0.03 -0.02,-0.02 -0.03,-0.02 -0.02,-0.02 -0.01,-0.02 -0.02,-0.02 -0.02,-0.01 -0.02,-0.01 -0.01,-0.02 -0.02,-0.01 -0.02,-0.01 -0.01,-0.01 -0.02,0 -0.01,-0.01 -0.02,-0.01 -0.01,0 -0.02,0 -0.01,-0.01 -0.02,0 -0.01,0 -0.02,0 -0.02,0 c -0.19,0 -0.29,0.15 -0.37,0.53 l -0.32,1.55 c 0.03,0.04 0.05,0.05 0.09,0.13 0.35,0.58 0.6,0.82 0.83,0.82 0.06,0 0.13,-0.03 0.25,-0.09 0.14,-0.09 0.21,-0.11 0.32,-0.11 0.3,0 0.56,0.24 0.56,0.52 0,0.32 -0.28,0.61 -0.58,0.61 -0.47,0 -0.78,-0.27 -1.57,-1.37 -0.18,0.85 -0.26,1.09 -0.45,1.37 l -1.67,-0.24 v -0.27 c 0.21,0.03 0.26,0.03 0.35,0.03 0.32,0 0.46,-0.19 0.56,-0.67 l 0.3,-1.54 -0.44,-0.7 c -0.2,-0.31 -0.31,-0.4 -0.48,-0.4 -0.06,0 -0.11,0.02 -0.21,0.08 -0.16,0.09 -0.28,0.13 -0.4,0.13 -0.3,0 -0.54,-0.25 -0.54,-0.56 0,-0.35 0.26,-0.59 0.63,-0.59 0.5,0 0.73,0.2 1.31,1.16 l 0.24,0.38 c 0.15,-0.74 0.23,-1 0.45,-1.28 0.12,-0.16 0.32,-0.26 0.51,-0.26 0.48,0 0.9,0.34 1.51,1.22 z"
   style="fill:#000000;stroke-width:0" />
<path
   id="path4451"
   d="m 344.76,479.37 -0.04,0 -0.03,-0.01 -0.04,0 -0.04,0 -0.04,0 -0.03,-0.01 -0.04,0 -0.03,-0.01 -0.04,0 -0.03,-0.01 -0.03,-0.01 -0.04,-0.01 -0.03,-0.01 -0.03,-0.01 -0.03,-0.01 -0.04,-0.01 -0.03,-0.01 -0.03,-0.02 -0.03,-0.01 -0.03,-0.02 -0.03,-0.01 -0.03,-0.02 -0.02,-0.02 -0.03,-0.01 -0.03,-0.02 -0.03,-0.02 -0.03,-0.02 -0.02,-0.02 -0.03,-0.03 -0.03,-0.02 -0.02,-0.02 -0.03,-0.03 c -0.44,-0.42 -0.73,-1.29 -0.73,-2.18 0,-0.82 0.25,-1.71 0.61,-2.13 0.28,-0.34 0.66,-0.52 1.1,-0.52 v 0.2 c -0.65,0 -0.98,0.81 -0.98,2.38 0,1.61 0.34,2.45 0.99,2.45 h 0 c 0.64,0 0.98,-0.86 0.98,-2.44 0,-1.58 -0.34,-2.39 -0.99,-2.39 v -0.2 c 0.39,0 0.72,0.13 0.99,0.4 0.44,0.41 0.72,1.29 0.72,2.21 0,1.55 -0.68,2.62 -1.68,2.62 z"
   style="fill:#000000;stroke-width:0" />
<path
   id="path4453"
   d="m 349.12,475.68 0.01,0.01 0,0.01 0,0.01 0,0.01 0,0.03 0,0.02 0,0.02 0,0.02 0,0.02 0,0.01 0,0.01 0.01,0.01 c 0,0.72 -0.41,0.86 -0.63,0.86 -0.16,0 -0.57,-0.02 -0.57,-0.57 0,-0.37 0.32,-0.49 0.49,-0.49 0.08,0 0.11,0.04 0.19,0.04 0.06,0 0.16,-0.07 0.16,-0.24 0,-0.13 -0.04,-0.51 -0.67,-0.95 l 0.09,-0.21 c 0.47,0.32 0.88,0.76 0.92,1.38 z"
   style="fill:#000000;stroke-width:0" />
<path
   id="path4455"
   d="m 349.05,479.71 -0.01,0.03 0,0.03 0,0.03 -0.01,0.03 0,0.03 -0.01,0.02 -0.01,0.03 -0.01,0.02 -0.01,0.03 -0.01,0.02 -0.02,0.03 -0.01,0.02 -0.02,0.02 -0.02,0.02 -0.01,0.03 -0.02,0.01 -0.02,0.02 -0.02,0.02 -0.02,0.02 -0.03,0.01 -0.02,0.02 -0.02,0.01 -0.03,0.02 -0.02,0.01 -0.02,0.01 -0.03,0.01 -0.03,0 -0.02,0.01 -0.03,0.01 -0.03,0 -0.03,0 -0.02,0 c -0.3,0 -0.55,-0.25 -0.55,-0.57 0,-0.37 0.34,-0.53 0.55,-0.53 0.21,0 0.56,0.17 0.56,0.53 z"
   style="fill:#000000;stroke-width:0" />
<path
   id="path4457"
   d="m 355.9,473.92 -0.14,0.1 -0.13,0.11 -0.13,0.11 -0.12,0.11 -0.11,0.11 -0.1,0.12 -0.1,0.12 -0.09,0.13 -0.09,0.12 -0.08,0.13 -0.07,0.13 -0.07,0.13 -0.07,0.14 -0.05,0.14 -0.06,0.14 -0.04,0.14 -0.05,0.15 -0.04,0.14 -0.03,0.15 -0.03,0.15 -0.03,0.15 -0.03,0.15 -0.02,0.16 -0.02,0.15 -0.02,0.32 -0.02,0.32 -0.01,0.32 0,0.33 c 0,1.52 0.29,3.39 1.75,4.2 v 0.21 c -1.74,-0.78 -2.69,-2.69 -2.69,-4.54 0,-1.91 0.96,-3.65 2.69,-4.52 z"
   style="fill:#000000;stroke-width:0" />
<polygon
   id="polygon4459"
   points="356.89,477.98 362.99,477.98 362.99,478.48 356.89,478.48 "
   style="fill:#000000;stroke-width:0" />
<path
   id="path4461"
   d="m 366.36,482.48 -0.06,-0.01 -0.05,0 -0.05,0 -0.04,0 -0.05,-0.01 -0.05,0 -0.05,-0.01 -0.04,-0.01 -0.05,-0.01 -0.04,-0.01 -0.05,-0.01 -0.04,-0.01 -0.04,-0.01 -0.05,-0.01 -0.04,-0.02 -0.04,-0.01 -0.04,-0.02 -0.04,-0.02 -0.04,-0.02 -0.04,-0.02 -0.04,-0.02 -0.04,-0.02 -0.03,-0.02 -0.04,-0.03 -0.04,-0.02 -0.04,-0.03 -0.03,-0.02 -0.04,-0.03 -0.03,-0.03 -0.04,-0.03 -0.03,-0.03 -0.04,-0.03 c -0.58,-0.56 -0.96,-1.71 -0.96,-2.87 0,-1.09 0.33,-2.25 0.8,-2.81 0.37,-0.44 0.88,-0.68 1.46,-0.68 v 0.26 c -0.86,0 -1.3,1.07 -1.3,3.14 0,2.11 0.45,3.22 1.31,3.22 h 0 c 0.83,0 1.28,-1.13 1.28,-3.21 0,-2.08 -0.44,-3.15 -1.29,-3.15 v -0.26 c 0.5,0 0.93,0.17 1.29,0.52 0.58,0.55 0.96,1.7 0.96,2.91 0,2.04 -0.91,3.45 -2.21,3.45 z"
   style="fill:#000000;stroke-width:0" />
<path
   id="path4463"
   d="m 370.16,476.69 -0.03,0 -0.03,-0.01 -0.02,0 -0.03,0 -0.03,-0.01 -0.02,-0.01 -0.03,-0.01 -0.02,-0.01 -0.02,-0.01 -0.03,-0.01 -0.02,-0.01 -0.02,-0.02 -0.02,-0.01 -0.02,-0.02 -0.02,-0.01 -0.02,-0.02 -0.02,-0.02 -0.02,-0.02 -0.01,-0.02 -0.02,-0.02 -0.01,-0.02 -0.01,-0.02 -0.02,-0.03 -0.01,-0.02 -0.01,-0.03 0,-0.02 -0.01,-0.03 -0.01,-0.02 0,-0.03 -0.01,-0.03 0,-0.02 0,-0.03 c 0,-0.3 0.24,-0.55 0.54,-0.55 0.3,0 0.54,0.25 0.54,0.55 0,0.3 -0.24,0.54 -0.54,0.54 z"
   style="fill:#000000;stroke-width:0" />
<path
   id="path4465"
   d="m 374.07,482.48 -0.05,-0.01 -0.05,0 -0.05,0 -0.05,0 -0.04,-0.01 -0.05,0 -0.05,-0.01 -0.04,-0.01 -0.05,-0.01 -0.05,-0.01 -0.04,-0.01 -0.04,-0.01 -0.05,-0.01 -0.04,-0.01 -0.04,-0.02 -0.04,-0.01 -0.04,-0.02 -0.04,-0.02 -0.04,-0.02 -0.04,-0.02 -0.04,-0.02 -0.04,-0.02 -0.04,-0.02 -0.03,-0.03 -0.04,-0.02 -0.04,-0.03 -0.04,-0.02 -0.03,-0.03 -0.04,-0.03 -0.03,-0.03 -0.04,-0.03 -0.03,-0.03 c -0.58,-0.56 -0.96,-1.71 -0.96,-2.87 0,-1.09 0.33,-2.25 0.8,-2.81 0.37,-0.44 0.87,-0.68 1.45,-0.68 v 0.26 c -0.85,0 -1.29,1.07 -1.29,3.14 0,2.11 0.45,3.22 1.3,3.22 h 0 c 0.84,0 1.29,-1.13 1.29,-3.21 0,-2.08 -0.44,-3.15 -1.3,-3.15 v -0.26 c 0.51,0 0.94,0.17 1.3,0.52 0.58,0.55 0.96,1.7 0.96,2.91 0,2.04 -0.91,3.45 -2.22,3.45 z"
   style="fill:#000000;stroke-width:0" />
<path
   id="path4467"
   d="m 378.33,481.55 h 1.96 c 0.16,0 0.19,0.02 0.23,0.09 l 0.37,0.88 -0.09,0.07 c -0.15,-0.2 -0.25,-0.26 -0.45,-0.26 h -2.09 l -1.08,-2.36 c -0.01,-0.02 -0.01,-0.03 -0.01,-0.05 0,-0.05 0.04,-0.07 0.12,-0.07 0.32,0 0.71,-0.08 1.12,-0.21 1.15,-0.36 1.68,-0.98 1.68,-1.97 0,-0.95 -0.61,-1.7 -1.39,-1.7 -0.2,0 -0.37,0.07 -0.67,0.29 -0.31,0.23 -0.54,0.33 -0.75,0.33 -0.29,0 -0.43,-0.12 -0.43,-0.37 0,-0.38 0.47,-0.62 1.21,-0.62 0.84,0 1.56,0.27 2.06,0.78 0.46,0.45 0.66,1.01 0.66,1.77 0,0.72 -0.18,1.18 -0.68,1.68 -0.44,0.43 -1.01,0.66 -2.18,0.87 z"
   style="fill:#000000;stroke-width:0" />
<path
   id="path4469"
   d="m 386.53,482.48 -0.05,-0.01 -0.05,0 -0.05,0 -0.05,0 -0.05,-0.01 -0.04,0 -0.05,-0.01 -0.05,-0.01 -0.04,-0.01 -0.05,-0.01 -0.04,-0.01 -0.05,-0.01 -0.04,-0.01 -0.04,-0.01 -0.04,-0.02 -0.04,-0.01 -0.04,-0.02 -0.05,-0.02 -0.04,-0.02 -0.03,-0.02 -0.04,-0.02 -0.04,-0.02 -0.04,-0.02 -0.04,-0.03 -0.03,-0.02 -0.04,-0.03 -0.04,-0.02 -0.03,-0.03 -0.04,-0.03 -0.03,-0.03 -0.04,-0.03 -0.03,-0.03 c -0.58,-0.56 -0.96,-1.71 -0.96,-2.87 0,-1.09 0.33,-2.25 0.8,-2.81 0.36,-0.44 0.87,-0.68 1.45,-0.68 v 0.26 c -0.86,0 -1.29,1.07 -1.29,3.14 0,2.11 0.44,3.22 1.3,3.22 h 0 c 0.84,0 1.29,-1.13 1.29,-3.21 0,-2.08 -0.44,-3.15 -1.3,-3.15 v -0.26 c 0.51,0 0.94,0.17 1.3,0.52 0.57,0.55 0.95,1.7 0.95,2.91 0,2.04 -0.9,3.45 -2.21,3.45 z"
   style="fill:#000000;stroke-width:0" />
<path
   id="path4471"
   d="m 390.33,476.69 -0.02,0 -0.03,-0.01 -0.03,0 -0.02,0 -0.03,-0.01 -0.03,-0.01 -0.02,-0.01 -0.03,-0.01 -0.02,-0.01 -0.02,-0.01 -0.02,-0.01 -0.03,-0.02 -0.02,-0.01 -0.02,-0.02 -0.02,-0.01 -0.02,-0.02 -0.01,-0.02 -0.02,-0.02 -0.02,-0.02 -0.01,-0.02 -0.02,-0.02 -0.01,-0.02 -0.01,-0.03 -0.01,-0.02 -0.01,-0.03 -0.01,-0.02 -0.01,-0.03 0,-0.02 -0.01,-0.03 0,-0.03 0,-0.02 0,-0.03 c 0,-0.3 0.24,-0.55 0.53,-0.55 0.3,0 0.54,0.25 0.54,0.55 0,0.3 -0.24,0.54 -0.54,0.54 z"
   style="fill:#000000;stroke-width:0" />
<path
   id="path4473"
   d="m 394.25,482.48 -0.05,-0.01 -0.05,0 -0.05,0 -0.05,0 -0.05,-0.01 -0.05,0 -0.04,-0.01 -0.05,-0.01 -0.05,-0.01 -0.04,-0.01 -0.04,-0.01 -0.05,-0.01 -0.04,-0.01 -0.04,-0.01 -0.05,-0.02 -0.04,-0.01 -0.04,-0.02 -0.04,-0.02 -0.04,-0.02 -0.04,-0.02 -0.04,-0.02 -0.03,-0.02 -0.04,-0.02 -0.04,-0.03 -0.04,-0.02 -0.03,-0.03 -0.04,-0.02 -0.04,-0.03 -0.03,-0.03 -0.04,-0.03 -0.03,-0.03 -0.04,-0.03 c -0.58,-0.56 -0.95,-1.71 -0.95,-2.87 0,-1.09 0.33,-2.25 0.79,-2.81 0.37,-0.44 0.88,-0.68 1.46,-0.68 v 0.26 c -0.86,0 -1.3,1.07 -1.3,3.14 0,2.11 0.45,3.22 1.31,3.22 h 0 c 0.83,0 1.28,-1.13 1.28,-3.21 0,-2.08 -0.43,-3.15 -1.29,-3.15 v -0.26 c 0.51,0 0.93,0.17 1.29,0.52 0.58,0.55 0.96,1.7 0.96,2.91 0,2.04 -0.91,3.45 -2.21,3.45 z"
   style="fill:#000000;stroke-width:0" />
<path
   id="path4475"
   d="m 399.24,482.48 -0.06,-0.01 -0.05,0 -0.04,0 -0.05,0 -0.05,-0.01 -0.05,0 -0.05,-0.01 -0.04,-0.01 -0.05,-0.01 -0.04,-0.01 -0.05,-0.01 -0.04,-0.01 -0.04,-0.01 -0.05,-0.01 -0.04,-0.02 -0.04,-0.01 -0.04,-0.02 -0.04,-0.02 -0.04,-0.02 -0.04,-0.02 -0.04,-0.02 -0.04,-0.02 -0.03,-0.02 -0.04,-0.03 -0.04,-0.02 -0.04,-0.03 -0.03,-0.02 -0.04,-0.03 -0.03,-0.03 -0.04,-0.03 -0.03,-0.03 -0.04,-0.03 c -0.58,-0.56 -0.96,-1.71 -0.96,-2.87 0,-1.09 0.33,-2.25 0.8,-2.81 0.37,-0.44 0.88,-0.68 1.46,-0.68 v 0.26 c -0.86,0 -1.3,1.07 -1.3,3.14 0,2.11 0.45,3.22 1.31,3.22 h 0 c 0.83,0 1.28,-1.13 1.28,-3.21 0,-2.08 -0.44,-3.15 -1.29,-3.15 v -0.26 c 0.5,0 0.93,0.17 1.29,0.52 0.58,0.55 0.96,1.7 0.96,2.91 0,2.04 -0.91,3.45 -2.21,3.45 z"
   style="fill:#000000;stroke-width:0" />
<path
   id="path4477"
   d="m 404.58,482.48 -1.79,-0.91 v -0.14 c 0.12,0.05 0.23,0.09 0.27,0.11 0.18,0.07 0.35,0.11 0.45,0.11 0.21,0 0.3,-0.15 0.3,-0.47 v -4.51 c 0,-0.33 -0.08,-0.56 -0.24,-0.65 -0.15,-0.09 -0.29,-0.12 -0.71,-0.13 v -0.15 h 2.75 v 0.15 c -0.79,0.01 -0.95,0.11 -0.95,0.59 v 5.97 z"
   style="fill:#000000;stroke-width:0" />
<path
   id="path4479"
   d="m 413.89,477.11 -0.13,0.04 c -0.37,-0.56 -0.5,-0.65 -0.95,-0.65 h -2.38 l 1.67,1.75 c 0.89,0.93 1.28,1.68 1.28,2.46 0,1 -0.81,1.77 -1.84,1.77 -0.55,0 -1.07,-0.22 -1.44,-0.62 -0.32,-0.34 -0.47,-0.66 -0.64,-1.37 l 0.21,-0.05 c 0.4,0.98 0.76,1.3 1.45,1.3 0.83,0 1.4,-0.57 1.4,-1.41 0,-0.77 -0.46,-1.7 -1.29,-2.59 l -1.78,-1.88 v -0.12 h 3.89 z"
   style="fill:#000000;stroke-width:0" />
<polygon
   id="polygon4481"
   points="419.67,477.98 425.77,477.98 425.77,478.48 419.67,478.48 "
   style="fill:#000000;stroke-width:0" />
<path
   id="path4483"
   d="m 431.36,482.48 -0.05,-0.01 -0.05,0 -0.05,0 -0.05,0 -0.05,-0.01 -0.05,0 -0.04,-0.01 -0.05,-0.01 -0.05,-0.01 -0.04,-0.01 -0.04,-0.01 -0.05,-0.01 -0.04,-0.01 -0.04,-0.01 -0.05,-0.02 -0.04,-0.01 -0.04,-0.02 -0.04,-0.02 -0.04,-0.02 -0.04,-0.02 -0.04,-0.02 -0.03,-0.02 -0.04,-0.02 -0.04,-0.03 -0.04,-0.02 -0.03,-0.03 -0.04,-0.02 -0.04,-0.03 -0.03,-0.03 -0.04,-0.03 -0.03,-0.03 -0.04,-0.03 c -0.57,-0.56 -0.95,-1.71 -0.95,-2.87 0,-1.09 0.32,-2.25 0.79,-2.81 0.37,-0.44 0.88,-0.68 1.46,-0.68 v 0.26 c -0.86,0 -1.3,1.07 -1.3,3.14 0,2.11 0.45,3.22 1.31,3.22 h 0 c 0.84,0 1.28,-1.13 1.28,-3.21 0,-2.08 -0.44,-3.15 -1.29,-3.15 v -0.26 c 0.51,0 0.94,0.17 1.29,0.52 0.58,0.55 0.96,1.7 0.96,2.91 0,2.04 -0.91,3.45 -2.21,3.45 z"
   style="fill:#000000;stroke-width:0" />
<path
   id="path4485"
   d="m 435.16,476.69 -0.03,0 -0.02,-0.01 -0.03,0 -0.03,0 -0.02,-0.01 -0.03,-0.01 -0.02,-0.01 -0.03,-0.01 -0.02,-0.01 -0.02,-0.01 -0.03,-0.01 -0.02,-0.02 -0.02,-0.01 -0.02,-0.02 -0.02,-0.01 -0.02,-0.02 -0.02,-0.02 -0.01,-0.02 -0.02,-0.02 -0.01,-0.02 -0.02,-0.02 -0.01,-0.02 -0.01,-0.03 -0.01,-0.02 -0.01,-0.03 -0.01,-0.02 -0.01,-0.03 -0.01,-0.02 0,-0.03 0,-0.03 -0.01,-0.02 0,-0.03 c 0,-0.3 0.24,-0.55 0.54,-0.55 0.3,0 0.54,0.25 0.54,0.55 0,0.3 -0.24,0.54 -0.54,0.54 z"
   style="fill:#000000;stroke-width:0" />
<path
   id="path4487"
   d="m 439.08,482.48 -0.06,-0.01 -0.05,0 -0.04,0 -0.05,0 -0.05,-0.01 -0.05,0 -0.05,-0.01 -0.04,-0.01 -0.05,-0.01 -0.04,-0.01 -0.05,-0.01 -0.04,-0.01 -0.04,-0.01 -0.05,-0.01 -0.04,-0.02 -0.04,-0.01 -0.04,-0.02 -0.04,-0.02 -0.04,-0.02 -0.04,-0.02 -0.04,-0.02 -0.04,-0.02 -0.03,-0.02 -0.04,-0.03 -0.04,-0.02 -0.04,-0.03 -0.03,-0.02 -0.04,-0.03 -0.03,-0.03 -0.04,-0.03 -0.03,-0.03 -0.04,-0.03 c -0.58,-0.56 -0.96,-1.71 -0.96,-2.87 0,-1.09 0.33,-2.25 0.8,-2.81 0.37,-0.44 0.88,-0.68 1.46,-0.68 v 0.26 c -0.86,0 -1.3,1.07 -1.3,3.14 0,2.11 0.45,3.22 1.31,3.22 h 0 c 0.83,0 1.28,-1.13 1.28,-3.21 0,-2.08 -0.44,-3.15 -1.29,-3.15 v -0.26 c 0.5,0 0.93,0.17 1.29,0.52 0.58,0.55 0.96,1.7 0.96,2.91 0,2.04 -0.91,3.45 -2.21,3.45 z"
   style="fill:#000000;stroke-width:0" />
<path
   id="path4489"
   d="m 443.33,481.55 h 1.95 c 0.16,0 0.2,0.02 0.23,0.09 l 0.38,0.88 -0.09,0.07 c -0.15,-0.2 -0.25,-0.26 -0.46,-0.26 h -2.08 l -1.09,-2.36 c -0.01,-0.02 -0.01,-0.03 -0.01,-0.05 0,-0.05 0.04,-0.07 0.12,-0.07 0.32,0 0.72,-0.08 1.13,-0.21 1.14,-0.36 1.67,-0.98 1.67,-1.97 0,-0.95 -0.61,-1.7 -1.38,-1.7 -0.2,0 -0.37,0.07 -0.67,0.29 -0.32,0.23 -0.55,0.33 -0.76,0.33 -0.29,0 -0.43,-0.12 -0.43,-0.37 0,-0.38 0.47,-0.62 1.22,-0.62 0.84,0 1.55,0.27 2.05,0.78 0.46,0.45 0.67,1.01 0.67,1.77 0,0.72 -0.19,1.18 -0.69,1.68 -0.44,0.43 -1.01,0.66 -2.18,0.87 z"
   style="fill:#000000;stroke-width:0" />
<path
   id="path4491"
   d="m 448.32,481.55 h 1.95 c 0.16,0 0.2,0.02 0.23,0.09 l 0.38,0.88 -0.09,0.07 c -0.15,-0.2 -0.25,-0.26 -0.46,-0.26 h -2.08 l -1.09,-2.36 c -0.01,-0.02 -0.01,-0.03 -0.01,-0.05 0,-0.05 0.04,-0.07 0.12,-0.07 0.32,0 0.72,-0.08 1.12,-0.21 1.15,-0.36 1.68,-0.98 1.68,-1.97 0,-0.95 -0.61,-1.7 -1.39,-1.7 -0.2,0 -0.36,0.07 -0.66,0.29 -0.32,0.23 -0.55,0.33 -0.76,0.33 -0.29,0 -0.43,-0.12 -0.43,-0.37 0,-0.38 0.47,-0.62 1.22,-0.62 0.83,0 1.55,0.27 2.05,0.78 0.46,0.45 0.67,1.01 0.67,1.77 0,0.72 -0.19,1.18 -0.69,1.68 -0.44,0.43 -1.01,0.66 -2.18,0.87 z"
   style="fill:#000000;stroke-width:0" />
<path
   id="path4493"
   d="m 451.71,482.39 0.06,-0.05 0.07,-0.04 0.05,-0.04 0.06,-0.05 0.06,-0.04 0.05,-0.04 0.05,-0.05 0.05,-0.04 0.05,-0.05 0.05,-0.04 0.05,-0.05 0.04,-0.05 0.05,-0.04 0.04,-0.05 0.04,-0.04 0.04,-0.05 c 0.2,-0.25 0.36,-0.51 0.48,-0.78 0.12,-0.27 0.22,-0.62 0.31,-1.07 0.09,-0.57 0.15,-1.21 0.15,-1.9 0,-0.63 -0.07,-1.25 -0.18,-1.84 -0.13,-0.59 -0.32,-1.06 -0.58,-1.45 -0.26,-0.38 -0.59,-0.68 -0.99,-0.91 v -0.18 c 0.81,0.36 1.46,0.95 1.95,1.78 0.49,0.83 0.74,1.75 0.74,2.75 0,0.69 -0.13,1.36 -0.38,2 -0.25,0.63 -0.6,1.18 -1.07,1.66 -0.33,0.33 -0.74,0.62 -1.24,0.86 z"
   style="fill:#000000;stroke-width:0" />
<path
   id="path4495"
   d="m 460.17,484.8 h -4.03 l -0.32,-1.16 0.14,-0.03 c 0.4,0.81 0.64,0.94 1.8,0.93 l -1.09,-4 c -0.12,-0.4 -0.3,-0.52 -0.8,-0.56 v -0.12 h 2.2 v 0.12 c -0.13,0.01 -0.25,0.02 -0.29,0.02 -0.3,0.02 -0.4,0.09 -0.4,0.32 0,0.1 0.03,0.19 0.1,0.45 l 1.05,3.77 h 0.41 c 0.55,0 0.79,-0.19 0.79,-0.62 0,-0.09 -0.01,-0.21 -0.02,-0.34 l 0.13,-0.01 z"
   style="fill:#000000;stroke-width:0" />
<path
   id="path4497"
   d="m 463.62,474.08 0.14,0.05 0.07,0.02 0.06,0.03 0.07,0.03 0.07,0.03 0.06,0.04 0.07,0.03 0.06,0.04 0.06,0.04 0.06,0.04 0.06,0.04 0.06,0.04 0.05,0.05 0.06,0.05 0.05,0.05 0.05,0.05 0.04,0.05 0.05,0.05 0.04,0.06 0.04,0.06 0.04,0.06 0.03,0.06 0.03,0.06 0.03,0.07 0.02,0.06 0.02,0.07 0.02,0.07 0.02,0.08 0.01,0.07 0,0.08 0,0.08 c 0,0.48 -0.27,1.03 -0.81,1.03 -0.33,0 -0.63,-0.24 -0.63,-0.58 0,-0.33 0.19,-0.54 0.52,-0.54 0.18,0 0.31,0.14 0.42,0.14 0.08,0 0.11,-0.14 0.11,-0.2 0,-0.62 -0.5,-1.06 -1.05,-1.24 z"
   style="fill:#000000;stroke-width:0" />
<path
   id="path4499"
   d="m 470.38,482.48 -0.05,-0.01 -0.05,0 -0.05,0 -0.05,0 -0.05,-0.01 -0.04,0 -0.05,-0.01 -0.05,-0.01 -0.04,-0.01 -0.05,-0.01 -0.04,-0.01 -0.05,-0.01 -0.04,-0.01 -0.04,-0.01 -0.04,-0.02 -0.04,-0.01 -0.04,-0.02 -0.05,-0.02 -0.04,-0.02 -0.03,-0.02 -0.04,-0.02 -0.04,-0.02 -0.04,-0.02 -0.04,-0.03 -0.03,-0.02 -0.04,-0.03 -0.04,-0.02 -0.03,-0.03 -0.04,-0.03 -0.03,-0.03 -0.04,-0.03 -0.03,-0.03 c -0.58,-0.56 -0.96,-1.71 -0.96,-2.87 0,-1.09 0.33,-2.25 0.8,-2.81 0.37,-0.44 0.87,-0.68 1.45,-0.68 v 0.26 c -0.86,0 -1.29,1.07 -1.29,3.14 0,2.11 0.44,3.22 1.3,3.22 h 0 c 0.84,0 1.29,-1.13 1.29,-3.21 0,-2.08 -0.44,-3.15 -1.3,-3.15 v -0.26 c 0.51,0 0.94,0.17 1.3,0.52 0.57,0.55 0.95,1.7 0.95,2.91 0,2.04 -0.9,3.45 -2.21,3.45 z"
   style="fill:#000000;stroke-width:0" />
<path
   id="path4501"
   d="m 474.18,476.69 -0.02,0 -0.03,-0.01 -0.03,0 -0.02,0 -0.03,-0.01 -0.03,-0.01 -0.02,-0.01 -0.03,-0.01 -0.02,-0.01 -0.02,-0.01 -0.02,-0.01 -0.03,-0.02 -0.02,-0.01 -0.02,-0.02 -0.02,-0.01 -0.02,-0.02 -0.01,-0.02 -0.02,-0.02 -0.02,-0.02 -0.01,-0.02 -0.02,-0.02 -0.01,-0.02 -0.01,-0.03 -0.01,-0.02 -0.01,-0.03 -0.01,-0.02 -0.01,-0.03 0,-0.02 -0.01,-0.03 0,-0.03 0,-0.02 0,-0.03 c 0,-0.3 0.24,-0.55 0.53,-0.55 0.3,0 0.54,0.25 0.54,0.55 0,0.3 -0.24,0.54 -0.54,0.54 z"
   style="fill:#000000;stroke-width:0" />
<path
   id="path4503"
   d="m 478.1,482.48 -0.05,-0.01 -0.05,0 -0.05,0 -0.05,0 -0.05,-0.01 -0.05,0 -0.04,-0.01 -0.05,-0.01 -0.05,-0.01 -0.04,-0.01 -0.04,-0.01 -0.05,-0.01 -0.04,-0.01 -0.04,-0.01 -0.05,-0.02 -0.04,-0.01 -0.04,-0.02 -0.04,-0.02 -0.04,-0.02 -0.04,-0.02 -0.04,-0.02 -0.03,-0.02 -0.04,-0.02 -0.04,-0.03 -0.04,-0.02 -0.03,-0.03 -0.04,-0.02 -0.04,-0.03 -0.03,-0.03 -0.04,-0.03 -0.03,-0.03 -0.04,-0.03 c -0.58,-0.56 -0.95,-1.71 -0.95,-2.87 0,-1.09 0.33,-2.25 0.79,-2.81 0.37,-0.44 0.88,-0.68 1.46,-0.68 v 0.26 c -0.86,0 -1.3,1.07 -1.3,3.14 0,2.11 0.45,3.22 1.31,3.22 h 0 c 0.83,0 1.28,-1.13 1.28,-3.21 0,-2.08 -0.43,-3.15 -1.29,-3.15 v -0.26 c 0.51,0 0.93,0.17 1.29,0.52 0.58,0.55 0.96,1.7 0.96,2.91 0,2.04 -0.91,3.45 -2.21,3.45 z"
   style="fill:#000000;stroke-width:0" />
<path
   id="path4505"
   d="m 483.45,482.48 -1.79,-0.91 v -0.14 c 0.12,0.05 0.23,0.09 0.27,0.11 0.18,0.07 0.35,0.11 0.45,0.11 0.21,0 0.3,-0.15 0.3,-0.47 v -4.51 c 0,-0.33 -0.08,-0.56 -0.24,-0.65 -0.15,-0.09 -0.29,-0.12 -0.71,-0.13 v -0.15 h 2.75 v 0.15 c -0.79,0.01 -0.95,0.11 -0.95,0.59 v 5.97 z"
   style="fill:#000000;stroke-width:0" />
<path
   id="path4507"
   d="m 488.58,478.09 0,-0.03 0.01,-0.02 0,-0.03 0,-0.03 0.01,-0.02 0.01,-0.03 0.01,-0.02 0.01,-0.03 0.01,-0.02 0.01,-0.03 0.01,-0.02 0.02,-0.02 0.01,-0.02 0.02,-0.02 0.01,-0.02 0.02,-0.02 0.02,-0.02 0.02,-0.01 0.02,-0.02 0.02,-0.02 0.02,-0.01 0.02,-0.01 0.03,-0.01 0.02,-0.01 0.03,-0.01 0.02,-0.01 0.03,-0.01 0.02,-0.01 0.03,0 0.03,0 0.02,-0.01 0.03,0 c 0.3,0 0.55,0.24 0.55,0.54 0,0.3 -0.25,0.55 -0.55,0.55 -0.3,0 -0.54,-0.25 -0.54,-0.55 z"
   style="fill:#000000;stroke-width:0" />
<path
   id="path4509"
   d="m 496.31,475.99 -0.03,0 -0.02,0 -0.05,0.01 -0.05,0 -0.04,0 -0.05,0.01 -0.04,0 -0.04,0.01 -0.03,0 -0.04,0.01 -0.03,0.01 -0.03,0.01 -0.03,0 -0.02,0.01 -0.03,0.01 -0.02,0.01 -0.02,0.02 -0.02,0.01 -0.02,0.01 -0.02,0.01 -0.01,0.02 -0.01,0.01 -0.02,0.02 -0.01,0.01 0,0.02 -0.01,0.02 -0.01,0.02 -0.01,0.02 0,0.02 0,0.02 -0.01,0.03 0,0.02 0,0.03 c 0,0.15 0.05,0.38 0.18,0.86 l 1.14,4.19 c 0.16,0.53 0.31,0.66 0.82,0.72 v 0.24 h -2.97 v -0.24 c 0.13,-0.02 0.26,-0.04 0.32,-0.05 0.3,-0.04 0.4,-0.12 0.4,-0.32 0,-0.12 -0.05,-0.43 -0.1,-0.61 l -1.22,-4.47 c -0.16,-0.52 -0.31,-0.66 -0.8,-0.72 v -0.25 h 2.95 z"
   style="fill:#000000;stroke-width:0" />
<polygon
   id="polygon4511"
   points="500.99,479.37 498.61,476 498.91,476 500.73,478.59 500.73,476 498.91,476 498.61,476 498.61,475.51 500.74,475.51 500.74,474.25 501.32,474.25 501.32,475.51 502.09,475.51 502.09,476 501.32,476 501.32,479.37 "
   style="fill:#000000;stroke-width:0" />
<path
   id="path4513"
   d="m 503.12,487.2 0.23,-0.2 0.22,-0.21 0.22,-0.22 0.21,-0.22 0.2,-0.23 0.2,-0.23 0.18,-0.24 0.18,-0.25 0.17,-0.25 0.16,-0.26 0.16,-0.26 0.14,-0.26 0.14,-0.27 0.14,-0.28 0.12,-0.27 0.12,-0.28 0.11,-0.29 0.1,-0.29 0.1,-0.29 0.08,-0.29 0.08,-0.29 0.08,-0.3 0.06,-0.3 0.06,-0.3 0.05,-0.3 0.05,-0.3 0.07,-0.61 0.04,-0.61 0.01,-0.61 c 0,-3.18 -1.03,-7.16 -3.64,-9.22 l -0.18,0.34 c 2.37,2.17 2.54,6.03 2.54,9.03 0,3.16 -0.34,5.78 -2.54,8.22 z"
   style="fill:#000000;stroke-width:0" />
</g>  </g>
</svg>
